ISO-10303-21;
HEADER;

/* File generated by Shapr3D Version 5.910.9193.0 */

FILE_DESCRIPTION(('HOOPS Exchange Step'),'2;1');

FILE_NAME('C:\\Users\\tbheg\\AppData\\Local\\Packages\\Shapr3D.Shapr3D_j403pzjkqtqbj\\TempState\\export\\temp_export',
'2025-07-25T12:28:47+02:00',
('tbheg'),
('Shapr3D Limited'),
'HOOPS Exchange 2024.8',
'Shapr3D',
'Authorized');

FILE_SCHEMA( ('AP242_MANAGED_MODEL_BASED_3D_ENGINEERING_MIM_LF {1 0 10303 442 1 1 4}') );

ENDSEC;

DATA;
#3=(NAMED_UNIT(*)PLANE_ANGLE_UNIT()SI_UNIT($,.RADIAN.));
#4=PLANE_ANGLE_MEASURE_WITH_UNIT(PLANE_ANGLE_MEASURE(0.0174532925),#3);
#5=(CONVERSION_BASED_UNIT('DEGREE',#4)NAMED_UNIT(#6)PLANE_ANGLE_UNIT());
#6=DIMENSIONAL_EXPONENTS(0.,0.,0.,0.,0.,0.,0.);
#7=(NAMED_UNIT(*)SI_UNIT($,.STERADIAN.)SOLID_ANGLE_UNIT());
#8=(LENGTH_UNIT()NAMED_UNIT(*)SI_UNIT(.MILLI.,.METRE.));
#9=UNCERTAINTY_MEASURE_WITH_UNIT(LENGTH_MEASURE(1.000000E-03),#8,'DISTANCE_ACCURACY_VALUE','Maximum Tolerance applied to model');
#10=(GEOMETRIC_REPRESENTATION_CONTEXT(3)GLOBAL_UNCERTAINTY_ASSIGNED_CONTEXT((#9))GLOBAL_UNIT_ASSIGNED_CONTEXT((#8,#5,#7))REPRESENTATION_CONTEXT('','root'));
#12=CARTESIAN_POINT('',(0.,0.,0.));
#13=DIRECTION('',(0.,0.,1.));
#14=DIRECTION('',(1.,0.,0.));
#15=AXIS2_PLACEMENT_3D('',#12,#13,#14);
#26=(NAMED_UNIT(*)PLANE_ANGLE_UNIT()SI_UNIT($,.RADIAN.));
#27=PLANE_ANGLE_MEASURE_WITH_UNIT(PLANE_ANGLE_MEASURE(0.0174532925),#26);
#28=(CONVERSION_BASED_UNIT('DEGREE',#27)NAMED_UNIT(#29)PLANE_ANGLE_UNIT());
#29=DIMENSIONAL_EXPONENTS(0.,0.,0.,0.,0.,0.,0.);
#30=(NAMED_UNIT(*)SI_UNIT($,.STERADIAN.)SOLID_ANGLE_UNIT());
#31=(LENGTH_UNIT()NAMED_UNIT(*)SI_UNIT(.MILLI.,.METRE.));
#32=UNCERTAINTY_MEASURE_WITH_UNIT(LENGTH_MEASURE(1.000000E-03),#31,'DISTANCE_ACCURACY_VALUE','Maximum Tolerance applied to model');
#33=(GEOMETRIC_REPRESENTATION_CONTEXT(3)GLOBAL_UNCERTAINTY_ASSIGNED_CONTEXT((#32))GLOBAL_UNIT_ASSIGNED_CONTEXT((#31,#28,#30))REPRESENTATION_CONTEXT('','RoboticArm.step'));
#45=CARTESIAN_POINT('',(0.,0.,0.));
#46=DIRECTION('',(0.,0.,1.));
#47=DIRECTION('',(1.,0.,-0.));
#48=AXIS2_PLACEMENT_3D('',#45,#46,#47);
#49=ITEM_DEFINED_TRANSFORMATION('','',#48,#15);
#50=(REPRESENTATION_RELATIONSHIP('','',#35,#16)REPRESENTATION_RELATIONSHIP_WITH_TRANSFORMATION(#49)SHAPE_REPRESENTATION_RELATIONSHIP());
#51=NEXT_ASSEMBLY_USAGE_OCCURRENCE('RoboticArm.step_1','RoboticArm.step','RoboticArm.step',#25,#44,$);
#52=PRODUCT_DEFINITION_SHAPE('','',#51);
#53=CONTEXT_DEPENDENT_SHAPE_REPRESENTATION(#50,#52);
#54=(NAMED_UNIT(*)PLANE_ANGLE_UNIT()SI_UNIT($,.RADIAN.));
#55=PLANE_ANGLE_MEASURE_WITH_UNIT(PLANE_ANGLE_MEASURE(0.0174532925),#54);
#56=(CONVERSION_BASED_UNIT('DEGREE',#55)NAMED_UNIT(#57)PLANE_ANGLE_UNIT());
#57=DIMENSIONAL_EXPONENTS(0.,0.,0.,0.,0.,0.,0.);
#58=(NAMED_UNIT(*)SI_UNIT($,.STERADIAN.)SOLID_ANGLE_UNIT());
#59=(LENGTH_UNIT()NAMED_UNIT(*)SI_UNIT(.MILLI.,.METRE.));
#60=UNCERTAINTY_MEASURE_WITH_UNIT(LENGTH_MEASURE(1.000000E-05),#59,'DISTANCE_ACCURACY_VALUE','Maximum Tolerance applied to model');
#61=(GEOMETRIC_REPRESENTATION_CONTEXT(3)GLOBAL_UNCERTAINTY_ASSIGNED_CONTEXT((#60))GLOBAL_UNIT_ASSIGNED_CONTEXT((#59,#56,#58))REPRESENTATION_CONTEXT('','Base_Plate'));
#73=CARTESIAN_POINT('',(0.,0.,0.));
#74=DIRECTION('',(0.,0.,1.));
#75=DIRECTION('',(1.,0.,-0.));
#76=AXIS2_PLACEMENT_3D('',#73,#74,#75);
#77=ITEM_DEFINED_TRANSFORMATION('','',#76,#15);
#78=(REPRESENTATION_RELATIONSHIP('','',#63,#35)REPRESENTATION_RELATIONSHIP_WITH_TRANSFORMATION(#77)SHAPE_REPRESENTATION_RELATIONSHIP());
#79=NEXT_ASSEMBLY_USAGE_OCCURRENCE('Base_Plate_2','Base_Plate','Base_Plate',#44,#72,$);
#80=PRODUCT_DEFINITION_SHAPE('','',#79);
#81=CONTEXT_DEPENDENT_SHAPE_REPRESENTATION(#78,#80);
#83=CARTESIAN_POINT('',(-153.308977778,266.485843431,3.885364778));
#84=DIRECTION('',(0.,0.,-1.));
#85=DIRECTION('',(-1.,0.,0.));
#86=AXIS2_PLACEMENT_3D('',#83,#84,#85);
#87=PLANE('',#86);
#88=CARTESIAN_POINT('',(-43.500175843,-4.625828013,3.885364778));
#89=VERTEX_POINT('',#88);
#90=CARTESIAN_POINT('',(-43.500175843,15.374171987,3.885364778));
#91=VERTEX_POINT('',#90);
#92=CARTESIAN_POINT('',(-43.500175843,-4.625828013,3.885364778));
#93=DIRECTION('',(0.,1.,0.));
#94=VECTOR('',#93,20.);
#95=LINE('',#92,#94);
#96=EDGE_CURVE('',#89,#91,#95,.T.);
#97=ORIENTED_EDGE('',*,*,#96,.F.);
#98=CARTESIAN_POINT('',(-40.500175843,-4.625828013,3.885364778));
#99=VERTEX_POINT('',#98);
#100=CARTESIAN_POINT('',(-42.000175843,-4.625828013,3.885364778));
#101=DIRECTION('',(0.,0.,-1.));
#102=DIRECTION('',(-1.,0.,0.));
#103=AXIS2_PLACEMENT_3D('',#100,#101,#102);
#104=CIRCLE('',#103,1.5);
#105=EDGE_CURVE('',#99,#89,#104,.T.);
#106=ORIENTED_EDGE('',*,*,#105,.F.);
#107=CARTESIAN_POINT('',(-40.500175843,15.374171987,3.885364778));
#108=VERTEX_POINT('',#107);
#109=CARTESIAN_POINT('',(-40.500175843,15.374171987,3.885364778));
#110=DIRECTION('',(0.,-1.,0.));
#111=VECTOR('',#110,20.);
#112=LINE('',#109,#111);
#113=EDGE_CURVE('',#108,#99,#112,.T.);
#114=ORIENTED_EDGE('',*,*,#113,.F.);
#115=CARTESIAN_POINT('',(-42.000175843,15.374171987,3.885364778));
#116=DIRECTION('',(0.,0.,-1.));
#117=DIRECTION('',(-1.,0.,0.));
#118=AXIS2_PLACEMENT_3D('',#115,#116,#117);
#119=CIRCLE('',#118,1.5);
#120=EDGE_CURVE('',#91,#108,#119,.T.);
#121=ORIENTED_EDGE('',*,*,#120,.F.);
#122=EDGE_LOOP('',(#97,#106,#114,#121));
#123=FACE_BOUND('',#122,.T.);
#124=CARTESIAN_POINT('',(-37.600175843,-4.625828013,3.885364778));
#125=VERTEX_POINT('',#124);
#126=CARTESIAN_POINT('',(-46.400175843,-4.625828013,3.885364778));
#127=VERTEX_POINT('',#126);
#128=CARTESIAN_POINT('',(-42.000175843,-4.625828013,3.885364778));
#129=DIRECTION('',(0.,0.,-1.));
#130=DIRECTION('',(-1.,0.,0.));
#131=AXIS2_PLACEMENT_3D('',#128,#129,#130);
#132=CIRCLE('',#131,4.4);
#133=EDGE_CURVE('',#125,#127,#132,.T.);
#134=ORIENTED_EDGE('',*,*,#133,.T.);
#135=CARTESIAN_POINT('',(-46.400175843,15.374171987,3.885364778));
#136=VERTEX_POINT('',#135);
#137=CARTESIAN_POINT('',(-46.400175843,-4.625828013,3.885364778));
#138=DIRECTION('',(0.,1.,0.));
#139=VECTOR('',#138,20.);
#140=LINE('',#137,#139);
#141=EDGE_CURVE('',#127,#136,#140,.T.);
#142=ORIENTED_EDGE('',*,*,#141,.T.);
#143=CARTESIAN_POINT('',(-37.600175843,15.374171987,3.885364778));
#144=VERTEX_POINT('',#143);
#145=CARTESIAN_POINT('',(-42.000175843,15.374171987,3.885364778));
#146=DIRECTION('',(0.,0.,-1.));
#147=DIRECTION('',(-1.,0.,0.));
#148=AXIS2_PLACEMENT_3D('',#145,#146,#147);
#149=CIRCLE('',#148,4.4);
#150=EDGE_CURVE('',#136,#144,#149,.T.);
#151=ORIENTED_EDGE('',*,*,#150,.T.);
#152=CARTESIAN_POINT('',(-37.600175843,-4.625828013,3.885364778));
#153=DIRECTION('',(0.,1.,0.));
#154=VECTOR('',#153,20.);
#155=LINE('',#152,#154);
#156=EDGE_CURVE('',#125,#144,#155,.T.);
#157=ORIENTED_EDGE('',*,*,#156,.F.);
#158=EDGE_LOOP('',(#134,#142,#151,#157));
#159=FACE_BOUND('',#158,.T.);
#160=ADVANCED_FACE('',(#123,#159),#87,.T.);
#161=CARTESIAN_POINT('',(-153.308977778,266.485843431,3.885364778));
#162=DIRECTION('',(0.,0.,-1.));
#163=DIRECTION('',(-1.,0.,0.));
#164=AXIS2_PLACEMENT_3D('',#161,#162,#163);
#165=PLANE('',#164);
#166=CARTESIAN_POINT('',(-16.500175843,15.374171987,3.885364778));
#167=VERTEX_POINT('',#166);
#168=CARTESIAN_POINT('',(-16.500175843,-4.625828013,3.885364778));
#169=VERTEX_POINT('',#168);
#170=CARTESIAN_POINT('',(-16.500175843,15.374171987,3.885364778));
#171=DIRECTION('',(0.,-1.,0.));
#172=VECTOR('',#171,20.);
#173=LINE('',#170,#172);
#174=EDGE_CURVE('',#167,#169,#173,.T.);
#175=ORIENTED_EDGE('',*,*,#174,.F.);
#176=CARTESIAN_POINT('',(-19.500175843,15.374171987,3.885364778));
#177=VERTEX_POINT('',#176);
#178=CARTESIAN_POINT('',(-18.000175843,15.374171987,3.885364778));
#179=DIRECTION('',(0.,0.,-1.));
#180=DIRECTION('',(-1.,0.,0.));
#181=AXIS2_PLACEMENT_3D('',#178,#179,#180);
#182=CIRCLE('',#181,1.5);
#183=EDGE_CURVE('',#177,#167,#182,.T.);
#184=ORIENTED_EDGE('',*,*,#183,.F.);
#185=CARTESIAN_POINT('',(-19.500175843,-4.625828013,3.885364778));
#186=VERTEX_POINT('',#185);
#187=CARTESIAN_POINT('',(-19.500175843,-4.625828013,3.885364778));
#188=DIRECTION('',(0.,1.,0.));
#189=VECTOR('',#188,20.);
#190=LINE('',#187,#189);
#191=EDGE_CURVE('',#186,#177,#190,.T.);
#192=ORIENTED_EDGE('',*,*,#191,.F.);
#193=CARTESIAN_POINT('',(-18.000175843,-4.625828013,3.885364778));
#194=DIRECTION('',(0.,0.,-1.));
#195=DIRECTION('',(-1.,0.,0.));
#196=AXIS2_PLACEMENT_3D('',#193,#194,#195);
#197=CIRCLE('',#196,1.5);
#198=EDGE_CURVE('',#169,#186,#197,.T.);
#199=ORIENTED_EDGE('',*,*,#198,.F.);
#200=EDGE_LOOP('',(#175,#184,#192,#199));
#201=FACE_BOUND('',#200,.T.);
#202=CARTESIAN_POINT('',(-13.600175843,-4.625828013,3.885364778));
#203=VERTEX_POINT('',#202);
#204=CARTESIAN_POINT('',(-22.400175843,-4.625828013,3.885364778));
#205=VERTEX_POINT('',#204);
#206=CARTESIAN_POINT('',(-18.000175843,-4.625828013,3.885364778));
#207=DIRECTION('',(0.,0.,-1.));
#208=DIRECTION('',(-1.,0.,0.));
#209=AXIS2_PLACEMENT_3D('',#206,#207,#208);
#210=CIRCLE('',#209,4.4);
#211=EDGE_CURVE('',#203,#205,#210,.T.);
#212=ORIENTED_EDGE('',*,*,#211,.T.);
#213=CARTESIAN_POINT('',(-22.400175843,15.374171987,3.885364778));
#214=VERTEX_POINT('',#213);
#215=CARTESIAN_POINT('',(-22.400175843,-4.625828013,3.885364778));
#216=DIRECTION('',(0.,1.,0.));
#217=VECTOR('',#216,20.);
#218=LINE('',#215,#217);
#219=EDGE_CURVE('',#205,#214,#218,.T.);
#220=ORIENTED_EDGE('',*,*,#219,.T.);
#221=CARTESIAN_POINT('',(-13.600175843,15.374171987,3.885364778));
#222=VERTEX_POINT('',#221);
#223=CARTESIAN_POINT('',(-18.000175843,15.374171987,3.885364778));
#224=DIRECTION('',(0.,0.,-1.));
#225=DIRECTION('',(-1.,0.,0.));
#226=AXIS2_PLACEMENT_3D('',#223,#224,#225);
#227=CIRCLE('',#226,4.4);
#228=EDGE_CURVE('',#214,#222,#227,.T.);
#229=ORIENTED_EDGE('',*,*,#228,.T.);
#230=CARTESIAN_POINT('',(-13.600175843,-4.625828013,3.885364778));
#231=DIRECTION('',(0.,1.,0.));
#232=VECTOR('',#231,20.);
#233=LINE('',#230,#232);
#234=EDGE_CURVE('',#203,#222,#233,.T.);
#235=ORIENTED_EDGE('',*,*,#234,.F.);
#236=EDGE_LOOP('',(#212,#220,#229,#235));
#237=FACE_BOUND('',#236,.T.);
#238=ADVANCED_FACE('',(#201,#237),#165,.T.);
#239=CARTESIAN_POINT('',(-153.748977778,272.745843431,3.885364778));
#240=DIRECTION('',(0.,0.,-1.));
#241=DIRECTION('',(-1.,0.,0.));
#242=AXIS2_PLACEMENT_3D('',#239,#240,#241);
#243=PLANE('',#242);
#244=CARTESIAN_POINT('',(40.499866475,-15.62521279,3.885364778));
#245=VERTEX_POINT('',#244);
#246=CARTESIAN_POINT('',(40.499866475,4.37478721,3.885364778));
#247=VERTEX_POINT('',#246);
#248=CARTESIAN_POINT('',(40.499866475,-15.62521279,3.885364778));
#249=DIRECTION('',(0.,1.,0.));
#250=VECTOR('',#249,20.);
#251=LINE('',#248,#250);
#252=EDGE_CURVE('',#245,#247,#251,.T.);
#253=ORIENTED_EDGE('',*,*,#252,.F.);
#254=CARTESIAN_POINT('',(43.499866475,-15.62521279,3.885364778));
#255=VERTEX_POINT('',#254);
#256=CARTESIAN_POINT('',(41.999866475,-15.62521279,3.885364778));
#257=DIRECTION('',(0.,0.,-1.));
#258=DIRECTION('',(-1.,0.,0.));
#259=AXIS2_PLACEMENT_3D('',#256,#257,#258);
#260=CIRCLE('',#259,1.5);
#261=EDGE_CURVE('',#255,#245,#260,.T.);
#262=ORIENTED_EDGE('',*,*,#261,.F.);
#263=CARTESIAN_POINT('',(43.499866475,4.37478721,3.885364778));
#264=VERTEX_POINT('',#263);
#265=CARTESIAN_POINT('',(43.499866475,4.37478721,3.885364778));
#266=DIRECTION('',(0.,-1.,0.));
#267=VECTOR('',#266,20.);
#268=LINE('',#265,#267);
#269=EDGE_CURVE('',#264,#255,#268,.T.);
#270=ORIENTED_EDGE('',*,*,#269,.F.);
#271=CARTESIAN_POINT('',(41.999866475,4.37478721,3.885364778));
#272=DIRECTION('',(0.,0.,-1.));
#273=DIRECTION('',(-1.,0.,0.));
#274=AXIS2_PLACEMENT_3D('',#271,#272,#273);
#275=CIRCLE('',#274,1.5);
#276=EDGE_CURVE('',#247,#264,#275,.T.);
#277=ORIENTED_EDGE('',*,*,#276,.F.);
#278=EDGE_LOOP('',(#253,#262,#270,#277));
#279=FACE_BOUND('',#278,.T.);
#280=CARTESIAN_POINT('',(37.599866475,4.37478721,3.885364778));
#281=VERTEX_POINT('',#280);
#282=CARTESIAN_POINT('',(46.399866475,4.37478721,3.885364778));
#283=VERTEX_POINT('',#282);
#284=CARTESIAN_POINT('',(41.999866475,4.37478721,3.885364778));
#285=DIRECTION('',(0.,0.,-1.));
#286=DIRECTION('',(-1.,0.,0.));
#287=AXIS2_PLACEMENT_3D('',#284,#285,#286);
#288=CIRCLE('',#287,4.4);
#289=EDGE_CURVE('',#281,#283,#288,.T.);
#290=ORIENTED_EDGE('',*,*,#289,.T.);
#291=CARTESIAN_POINT('',(46.399866475,-15.62521279,3.885364778));
#292=VERTEX_POINT('',#291);
#293=CARTESIAN_POINT('',(46.399866475,4.37478721,3.885364778));
#294=DIRECTION('',(0.,-1.,0.));
#295=VECTOR('',#294,20.);
#296=LINE('',#293,#295);
#297=EDGE_CURVE('',#283,#292,#296,.T.);
#298=ORIENTED_EDGE('',*,*,#297,.T.);
#299=CARTESIAN_POINT('',(37.599866475,-15.62521279,3.885364778));
#300=VERTEX_POINT('',#299);
#301=CARTESIAN_POINT('',(41.999866475,-15.62521279,3.885364778));
#302=DIRECTION('',(0.,0.,-1.));
#303=DIRECTION('',(-1.,0.,0.));
#304=AXIS2_PLACEMENT_3D('',#301,#302,#303);
#305=CIRCLE('',#304,4.4);
#306=EDGE_CURVE('',#292,#300,#305,.T.);
#307=ORIENTED_EDGE('',*,*,#306,.T.);
#308=CARTESIAN_POINT('',(37.599866475,-15.62521279,3.885364778));
#309=DIRECTION('',(0.,1.,0.));
#310=VECTOR('',#309,20.);
#311=LINE('',#308,#310);
#312=EDGE_CURVE('',#300,#281,#311,.T.);
#313=ORIENTED_EDGE('',*,*,#312,.T.);
#314=EDGE_LOOP('',(#290,#298,#307,#313));
#315=FACE_BOUND('',#314,.T.);
#316=ADVANCED_FACE('',(#279,#315),#243,.T.);
#317=CARTESIAN_POINT('',(37.599866475,-4.530056065,-0.114635222));
#318=DIRECTION('',(1.,0.,0.));
#319=DIRECTION('',(0.,0.,-1.));
#320=AXIS2_PLACEMENT_3D('',#317,#318,#319);
#321=PLANE('',#320);
#322=ORIENTED_EDGE('',*,*,#312,.F.);
#323=CARTESIAN_POINT('',(37.599866475,-15.62521279,0.885364778));
#324=VERTEX_POINT('',#323);
#325=CARTESIAN_POINT('',(37.599866475,-15.62521279,3.885364778));
#326=DIRECTION('',(0.,0.,-1.));
#327=VECTOR('',#326,3.);
#328=LINE('',#325,#327);
#329=EDGE_CURVE('',#300,#324,#328,.T.);
#330=ORIENTED_EDGE('',*,*,#329,.T.);
#331=CARTESIAN_POINT('',(37.599866475,4.37478721,0.885364778));
#332=VERTEX_POINT('',#331);
#333=CARTESIAN_POINT('',(37.599866475,-15.62521279,0.885364778));
#334=DIRECTION('',(0.,1.,0.));
#335=VECTOR('',#334,20.);
#336=LINE('',#333,#335);
#337=EDGE_CURVE('',#324,#332,#336,.T.);
#338=ORIENTED_EDGE('',*,*,#337,.T.);
#339=CARTESIAN_POINT('',(37.599866475,4.37478721,3.885364778));
#340=DIRECTION('',(0.,0.,-1.));
#341=VECTOR('',#340,3.);
#342=LINE('',#339,#341);
#343=EDGE_CURVE('',#281,#332,#342,.T.);
#344=ORIENTED_EDGE('',*,*,#343,.F.);
#345=EDGE_LOOP('',(#322,#330,#338,#344));
#346=FACE_BOUND('',#345,.T.);
#347=ADVANCED_FACE('',(#346),#321,.T.);
#348=CARTESIAN_POINT('',(-153.748977778,272.745843431,3.885364778));
#349=DIRECTION('',(0.,0.,-1.));
#350=DIRECTION('',(-1.,0.,0.));
#351=AXIS2_PLACEMENT_3D('',#348,#349,#350);
#352=PLANE('',#351);
#353=CARTESIAN_POINT('',(19.499866475,4.37478721,3.885364778));
#354=VERTEX_POINT('',#353);
#355=CARTESIAN_POINT('',(19.499866475,-15.62521279,3.885364778));
#356=VERTEX_POINT('',#355);
#357=CARTESIAN_POINT('',(19.499866475,4.37478721,3.885364778));
#358=DIRECTION('',(0.,-1.,0.));
#359=VECTOR('',#358,20.);
#360=LINE('',#357,#359);
#361=EDGE_CURVE('',#354,#356,#360,.T.);
#362=ORIENTED_EDGE('',*,*,#361,.F.);
#363=CARTESIAN_POINT('',(16.499866475,4.37478721,3.885364778));
#364=VERTEX_POINT('',#363);
#365=CARTESIAN_POINT('',(17.999866475,4.37478721,3.885364778));
#366=DIRECTION('',(0.,0.,-1.));
#367=DIRECTION('',(-1.,0.,0.));
#368=AXIS2_PLACEMENT_3D('',#365,#366,#367);
#369=CIRCLE('',#368,1.5);
#370=EDGE_CURVE('',#364,#354,#369,.T.);
#371=ORIENTED_EDGE('',*,*,#370,.F.);
#372=CARTESIAN_POINT('',(16.499866475,-15.62521279,3.885364778));
#373=VERTEX_POINT('',#372);
#374=CARTESIAN_POINT('',(16.499866475,-15.62521279,3.885364778));
#375=DIRECTION('',(0.,1.,0.));
#376=VECTOR('',#375,20.);
#377=LINE('',#374,#376);
#378=EDGE_CURVE('',#373,#364,#377,.T.);
#379=ORIENTED_EDGE('',*,*,#378,.F.);
#380=CARTESIAN_POINT('',(17.999866475,-15.62521279,3.885364778));
#381=DIRECTION('',(0.,0.,-1.));
#382=DIRECTION('',(-1.,0.,0.));
#383=AXIS2_PLACEMENT_3D('',#380,#381,#382);
#384=CIRCLE('',#383,1.5);
#385=EDGE_CURVE('',#356,#373,#384,.T.);
#386=ORIENTED_EDGE('',*,*,#385,.F.);
#387=EDGE_LOOP('',(#362,#371,#379,#386));
#388=FACE_BOUND('',#387,.T.);
#389=CARTESIAN_POINT('',(13.599866475,4.37478721,3.885364778));
#390=VERTEX_POINT('',#389);
#391=CARTESIAN_POINT('',(22.399866475,4.37478721,3.885364778));
#392=VERTEX_POINT('',#391);
#393=CARTESIAN_POINT('',(17.999866475,4.37478721,3.885364778));
#394=DIRECTION('',(0.,0.,-1.));
#395=DIRECTION('',(-1.,0.,0.));
#396=AXIS2_PLACEMENT_3D('',#393,#394,#395);
#397=CIRCLE('',#396,4.4);
#398=EDGE_CURVE('',#390,#392,#397,.T.);
#399=ORIENTED_EDGE('',*,*,#398,.T.);
#400=CARTESIAN_POINT('',(22.399866475,-15.62521279,3.885364778));
#401=VERTEX_POINT('',#400);
#402=CARTESIAN_POINT('',(22.399866475,-15.62521279,3.885364778));
#403=DIRECTION('',(0.,1.,0.));
#404=VECTOR('',#403,20.);
#405=LINE('',#402,#404);
#406=EDGE_CURVE('',#401,#392,#405,.T.);
#407=ORIENTED_EDGE('',*,*,#406,.F.);
#408=CARTESIAN_POINT('',(13.599866475,-15.62521279,3.885364778));
#409=VERTEX_POINT('',#408);
#410=CARTESIAN_POINT('',(17.999866475,-15.62521279,3.885364778));
#411=DIRECTION('',(0.,0.,-1.));
#412=DIRECTION('',(-1.,0.,0.));
#413=AXIS2_PLACEMENT_3D('',#410,#411,#412);
#414=CIRCLE('',#413,4.4);
#415=EDGE_CURVE('',#401,#409,#414,.T.);
#416=ORIENTED_EDGE('',*,*,#415,.T.);
#417=CARTESIAN_POINT('',(13.599866475,-15.62521279,3.885364778));
#418=DIRECTION('',(0.,1.,0.));
#419=VECTOR('',#418,20.);
#420=LINE('',#417,#419);
#421=EDGE_CURVE('',#409,#390,#420,.T.);
#422=ORIENTED_EDGE('',*,*,#421,.T.);
#423=EDGE_LOOP('',(#399,#407,#416,#422));
#424=FACE_BOUND('',#423,.T.);
#425=ADVANCED_FACE('',(#388,#424),#352,.T.);
#426=CARTESIAN_POINT('',(13.599866475,-4.506506593,-0.114635222));
#427=DIRECTION('',(1.,0.,0.));
#428=DIRECTION('',(0.,0.,-1.));
#429=AXIS2_PLACEMENT_3D('',#426,#427,#428);
#430=PLANE('',#429);
#431=ORIENTED_EDGE('',*,*,#421,.F.);
#432=CARTESIAN_POINT('',(13.599866475,-15.62521279,0.885364778));
#433=VERTEX_POINT('',#432);
#434=CARTESIAN_POINT('',(13.599866475,-15.62521279,3.885364778));
#435=DIRECTION('',(0.,0.,-1.));
#436=VECTOR('',#435,3.);
#437=LINE('',#434,#436);
#438=EDGE_CURVE('',#409,#433,#437,.T.);
#439=ORIENTED_EDGE('',*,*,#438,.T.);
#440=CARTESIAN_POINT('',(13.599866475,4.37478721,0.885364778));
#441=VERTEX_POINT('',#440);
#442=CARTESIAN_POINT('',(13.599866475,-15.62521279,0.885364778));
#443=DIRECTION('',(0.,1.,0.));
#444=VECTOR('',#443,20.);
#445=LINE('',#442,#444);
#446=EDGE_CURVE('',#433,#441,#445,.T.);
#447=ORIENTED_EDGE('',*,*,#446,.T.);
#448=CARTESIAN_POINT('',(13.599866475,4.37478721,3.885364778));
#449=DIRECTION('',(0.,0.,-1.));
#450=VECTOR('',#449,3.);
#451=LINE('',#448,#450);
#452=EDGE_CURVE('',#390,#441,#451,.T.);
#453=ORIENTED_EDGE('',*,*,#452,.F.);
#454=EDGE_LOOP('',(#431,#439,#447,#453));
#455=FACE_BOUND('',#454,.T.);
#456=ADVANCED_FACE('',(#455),#430,.T.);
#457=CARTESIAN_POINT('',(22.399866475,-4.506506593,-0.114635222));
#458=DIRECTION('',(1.,0.,0.));
#459=DIRECTION('',(0.,0.,-1.));
#460=AXIS2_PLACEMENT_3D('',#457,#458,#459);
#461=PLANE('',#460);
#462=CARTESIAN_POINT('',(22.399866475,-15.62521279,0.885364778));
#463=VERTEX_POINT('',#462);
#464=CARTESIAN_POINT('',(22.399866475,-15.62521279,3.885364778));
#465=DIRECTION('',(0.,0.,-1.));
#466=VECTOR('',#465,3.);
#467=LINE('',#464,#466);
#468=EDGE_CURVE('',#401,#463,#467,.T.);
#469=ORIENTED_EDGE('',*,*,#468,.F.);
#470=ORIENTED_EDGE('',*,*,#406,.T.);
#471=CARTESIAN_POINT('',(22.399866475,4.37478721,0.885364778));
#472=VERTEX_POINT('',#471);
#473=CARTESIAN_POINT('',(22.399866475,4.37478721,3.885364778));
#474=DIRECTION('',(0.,0.,-1.));
#475=VECTOR('',#474,3.);
#476=LINE('',#473,#475);
#477=EDGE_CURVE('',#392,#472,#476,.T.);
#478=ORIENTED_EDGE('',*,*,#477,.T.);
#479=CARTESIAN_POINT('',(22.399866475,-15.62521279,0.885364778));
#480=DIRECTION('',(0.,1.,0.));
#481=VECTOR('',#480,20.);
#482=LINE('',#479,#481);
#483=EDGE_CURVE('',#463,#472,#482,.T.);
#484=ORIENTED_EDGE('',*,*,#483,.F.);
#485=EDGE_LOOP('',(#469,#470,#478,#484));
#486=FACE_BOUND('',#485,.T.);
#487=ADVANCED_FACE('',(#486),#461,.F.);
#488=CARTESIAN_POINT('',(-43.500175843,6.11201841,10.297864778));
#489=DIRECTION('',(-1.,0.,0.));
#490=DIRECTION('',(0.,0.,-1.));
#491=AXIS2_PLACEMENT_3D('',#488,#489,#490);
#492=PLANE('',#491);
#493=CARTESIAN_POINT('',(-43.500175843,15.374171987,10.885364778));
#494=VERTEX_POINT('',#493);
#495=CARTESIAN_POINT('',(-43.500175843,15.374171987,10.885364778));
#496=DIRECTION('',(0.,0.,-1.));
#497=VECTOR('',#496,7.);
#498=LINE('',#495,#497);
#499=EDGE_CURVE('',#494,#91,#498,.T.);
#500=ORIENTED_EDGE('',*,*,#499,.F.);
#501=CARTESIAN_POINT('',(-43.500175843,-4.625828013,10.885364778));
#502=VERTEX_POINT('',#501);
#503=CARTESIAN_POINT('',(-43.500175843,-4.625828013,10.885364778));
#504=DIRECTION('',(0.,1.,0.));
#505=VECTOR('',#504,20.);
#506=LINE('',#503,#505);
#507=EDGE_CURVE('',#502,#494,#506,.T.);
#508=ORIENTED_EDGE('',*,*,#507,.F.);
#509=CARTESIAN_POINT('',(-43.500175843,-4.625828013,10.885364778));
#510=DIRECTION('',(0.,0.,-1.));
#511=VECTOR('',#510,7.);
#512=LINE('',#509,#511);
#513=EDGE_CURVE('',#502,#89,#512,.T.);
#514=ORIENTED_EDGE('',*,*,#513,.T.);
#515=ORIENTED_EDGE('',*,*,#96,.T.);
#516=EDGE_LOOP('',(#500,#508,#514,#515));
#517=FACE_BOUND('',#516,.T.);
#518=ADVANCED_FACE('',(#517),#492,.F.);
#519=CARTESIAN_POINT('',(-16.500175843,6.088468938,10.297864778));
#520=DIRECTION('',(1.,0.,0.));
#521=DIRECTION('',(0.,0.,1.));
#522=AXIS2_PLACEMENT_3D('',#519,#520,#521);
#523=PLANE('',#522);
#524=CARTESIAN_POINT('',(-16.500175843,-4.625828013,10.885364778));
#525=VERTEX_POINT('',#524);
#526=CARTESIAN_POINT('',(-16.500175843,-4.625828013,10.885364778));
#527=DIRECTION('',(0.,0.,-1.));
#528=VECTOR('',#527,7.);
#529=LINE('',#526,#528);
#530=EDGE_CURVE('',#525,#169,#529,.T.);
#531=ORIENTED_EDGE('',*,*,#530,.F.);
#532=CARTESIAN_POINT('',(-16.500175843,15.374171987,10.885364778));
#533=VERTEX_POINT('',#532);
#534=CARTESIAN_POINT('',(-16.500175843,15.374171987,10.885364778));
#535=DIRECTION('',(0.,-1.,0.));
#536=VECTOR('',#535,20.);
#537=LINE('',#534,#536);
#538=EDGE_CURVE('',#533,#525,#537,.T.);
#539=ORIENTED_EDGE('',*,*,#538,.F.);
#540=CARTESIAN_POINT('',(-16.500175843,15.374171987,10.885364778));
#541=DIRECTION('',(-0.,-0.,-1.));
#542=VECTOR('',#541,7.);
#543=LINE('',#540,#542);
#544=EDGE_CURVE('',#533,#167,#543,.T.);
#545=ORIENTED_EDGE('',*,*,#544,.T.);
#546=ORIENTED_EDGE('',*,*,#174,.T.);
#547=EDGE_LOOP('',(#531,#539,#545,#546));
#548=FACE_BOUND('',#547,.T.);
#549=ADVANCED_FACE('',(#548),#523,.F.);
#550=CARTESIAN_POINT('',(-22.400175843,4.175968938,-0.114635222));
#551=DIRECTION('',(1.,0.,0.));
#552=DIRECTION('',(0.,0.,-1.));
#553=AXIS2_PLACEMENT_3D('',#550,#551,#552);
#554=PLANE('',#553);
#555=CARTESIAN_POINT('',(-22.400175843,15.374171987,0.885364778));
#556=VERTEX_POINT('',#555);
#557=CARTESIAN_POINT('',(-22.400175843,15.374171987,3.885364778));
#558=DIRECTION('',(0.,0.,-1.));
#559=VECTOR('',#558,3.);
#560=LINE('',#557,#559);
#561=EDGE_CURVE('',#214,#556,#560,.T.);
#562=ORIENTED_EDGE('',*,*,#561,.F.);
#563=ORIENTED_EDGE('',*,*,#219,.F.);
#564=CARTESIAN_POINT('',(-22.400175843,-4.625828013,0.885364778));
#565=VERTEX_POINT('',#564);
#566=CARTESIAN_POINT('',(-22.400175843,-4.625828013,3.885364778));
#567=DIRECTION('',(0.,0.,-1.));
#568=VECTOR('',#567,3.);
#569=LINE('',#566,#568);
#570=EDGE_CURVE('',#205,#565,#569,.T.);
#571=ORIENTED_EDGE('',*,*,#570,.T.);
#572=CARTESIAN_POINT('',(-22.400175843,-4.625828013,0.885364778));
#573=DIRECTION('',(0.,1.,0.));
#574=VECTOR('',#573,20.);
#575=LINE('',#572,#574);
#576=EDGE_CURVE('',#565,#556,#575,.T.);
#577=ORIENTED_EDGE('',*,*,#576,.T.);
#578=EDGE_LOOP('',(#562,#563,#571,#577));
#579=FACE_BOUND('',#578,.T.);
#580=ADVANCED_FACE('',(#579),#554,.T.);
#581=CARTESIAN_POINT('',(-13.600175843,4.175968938,-0.114635222));
#582=DIRECTION('',(1.,0.,0.));
#583=DIRECTION('',(0.,0.,-1.));
#584=AXIS2_PLACEMENT_3D('',#581,#582,#583);
#585=PLANE('',#584);
#586=ORIENTED_EDGE('',*,*,#234,.T.);
#587=CARTESIAN_POINT('',(-13.600175843,15.374171987,0.885364778));
#588=VERTEX_POINT('',#587);
#589=CARTESIAN_POINT('',(-13.600175843,15.374171987,3.885364778));
#590=DIRECTION('',(0.,0.,-1.));
#591=VECTOR('',#590,3.);
#592=LINE('',#589,#591);
#593=EDGE_CURVE('',#222,#588,#592,.T.);
#594=ORIENTED_EDGE('',*,*,#593,.T.);
#595=CARTESIAN_POINT('',(-13.600175843,-4.625828013,0.885364778));
#596=VERTEX_POINT('',#595);
#597=CARTESIAN_POINT('',(-13.600175843,-4.625828013,0.885364778));
#598=DIRECTION('',(0.,1.,0.));
#599=VECTOR('',#598,20.);
#600=LINE('',#597,#599);
#601=EDGE_CURVE('',#596,#588,#600,.T.);
#602=ORIENTED_EDGE('',*,*,#601,.F.);
#603=CARTESIAN_POINT('',(-13.600175843,-4.625828013,3.885364778));
#604=DIRECTION('',(0.,0.,-1.));
#605=VECTOR('',#604,3.);
#606=LINE('',#603,#605);
#607=EDGE_CURVE('',#203,#596,#606,.T.);
#608=ORIENTED_EDGE('',*,*,#607,.F.);
#609=EDGE_LOOP('',(#586,#594,#602,#608));
#610=FACE_BOUND('',#609,.T.);
#611=ADVANCED_FACE('',(#610),#585,.F.);
#612=CARTESIAN_POINT('',(-40.500175843,6.11201841,10.297864778));
#613=DIRECTION('',(1.,0.,0.));
#614=DIRECTION('',(0.,0.,1.));
#615=AXIS2_PLACEMENT_3D('',#612,#613,#614);
#616=PLANE('',#615);
#617=CARTESIAN_POINT('',(-40.500175843,15.374171987,10.885364778));
#618=VERTEX_POINT('',#617);
#619=CARTESIAN_POINT('',(-40.500175843,-4.625828013,10.885364778));
#620=VERTEX_POINT('',#619);
#621=CARTESIAN_POINT('',(-40.500175843,15.374171987,10.885364778));
#622=DIRECTION('',(0.,-1.,0.));
#623=VECTOR('',#622,20.);
#624=LINE('',#621,#623);
#625=EDGE_CURVE('',#618,#620,#624,.T.);
#626=ORIENTED_EDGE('',*,*,#625,.F.);
#627=CARTESIAN_POINT('',(-40.500175843,15.374171987,10.885364778));
#628=DIRECTION('',(-0.,-0.,-1.));
#629=VECTOR('',#628,7.);
#630=LINE('',#627,#629);
#631=EDGE_CURVE('',#618,#108,#630,.T.);
#632=ORIENTED_EDGE('',*,*,#631,.T.);
#633=ORIENTED_EDGE('',*,*,#113,.T.);
#634=CARTESIAN_POINT('',(-40.500175843,-4.625828013,10.885364778));
#635=DIRECTION('',(0.,0.,-1.));
#636=VECTOR('',#635,7.);
#637=LINE('',#634,#636);
#638=EDGE_CURVE('',#620,#99,#637,.T.);
#639=ORIENTED_EDGE('',*,*,#638,.F.);
#640=EDGE_LOOP('',(#626,#632,#633,#639));
#641=FACE_BOUND('',#640,.T.);
#642=ADVANCED_FACE('',(#641),#616,.F.);
#643=CARTESIAN_POINT('',(-46.400175843,4.19951841,-0.114635222));
#644=DIRECTION('',(1.,0.,0.));
#645=DIRECTION('',(0.,0.,-1.));
#646=AXIS2_PLACEMENT_3D('',#643,#644,#645);
#647=PLANE('',#646);
#648=CARTESIAN_POINT('',(-46.400175843,15.374171987,0.885364778));
#649=VERTEX_POINT('',#648);
#650=CARTESIAN_POINT('',(-46.400175843,15.374171987,3.885364778));
#651=DIRECTION('',(0.,0.,-1.));
#652=VECTOR('',#651,3.);
#653=LINE('',#650,#652);
#654=EDGE_CURVE('',#136,#649,#653,.T.);
#655=ORIENTED_EDGE('',*,*,#654,.F.);
#656=ORIENTED_EDGE('',*,*,#141,.F.);
#657=CARTESIAN_POINT('',(-46.400175843,-4.625828013,0.885364778));
#658=VERTEX_POINT('',#657);
#659=CARTESIAN_POINT('',(-46.400175843,-4.625828013,3.885364778));
#660=DIRECTION('',(0.,0.,-1.));
#661=VECTOR('',#660,3.);
#662=LINE('',#659,#661);
#663=EDGE_CURVE('',#127,#658,#662,.T.);
#664=ORIENTED_EDGE('',*,*,#663,.T.);
#665=CARTESIAN_POINT('',(-46.400175843,-4.625828013,0.885364778));
#666=DIRECTION('',(0.,1.,0.));
#667=VECTOR('',#666,20.);
#668=LINE('',#665,#667);
#669=EDGE_CURVE('',#658,#649,#668,.T.);
#670=ORIENTED_EDGE('',*,*,#669,.T.);
#671=EDGE_LOOP('',(#655,#656,#664,#670));
#672=FACE_BOUND('',#671,.T.);
#673=ADVANCED_FACE('',(#672),#647,.T.);
#674=CARTESIAN_POINT('',(-37.600175843,4.19951841,-0.114635222));
#675=DIRECTION('',(1.,0.,0.));
#676=DIRECTION('',(0.,0.,-1.));
#677=AXIS2_PLACEMENT_3D('',#674,#675,#676);
#678=PLANE('',#677);
#679=ORIENTED_EDGE('',*,*,#156,.T.);
#680=CARTESIAN_POINT('',(-37.600175843,15.374171987,0.885364778));
#681=VERTEX_POINT('',#680);
#682=CARTESIAN_POINT('',(-37.600175843,15.374171987,3.885364778));
#683=DIRECTION('',(0.,0.,-1.));
#684=VECTOR('',#683,3.);
#685=LINE('',#682,#684);
#686=EDGE_CURVE('',#144,#681,#685,.T.);
#687=ORIENTED_EDGE('',*,*,#686,.T.);
#688=CARTESIAN_POINT('',(-37.600175843,-4.625828013,0.885364778));
#689=VERTEX_POINT('',#688);
#690=CARTESIAN_POINT('',(-37.600175843,-4.625828013,0.885364778));
#691=DIRECTION('',(0.,1.,0.));
#692=VECTOR('',#691,20.);
#693=LINE('',#690,#692);
#694=EDGE_CURVE('',#689,#681,#693,.T.);
#695=ORIENTED_EDGE('',*,*,#694,.F.);
#696=CARTESIAN_POINT('',(-37.600175843,-4.625828013,3.885364778));
#697=DIRECTION('',(0.,0.,-1.));
#698=VECTOR('',#697,3.);
#699=LINE('',#696,#698);
#700=EDGE_CURVE('',#125,#689,#699,.T.);
#701=ORIENTED_EDGE('',*,*,#700,.F.);
#702=EDGE_LOOP('',(#679,#687,#695,#701));
#703=FACE_BOUND('',#702,.T.);
#704=ADVANCED_FACE('',(#703),#678,.F.);
#705=CARTESIAN_POINT('',(-19.500175843,6.088468938,10.297864778));
#706=DIRECTION('',(-1.,0.,0.));
#707=DIRECTION('',(0.,0.,-1.));
#708=AXIS2_PLACEMENT_3D('',#705,#706,#707);
#709=PLANE('',#708);
#710=CARTESIAN_POINT('',(-19.500175843,-4.625828013,10.885364778));
#711=VERTEX_POINT('',#710);
#712=CARTESIAN_POINT('',(-19.500175843,15.374171987,10.885364778));
#713=VERTEX_POINT('',#712);
#714=CARTESIAN_POINT('',(-19.500175843,-4.625828013,10.885364778));
#715=DIRECTION('',(0.,1.,0.));
#716=VECTOR('',#715,20.);
#717=LINE('',#714,#716);
#718=EDGE_CURVE('',#711,#713,#717,.T.);
#719=ORIENTED_EDGE('',*,*,#718,.F.);
#720=CARTESIAN_POINT('',(-19.500175843,-4.625828013,10.885364778));
#721=DIRECTION('',(0.,0.,-1.));
#722=VECTOR('',#721,7.);
#723=LINE('',#720,#722);
#724=EDGE_CURVE('',#711,#186,#723,.T.);
#725=ORIENTED_EDGE('',*,*,#724,.T.);
#726=ORIENTED_EDGE('',*,*,#191,.T.);
#727=CARTESIAN_POINT('',(-19.500175843,15.374171987,10.885364778));
#728=DIRECTION('',(0.,0.,-1.));
#729=VECTOR('',#728,7.);
#730=LINE('',#727,#729);
#731=EDGE_CURVE('',#713,#177,#730,.T.);
#732=ORIENTED_EDGE('',*,*,#731,.F.);
#733=EDGE_LOOP('',(#719,#725,#726,#732));
#734=FACE_BOUND('',#733,.T.);
#735=ADVANCED_FACE('',(#734),#709,.F.);
#736=CARTESIAN_POINT('',(16.499866475,-6.419006593,10.297864778));
#737=DIRECTION('',(-1.,0.,0.));
#738=DIRECTION('',(0.,0.,1.));
#739=AXIS2_PLACEMENT_3D('',#736,#737,#738);
#740=PLANE('',#739);
#741=CARTESIAN_POINT('',(16.499866475,4.37478721,10.885364778));
#742=VERTEX_POINT('',#741);
#743=CARTESIAN_POINT('',(16.499866475,4.37478721,10.885364778));
#744=DIRECTION('',(0.,0.,-1.));
#745=VECTOR('',#744,7.);
#746=LINE('',#743,#745);
#747=EDGE_CURVE('',#742,#364,#746,.T.);
#748=ORIENTED_EDGE('',*,*,#747,.F.);
#749=CARTESIAN_POINT('',(16.499866475,-15.62521279,10.885364778));
#750=VERTEX_POINT('',#749);
#751=CARTESIAN_POINT('',(16.499866475,-15.62521279,10.885364778));
#752=DIRECTION('',(0.,1.,0.));
#753=VECTOR('',#752,20.);
#754=LINE('',#751,#753);
#755=EDGE_CURVE('',#750,#742,#754,.T.);
#756=ORIENTED_EDGE('',*,*,#755,.F.);
#757=CARTESIAN_POINT('',(16.499866475,-15.62521279,10.885364778));
#758=DIRECTION('',(-0.,-0.,-1.));
#759=VECTOR('',#758,7.);
#760=LINE('',#757,#759);
#761=EDGE_CURVE('',#750,#373,#760,.T.);
#762=ORIENTED_EDGE('',*,*,#761,.T.);
#763=ORIENTED_EDGE('',*,*,#378,.T.);
#764=EDGE_LOOP('',(#748,#756,#762,#763));
#765=FACE_BOUND('',#764,.T.);
#766=ADVANCED_FACE('',(#765),#740,.F.);
#767=CARTESIAN_POINT('',(19.499866475,-6.419006593,10.297864778));
#768=DIRECTION('',(1.,0.,0.));
#769=DIRECTION('',(0.,0.,-1.));
#770=AXIS2_PLACEMENT_3D('',#767,#768,#769);
#771=PLANE('',#770);
#772=CARTESIAN_POINT('',(19.499866475,4.37478721,10.885364778));
#773=VERTEX_POINT('',#772);
#774=CARTESIAN_POINT('',(19.499866475,-15.62521279,10.885364778));
#775=VERTEX_POINT('',#774);
#776=CARTESIAN_POINT('',(19.499866475,4.37478721,10.885364778));
#777=DIRECTION('',(0.,-1.,0.));
#778=VECTOR('',#777,20.);
#779=LINE('',#776,#778);
#780=EDGE_CURVE('',#773,#775,#779,.T.);
#781=ORIENTED_EDGE('',*,*,#780,.F.);
#782=CARTESIAN_POINT('',(19.499866475,4.37478721,10.885364778));
#783=DIRECTION('',(0.,0.,-1.));
#784=VECTOR('',#783,7.);
#785=LINE('',#782,#784);
#786=EDGE_CURVE('',#773,#354,#785,.T.);
#787=ORIENTED_EDGE('',*,*,#786,.T.);
#788=ORIENTED_EDGE('',*,*,#361,.T.);
#789=CARTESIAN_POINT('',(19.499866475,-15.62521279,10.885364778));
#790=DIRECTION('',(0.,0.,-1.));
#791=VECTOR('',#790,7.);
#792=LINE('',#789,#791);
#793=EDGE_CURVE('',#775,#356,#792,.T.);
#794=ORIENTED_EDGE('',*,*,#793,.F.);
#795=EDGE_LOOP('',(#781,#787,#788,#794));
#796=FACE_BOUND('',#795,.T.);
#797=ADVANCED_FACE('',(#796),#771,.F.);
#798=CARTESIAN_POINT('',(43.499866475,-6.442556065,10.297864778));
#799=DIRECTION('',(1.,0.,0.));
#800=DIRECTION('',(0.,0.,-1.));
#801=AXIS2_PLACEMENT_3D('',#798,#799,#800);
#802=PLANE('',#801);
#803=CARTESIAN_POINT('',(43.499866475,-15.62521279,10.885364778));
#804=VERTEX_POINT('',#803);
#805=CARTESIAN_POINT('',(43.499866475,-15.62521279,10.885364778));
#806=DIRECTION('',(0.,0.,-1.));
#807=VECTOR('',#806,7.);
#808=LINE('',#805,#807);
#809=EDGE_CURVE('',#804,#255,#808,.T.);
#810=ORIENTED_EDGE('',*,*,#809,.F.);
#811=CARTESIAN_POINT('',(43.499866475,4.37478721,10.885364778));
#812=VERTEX_POINT('',#811);
#813=CARTESIAN_POINT('',(43.499866475,4.37478721,10.885364778));
#814=DIRECTION('',(0.,-1.,0.));
#815=VECTOR('',#814,20.);
#816=LINE('',#813,#815);
#817=EDGE_CURVE('',#812,#804,#816,.T.);
#818=ORIENTED_EDGE('',*,*,#817,.F.);
#819=CARTESIAN_POINT('',(43.499866475,4.37478721,10.885364778));
#820=DIRECTION('',(0.,0.,-1.));
#821=VECTOR('',#820,7.);
#822=LINE('',#819,#821);
#823=EDGE_CURVE('',#812,#264,#822,.T.);
#824=ORIENTED_EDGE('',*,*,#823,.T.);
#825=ORIENTED_EDGE('',*,*,#269,.T.);
#826=EDGE_LOOP('',(#810,#818,#824,#825));
#827=FACE_BOUND('',#826,.T.);
#828=ADVANCED_FACE('',(#827),#802,.F.);
#829=CARTESIAN_POINT('',(40.499866475,-6.442556065,10.297864778));
#830=DIRECTION('',(-1.,0.,0.));
#831=DIRECTION('',(0.,0.,1.));
#832=AXIS2_PLACEMENT_3D('',#829,#830,#831);
#833=PLANE('',#832);
#834=CARTESIAN_POINT('',(40.499866475,-15.62521279,10.885364778));
#835=VERTEX_POINT('',#834);
#836=CARTESIAN_POINT('',(40.499866475,4.37478721,10.885364778));
#837=VERTEX_POINT('',#836);
#838=CARTESIAN_POINT('',(40.499866475,-15.62521279,10.885364778));
#839=DIRECTION('',(0.,1.,0.));
#840=VECTOR('',#839,20.);
#841=LINE('',#838,#840);
#842=EDGE_CURVE('',#835,#837,#841,.T.);
#843=ORIENTED_EDGE('',*,*,#842,.F.);
#844=CARTESIAN_POINT('',(40.499866475,-15.62521279,10.885364778));
#845=DIRECTION('',(-0.,-0.,-1.));
#846=VECTOR('',#845,7.);
#847=LINE('',#844,#846);
#848=EDGE_CURVE('',#835,#245,#847,.T.);
#849=ORIENTED_EDGE('',*,*,#848,.T.);
#850=ORIENTED_EDGE('',*,*,#252,.T.);
#851=CARTESIAN_POINT('',(40.499866475,4.37478721,10.885364778));
#852=DIRECTION('',(0.,0.,-1.));
#853=VECTOR('',#852,7.);
#854=LINE('',#851,#853);
#855=EDGE_CURVE('',#837,#247,#854,.T.);
#856=ORIENTED_EDGE('',*,*,#855,.F.);
#857=EDGE_LOOP('',(#843,#849,#850,#856));
#858=FACE_BOUND('',#857,.T.);
#859=ADVANCED_FACE('',(#858),#833,.F.);
#860=CARTESIAN_POINT('',(46.399866475,-4.530056065,-0.114635222));
#861=DIRECTION('',(-1.,0.,0.));
#862=DIRECTION('',(0.,0.,1.));
#863=AXIS2_PLACEMENT_3D('',#860,#861,#862);
#864=PLANE('',#863);
#865=CARTESIAN_POINT('',(46.399866475,-15.62521279,0.885364778));
#866=VERTEX_POINT('',#865);
#867=CARTESIAN_POINT('',(46.399866475,-15.62521279,3.885364778));
#868=DIRECTION('',(0.,0.,-1.));
#869=VECTOR('',#868,3.);
#870=LINE('',#867,#869);
#871=EDGE_CURVE('',#292,#866,#870,.T.);
#872=ORIENTED_EDGE('',*,*,#871,.F.);
#873=ORIENTED_EDGE('',*,*,#297,.F.);
#874=CARTESIAN_POINT('',(46.399866475,4.37478721,0.885364778));
#875=VERTEX_POINT('',#874);
#876=CARTESIAN_POINT('',(46.399866475,4.37478721,3.885364778));
#877=DIRECTION('',(0.,0.,-1.));
#878=VECTOR('',#877,3.);
#879=LINE('',#876,#878);
#880=EDGE_CURVE('',#283,#875,#879,.T.);
#881=ORIENTED_EDGE('',*,*,#880,.T.);
#882=CARTESIAN_POINT('',(46.399866475,4.37478721,0.885364778));
#883=DIRECTION('',(0.,-1.,0.));
#884=VECTOR('',#883,20.);
#885=LINE('',#882,#884);
#886=EDGE_CURVE('',#875,#866,#885,.T.);
#887=ORIENTED_EDGE('',*,*,#886,.T.);
#888=EDGE_LOOP('',(#872,#873,#881,#887));
#889=FACE_BOUND('',#888,.T.);
#890=ADVANCED_FACE('',(#889),#864,.T.);
#891=CARTESIAN_POINT('',(-41.0002,-60.62521279,-5.114635222));
#892=DIRECTION('',(0.,0.,1.));
#893=DIRECTION('',(1.,0.,-0.));
#894=AXIS2_PLACEMENT_3D('',#891,#892,#893);
#895=CYLINDRICAL_SURFACE('',#894,3.3);
#896=CARTESIAN_POINT('',(-37.7002,-60.62521279,10.885364778));
#897=VERTEX_POINT('',#896);
#898=CARTESIAN_POINT('',(-37.7002,-60.62521279,7.885364778));
#899=VERTEX_POINT('',#898);
#900=CARTESIAN_POINT('',(-37.7002,-60.62521279,10.885364778));
#901=DIRECTION('',(-0.,-0.,-1.));
#902=VECTOR('',#901,3.);
#903=LINE('',#900,#902);
#904=EDGE_CURVE('',#897,#899,#903,.T.);
#905=ORIENTED_EDGE('',*,*,#904,.F.);
#906=CARTESIAN_POINT('',(-44.3002,-60.62521279,10.885364778));
#907=VERTEX_POINT('',#906);
#908=CARTESIAN_POINT('',(-41.0002,-60.62521279,10.885364778));
#909=DIRECTION('',(0.,0.,-1.));
#910=DIRECTION('',(-1.,0.,0.));
#911=AXIS2_PLACEMENT_3D('',#908,#909,#910);
#912=CIRCLE('',#911,3.3);
#913=EDGE_CURVE('',#907,#897,#912,.T.);
#914=ORIENTED_EDGE('',*,*,#913,.F.);
#915=CARTESIAN_POINT('',(-41.0002,-60.62521279,10.885364778));
#916=DIRECTION('',(0.,0.,-1.));
#917=DIRECTION('',(-1.,0.,0.));
#918=AXIS2_PLACEMENT_3D('',#915,#916,#917);
#919=CIRCLE('',#918,3.3);
#920=EDGE_CURVE('',#897,#907,#919,.T.);
#921=ORIENTED_EDGE('',*,*,#920,.F.);
#922=ORIENTED_EDGE('',*,*,#904,.T.);
#923=CARTESIAN_POINT('',(-44.3002,-60.62521279,7.885364778));
#924=VERTEX_POINT('',#923);
#925=CARTESIAN_POINT('',(-41.0002,-60.62521279,7.885364778));
#926=DIRECTION('',(0.,0.,-1.));
#927=DIRECTION('',(-1.,0.,0.));
#928=AXIS2_PLACEMENT_3D('',#925,#926,#927);
#929=CIRCLE('',#928,3.3);
#930=EDGE_CURVE('',#899,#924,#929,.T.);
#931=ORIENTED_EDGE('',*,*,#930,.T.);
#932=CARTESIAN_POINT('',(-41.0002,-60.62521279,7.885364778));
#933=DIRECTION('',(0.,0.,-1.));
#934=DIRECTION('',(-1.,0.,0.));
#935=AXIS2_PLACEMENT_3D('',#932,#933,#934);
#936=CIRCLE('',#935,3.3);
#937=EDGE_CURVE('',#924,#899,#936,.T.);
#938=ORIENTED_EDGE('',*,*,#937,.T.);
#939=EDGE_LOOP('',(#905,#914,#921,#922,#931,#938));
#940=FACE_BOUND('',#939,.T.);
#941=ADVANCED_FACE('',(#940),#895,.F.);
#942=CARTESIAN_POINT('',(40.9998,60.374171987,-23.114635222));
#943=DIRECTION('',(0.,0.,1.));
#944=DIRECTION('',(1.,0.,-0.));
#945=AXIS2_PLACEMENT_3D('',#942,#943,#944);
#946=CYLINDRICAL_SURFACE('',#945,3.3);
#947=CARTESIAN_POINT('',(44.2998,60.374171987,10.885364778));
#948=VERTEX_POINT('',#947);
#949=CARTESIAN_POINT('',(44.2998,60.374171987,7.885364778));
#950=VERTEX_POINT('',#949);
#951=CARTESIAN_POINT('',(44.2998,60.374171987,10.885364778));
#952=DIRECTION('',(-0.,-0.,-1.));
#953=VECTOR('',#952,3.);
#954=LINE('',#951,#953);
#955=EDGE_CURVE('',#948,#950,#954,.T.);
#956=ORIENTED_EDGE('',*,*,#955,.F.);
#957=CARTESIAN_POINT('',(37.6998,60.374171987,10.885364778));
#958=VERTEX_POINT('',#957);
#959=CARTESIAN_POINT('',(40.9998,60.374171987,10.885364778));
#960=DIRECTION('',(0.,0.,-1.));
#961=DIRECTION('',(-1.,0.,0.));
#962=AXIS2_PLACEMENT_3D('',#959,#960,#961);
#963=CIRCLE('',#962,3.3);
#964=EDGE_CURVE('',#958,#948,#963,.T.);
#965=ORIENTED_EDGE('',*,*,#964,.F.);
#966=CARTESIAN_POINT('',(40.9998,60.374171987,10.885364778));
#967=DIRECTION('',(0.,0.,-1.));
#968=DIRECTION('',(-1.,0.,0.));
#969=AXIS2_PLACEMENT_3D('',#966,#967,#968);
#970=CIRCLE('',#969,3.3);
#971=EDGE_CURVE('',#948,#958,#970,.T.);
#972=ORIENTED_EDGE('',*,*,#971,.F.);
#973=ORIENTED_EDGE('',*,*,#955,.T.);
#974=CARTESIAN_POINT('',(37.6998,60.374171987,7.885364778));
#975=VERTEX_POINT('',#974);
#976=CARTESIAN_POINT('',(40.9998,60.374171987,7.885364778));
#977=DIRECTION('',(0.,0.,-1.));
#978=DIRECTION('',(-1.,0.,0.));
#979=AXIS2_PLACEMENT_3D('',#976,#977,#978);
#980=CIRCLE('',#979,3.3);
#981=EDGE_CURVE('',#950,#975,#980,.T.);
#982=ORIENTED_EDGE('',*,*,#981,.T.);
#983=CARTESIAN_POINT('',(40.9998,60.374171987,7.885364778));
#984=DIRECTION('',(0.,0.,-1.));
#985=DIRECTION('',(-1.,0.,0.));
#986=AXIS2_PLACEMENT_3D('',#983,#984,#985);
#987=CIRCLE('',#986,3.3);
#988=EDGE_CURVE('',#975,#950,#987,.T.);
#989=ORIENTED_EDGE('',*,*,#988,.T.);
#990=EDGE_LOOP('',(#956,#965,#972,#973,#982,#989));
#991=FACE_BOUND('',#990,.T.);
#992=ADVANCED_FACE('',(#991),#946,.F.);
#993=CARTESIAN_POINT('',(45.9998,-60.62521279,-5.114635222));
#994=DIRECTION('',(0.,0.,1.));
#995=DIRECTION('',(1.,0.,-0.));
#996=AXIS2_PLACEMENT_3D('',#993,#994,#995);
#997=CYLINDRICAL_SURFACE('',#996,3.3);
#998=CARTESIAN_POINT('',(49.2998,-60.62521279,10.885364778));
#999=VERTEX_POINT('',#998);
#1000=CARTESIAN_POINT('',(49.2998,-60.62521279,7.885364778));
#1001=VERTEX_POINT('',#1000);
#1002=CARTESIAN_POINT('',(49.2998,-60.62521279,10.885364778));
#1003=DIRECTION('',(-0.,-0.,-1.));
#1004=VECTOR('',#1003,3.);
#1005=LINE('',#1002,#1004);
#1006=EDGE_CURVE('',#999,#1001,#1005,.T.);
#1007=ORIENTED_EDGE('',*,*,#1006,.F.);
#1008=CARTESIAN_POINT('',(42.6998,-60.62521279,10.885364778));
#1009=VERTEX_POINT('',#1008);
#1010=CARTESIAN_POINT('',(45.9998,-60.62521279,10.885364778));
#1011=DIRECTION('',(0.,0.,-1.));
#1012=DIRECTION('',(-1.,0.,0.));
#1013=AXIS2_PLACEMENT_3D('',#1010,#1011,#1012);
#1014=CIRCLE('',#1013,3.3);
#1015=EDGE_CURVE('',#1009,#999,#1014,.T.);
#1016=ORIENTED_EDGE('',*,*,#1015,.F.);
#1017=CARTESIAN_POINT('',(45.9998,-60.62521279,10.885364778));
#1018=DIRECTION('',(0.,0.,-1.));
#1019=DIRECTION('',(-1.,0.,0.));
#1020=AXIS2_PLACEMENT_3D('',#1017,#1018,#1019);
#1021=CIRCLE('',#1020,3.3);
#1022=EDGE_CURVE('',#999,#1009,#1021,.T.);
#1023=ORIENTED_EDGE('',*,*,#1022,.F.);
#1024=ORIENTED_EDGE('',*,*,#1006,.T.);
#1025=CARTESIAN_POINT('',(42.6998,-60.62521279,7.885364778));
#1026=VERTEX_POINT('',#1025);
#1027=CARTESIAN_POINT('',(45.9998,-60.62521279,7.885364778));
#1028=DIRECTION('',(0.,0.,-1.));
#1029=DIRECTION('',(-1.,0.,0.));
#1030=AXIS2_PLACEMENT_3D('',#1027,#1028,#1029);
#1031=CIRCLE('',#1030,3.3);
#1032=EDGE_CURVE('',#1001,#1026,#1031,.T.);
#1033=ORIENTED_EDGE('',*,*,#1032,.T.);
#1034=CARTESIAN_POINT('',(45.9998,-60.62521279,7.885364778));
#1035=DIRECTION('',(0.,0.,-1.));
#1036=DIRECTION('',(-1.,0.,0.));
#1037=AXIS2_PLACEMENT_3D('',#1034,#1035,#1036);
#1038=CIRCLE('',#1037,3.3);
#1039=EDGE_CURVE('',#1026,#1001,#1038,.T.);
#1040=ORIENTED_EDGE('',*,*,#1039,.T.);
#1041=EDGE_LOOP('',(#1007,#1016,#1023,#1024,#1033,#1040));
#1042=FACE_BOUND('',#1041,.T.);
#1043=ADVANCED_FACE('',(#1042),#997,.F.);
#1044=CARTESIAN_POINT('',(-46.0002,60.374171987,-32.114635222));
#1045=DIRECTION('',(0.,0.,1.));
#1046=DIRECTION('',(1.,0.,-0.));
#1047=AXIS2_PLACEMENT_3D('',#1044,#1045,#1046);
#1048=CYLINDRICAL_SURFACE('',#1047,3.3);
#1049=CARTESIAN_POINT('',(-42.7002,60.374171987,10.885364778));
#1050=VERTEX_POINT('',#1049);
#1051=CARTESIAN_POINT('',(-42.7002,60.374171987,7.885364778));
#1052=VERTEX_POINT('',#1051);
#1053=CARTESIAN_POINT('',(-42.7002,60.374171987,10.885364778));
#1054=DIRECTION('',(-0.,-0.,-1.));
#1055=VECTOR('',#1054,3.);
#1056=LINE('',#1053,#1055);
#1057=EDGE_CURVE('',#1050,#1052,#1056,.T.);
#1058=ORIENTED_EDGE('',*,*,#1057,.F.);
#1059=CARTESIAN_POINT('',(-49.3002,60.374171987,10.885364778));
#1060=VERTEX_POINT('',#1059);
#1061=CARTESIAN_POINT('',(-46.0002,60.374171987,10.885364778));
#1062=DIRECTION('',(0.,0.,-1.));
#1063=DIRECTION('',(-1.,0.,0.));
#1064=AXIS2_PLACEMENT_3D('',#1061,#1062,#1063);
#1065=CIRCLE('',#1064,3.3);
#1066=EDGE_CURVE('',#1060,#1050,#1065,.T.);
#1067=ORIENTED_EDGE('',*,*,#1066,.F.);
#1068=CARTESIAN_POINT('',(-46.0002,60.374171987,10.885364778));
#1069=DIRECTION('',(0.,0.,-1.));
#1070=DIRECTION('',(-1.,0.,0.));
#1071=AXIS2_PLACEMENT_3D('',#1068,#1069,#1070);
#1072=CIRCLE('',#1071,3.3);
#1073=EDGE_CURVE('',#1050,#1060,#1072,.T.);
#1074=ORIENTED_EDGE('',*,*,#1073,.F.);
#1075=ORIENTED_EDGE('',*,*,#1057,.T.);
#1076=CARTESIAN_POINT('',(-49.3002,60.374171987,7.885364778));
#1077=VERTEX_POINT('',#1076);
#1078=CARTESIAN_POINT('',(-46.0002,60.374171987,7.885364778));
#1079=DIRECTION('',(0.,0.,-1.));
#1080=DIRECTION('',(-1.,0.,0.));
#1081=AXIS2_PLACEMENT_3D('',#1078,#1079,#1080);
#1082=CIRCLE('',#1081,3.3);
#1083=EDGE_CURVE('',#1052,#1077,#1082,.T.);
#1084=ORIENTED_EDGE('',*,*,#1083,.T.);
#1085=CARTESIAN_POINT('',(-46.0002,60.374171987,7.885364778));
#1086=DIRECTION('',(0.,0.,-1.));
#1087=DIRECTION('',(-1.,0.,0.));
#1088=AXIS2_PLACEMENT_3D('',#1085,#1086,#1087);
#1089=CIRCLE('',#1088,3.3);
#1090=EDGE_CURVE('',#1077,#1052,#1089,.T.);
#1091=ORIENTED_EDGE('',*,*,#1090,.T.);
#1092=EDGE_LOOP('',(#1058,#1067,#1074,#1075,#1084,#1091));
#1093=FACE_BOUND('',#1092,.T.);
#1094=ADVANCED_FACE('',(#1093),#1048,.F.);
#1095=CARTESIAN_POINT('',(-153.528977778,269.745843431,10.885364778));
#1096=DIRECTION('',(0.,0.,-1.));
#1097=DIRECTION('',(-1.,0.,0.));
#1098=AXIS2_PLACEMENT_3D('',#1095,#1096,#1097);
#1099=PLANE('',#1098);
#1100=CARTESIAN_POINT('',(-42.000175843,15.374171987,10.885364778));
#1101=DIRECTION('',(0.,0.,-1.));
#1102=DIRECTION('',(-1.,0.,0.));
#1103=AXIS2_PLACEMENT_3D('',#1100,#1101,#1102);
#1104=CIRCLE('',#1103,1.5);
#1105=EDGE_CURVE('',#494,#618,#1104,.T.);
#1106=ORIENTED_EDGE('',*,*,#1105,.T.);
#1107=ORIENTED_EDGE('',*,*,#625,.T.);
#1108=CARTESIAN_POINT('',(-42.000175843,-4.625828013,10.885364778));
#1109=DIRECTION('',(0.,0.,-1.));
#1110=DIRECTION('',(-1.,0.,0.));
#1111=AXIS2_PLACEMENT_3D('',#1108,#1109,#1110);
#1112=CIRCLE('',#1111,1.5);
#1113=EDGE_CURVE('',#620,#502,#1112,.T.);
#1114=ORIENTED_EDGE('',*,*,#1113,.T.);
#1115=ORIENTED_EDGE('',*,*,#507,.T.);
#1116=EDGE_LOOP('',(#1106,#1107,#1114,#1115));
#1117=FACE_BOUND('',#1116,.T.);
#1118=CARTESIAN_POINT('',(-18.000175843,-4.625828013,10.885364778));
#1119=DIRECTION('',(0.,0.,-1.));
#1120=DIRECTION('',(-1.,0.,0.));
#1121=AXIS2_PLACEMENT_3D('',#1118,#1119,#1120);
#1122=CIRCLE('',#1121,1.5);
#1123=EDGE_CURVE('',#525,#711,#1122,.T.);
#1124=ORIENTED_EDGE('',*,*,#1123,.T.);
#1125=ORIENTED_EDGE('',*,*,#718,.T.);
#1126=CARTESIAN_POINT('',(-18.000175843,15.374171987,10.885364778));
#1127=DIRECTION('',(0.,0.,-1.));
#1128=DIRECTION('',(-1.,0.,0.));
#1129=AXIS2_PLACEMENT_3D('',#1126,#1127,#1128);
#1130=CIRCLE('',#1129,1.5);
#1131=EDGE_CURVE('',#713,#533,#1130,.T.);
#1132=ORIENTED_EDGE('',*,*,#1131,.T.);
#1133=ORIENTED_EDGE('',*,*,#538,.T.);
#1134=EDGE_LOOP('',(#1124,#1125,#1132,#1133));
#1135=FACE_BOUND('',#1134,.T.);
#1136=CARTESIAN_POINT('',(17.999866475,4.37478721,10.885364778));
#1137=DIRECTION('',(0.,0.,-1.));
#1138=DIRECTION('',(-1.,0.,0.));
#1139=AXIS2_PLACEMENT_3D('',#1136,#1137,#1138);
#1140=CIRCLE('',#1139,1.5);
#1141=EDGE_CURVE('',#742,#773,#1140,.T.);
#1142=ORIENTED_EDGE('',*,*,#1141,.T.);
#1143=ORIENTED_EDGE('',*,*,#780,.T.);
#1144=CARTESIAN_POINT('',(17.999866475,-15.62521279,10.885364778));
#1145=DIRECTION('',(0.,0.,-1.));
#1146=DIRECTION('',(-1.,0.,0.));
#1147=AXIS2_PLACEMENT_3D('',#1144,#1145,#1146);
#1148=CIRCLE('',#1147,1.5);
#1149=EDGE_CURVE('',#775,#750,#1148,.T.);
#1150=ORIENTED_EDGE('',*,*,#1149,.T.);
#1151=ORIENTED_EDGE('',*,*,#755,.T.);
#1152=EDGE_LOOP('',(#1142,#1143,#1150,#1151));
#1153=FACE_BOUND('',#1152,.T.);
#1154=CARTESIAN_POINT('',(41.999866475,-15.62521279,10.885364778));
#1155=DIRECTION('',(0.,0.,-1.));
#1156=DIRECTION('',(-1.,0.,0.));
#1157=AXIS2_PLACEMENT_3D('',#1154,#1155,#1156);
#1158=CIRCLE('',#1157,1.5);
#1159=EDGE_CURVE('',#804,#835,#1158,.T.);
#1160=ORIENTED_EDGE('',*,*,#1159,.T.);
#1161=ORIENTED_EDGE('',*,*,#842,.T.);
#1162=CARTESIAN_POINT('',(41.999866475,4.37478721,10.885364778));
#1163=DIRECTION('',(0.,0.,-1.));
#1164=DIRECTION('',(-1.,0.,0.));
#1165=AXIS2_PLACEMENT_3D('',#1162,#1163,#1164);
#1166=CIRCLE('',#1165,1.5);
#1167=EDGE_CURVE('',#837,#812,#1166,.T.);
#1168=ORIENTED_EDGE('',*,*,#1167,.T.);
#1169=ORIENTED_EDGE('',*,*,#817,.T.);
#1170=EDGE_LOOP('',(#1160,#1161,#1168,#1169));
#1171=FACE_BOUND('',#1170,.T.);
#1172=CARTESIAN_POINT('',(95.096611619,-59.121435233,10.885364778));
#1173=VERTEX_POINT('',#1172);
#1174=CARTESIAN_POINT('',(92.096611619,-59.121435233,10.885364778));
#1175=VERTEX_POINT('',#1174);
#1176=CARTESIAN_POINT('',(93.596611619,-59.121435233,10.885364778));
#1177=DIRECTION('',(-0.,-0.,1.));
#1178=DIRECTION('',(-1.,0.,0.));
#1179=AXIS2_PLACEMENT_3D('',#1176,#1177,#1178);
#1180=CIRCLE('',#1179,1.5);
#1181=EDGE_CURVE('',#1173,#1175,#1180,.T.);
#1182=ORIENTED_EDGE('',*,*,#1181,.F.);
#1183=CARTESIAN_POINT('',(93.596611619,-59.121435233,10.885364778));
#1184=DIRECTION('',(-0.,-0.,1.));
#1185=DIRECTION('',(-1.,0.,0.));
#1186=AXIS2_PLACEMENT_3D('',#1183,#1184,#1185);
#1187=CIRCLE('',#1186,1.5);
#1188=EDGE_CURVE('',#1175,#1173,#1187,.T.);
#1189=ORIENTED_EDGE('',*,*,#1188,.F.);
#1190=EDGE_LOOP('',(#1182,#1189));
#1191=FACE_BOUND('',#1190,.T.);
#1192=CARTESIAN_POINT('',(95.096611619,-27.921435233,10.885364778));
#1193=VERTEX_POINT('',#1192);
#1194=CARTESIAN_POINT('',(92.096611619,-27.921435233,10.885364778));
#1195=VERTEX_POINT('',#1194);
#1196=CARTESIAN_POINT('',(93.596611619,-27.921435233,10.885364778));
#1197=DIRECTION('',(-0.,-0.,1.));
#1198=DIRECTION('',(-1.,0.,0.));
#1199=AXIS2_PLACEMENT_3D('',#1196,#1197,#1198);
#1200=CIRCLE('',#1199,1.5);
#1201=EDGE_CURVE('',#1193,#1195,#1200,.T.);
#1202=ORIENTED_EDGE('',*,*,#1201,.F.);
#1203=CARTESIAN_POINT('',(93.596611619,-27.921435233,10.885364778));
#1204=DIRECTION('',(-0.,-0.,1.));
#1205=DIRECTION('',(-1.,0.,0.));
#1206=AXIS2_PLACEMENT_3D('',#1203,#1204,#1205);
#1207=CIRCLE('',#1206,1.5);
#1208=EDGE_CURVE('',#1195,#1193,#1207,.T.);
#1209=ORIENTED_EDGE('',*,*,#1208,.F.);
#1210=EDGE_LOOP('',(#1202,#1209));
#1211=FACE_BOUND('',#1210,.T.);
#1212=CARTESIAN_POINT('',(123.096611619,-9.121435233,10.885364778));
#1213=VERTEX_POINT('',#1212);
#1214=CARTESIAN_POINT('',(126.096611619,-9.121435233,10.885364778));
#1215=VERTEX_POINT('',#1214);
#1216=CARTESIAN_POINT('',(124.596611619,-9.121435233,10.885364778));
#1217=DIRECTION('',(0.,0.,-1.));
#1218=DIRECTION('',(-1.,0.,0.));
#1219=AXIS2_PLACEMENT_3D('',#1216,#1217,#1218);
#1220=CIRCLE('',#1219,1.5);
#1221=EDGE_CURVE('',#1213,#1215,#1220,.T.);
#1222=ORIENTED_EDGE('',*,*,#1221,.T.);
#1223=CARTESIAN_POINT('',(124.596611619,-9.121435233,10.885364778));
#1224=DIRECTION('',(0.,0.,-1.));
#1225=DIRECTION('',(-1.,0.,0.));
#1226=AXIS2_PLACEMENT_3D('',#1223,#1224,#1225);
#1227=CIRCLE('',#1226,1.5);
#1228=EDGE_CURVE('',#1215,#1213,#1227,.T.);
#1229=ORIENTED_EDGE('',*,*,#1228,.T.);
#1230=EDGE_LOOP('',(#1222,#1229));
#1231=FACE_BOUND('',#1230,.T.);
#1232=CARTESIAN_POINT('',(123.096611619,44.878564767,10.885364778));
#1233=VERTEX_POINT('',#1232);
#1234=CARTESIAN_POINT('',(126.096611619,44.878564767,10.885364778));
#1235=VERTEX_POINT('',#1234);
#1236=CARTESIAN_POINT('',(124.596611619,44.878564767,10.885364778));
#1237=DIRECTION('',(0.,0.,-1.));
#1238=DIRECTION('',(-1.,0.,0.));
#1239=AXIS2_PLACEMENT_3D('',#1236,#1237,#1238);
#1240=CIRCLE('',#1239,1.5);
#1241=EDGE_CURVE('',#1233,#1235,#1240,.T.);
#1242=ORIENTED_EDGE('',*,*,#1241,.T.);
#1243=CARTESIAN_POINT('',(124.596611619,44.878564767,10.885364778));
#1244=DIRECTION('',(0.,0.,-1.));
#1245=DIRECTION('',(-1.,0.,0.));
#1246=AXIS2_PLACEMENT_3D('',#1243,#1244,#1245);
#1247=CIRCLE('',#1246,1.5);
#1248=EDGE_CURVE('',#1235,#1233,#1247,.T.);
#1249=ORIENTED_EDGE('',*,*,#1248,.T.);
#1250=EDGE_LOOP('',(#1242,#1249));
#1251=FACE_BOUND('',#1250,.T.);
#1252=CARTESIAN_POINT('',(63.096611619,44.878564767,10.885364778));
#1253=VERTEX_POINT('',#1252);
#1254=CARTESIAN_POINT('',(66.096611619,44.878564767,10.885364778));
#1255=VERTEX_POINT('',#1254);
#1256=CARTESIAN_POINT('',(64.596611619,44.878564767,10.885364778));
#1257=DIRECTION('',(0.,0.,-1.));
#1258=DIRECTION('',(-1.,0.,0.));
#1259=AXIS2_PLACEMENT_3D('',#1256,#1257,#1258);
#1260=CIRCLE('',#1259,1.5);
#1261=EDGE_CURVE('',#1253,#1255,#1260,.T.);
#1262=ORIENTED_EDGE('',*,*,#1261,.T.);
#1263=CARTESIAN_POINT('',(64.596611619,44.878564767,10.885364778));
#1264=DIRECTION('',(0.,0.,-1.));
#1265=DIRECTION('',(-1.,0.,0.));
#1266=AXIS2_PLACEMENT_3D('',#1263,#1264,#1265);
#1267=CIRCLE('',#1266,1.5);
#1268=EDGE_CURVE('',#1255,#1253,#1267,.T.);
#1269=ORIENTED_EDGE('',*,*,#1268,.T.);
#1270=EDGE_LOOP('',(#1262,#1269));
#1271=FACE_BOUND('',#1270,.T.);
#1272=CARTESIAN_POINT('',(63.096611619,-9.121435233,10.885364778));
#1273=VERTEX_POINT('',#1272);
#1274=CARTESIAN_POINT('',(66.096611619,-9.121435233,10.885364778));
#1275=VERTEX_POINT('',#1274);
#1276=CARTESIAN_POINT('',(64.596611619,-9.121435233,10.885364778));
#1277=DIRECTION('',(0.,0.,-1.));
#1278=DIRECTION('',(-1.,0.,0.));
#1279=AXIS2_PLACEMENT_3D('',#1276,#1277,#1278);
#1280=CIRCLE('',#1279,1.5);
#1281=EDGE_CURVE('',#1273,#1275,#1280,.T.);
#1282=ORIENTED_EDGE('',*,*,#1281,.T.);
#1283=CARTESIAN_POINT('',(64.596611619,-9.121435233,10.885364778));
#1284=DIRECTION('',(0.,0.,-1.));
#1285=DIRECTION('',(-1.,0.,0.));
#1286=AXIS2_PLACEMENT_3D('',#1283,#1284,#1285);
#1287=CIRCLE('',#1286,1.5);
#1288=EDGE_CURVE('',#1275,#1273,#1287,.T.);
#1289=ORIENTED_EDGE('',*,*,#1288,.T.);
#1290=EDGE_LOOP('',(#1282,#1289));
#1291=FACE_BOUND('',#1290,.T.);
#1292=ORIENTED_EDGE('',*,*,#913,.T.);
#1293=ORIENTED_EDGE('',*,*,#920,.T.);
#1294=EDGE_LOOP('',(#1292,#1293));
#1295=FACE_BOUND('',#1294,.T.);
#1296=ORIENTED_EDGE('',*,*,#1015,.T.);
#1297=ORIENTED_EDGE('',*,*,#1022,.T.);
#1298=EDGE_LOOP('',(#1296,#1297));
#1299=FACE_BOUND('',#1298,.T.);
#1300=ORIENTED_EDGE('',*,*,#964,.T.);
#1301=ORIENTED_EDGE('',*,*,#971,.T.);
#1302=EDGE_LOOP('',(#1300,#1301));
#1303=FACE_BOUND('',#1302,.T.);
#1304=ORIENTED_EDGE('',*,*,#1066,.T.);
#1305=ORIENTED_EDGE('',*,*,#1073,.T.);
#1306=EDGE_LOOP('',(#1304,#1305));
#1307=FACE_BOUND('',#1306,.T.);
#1308=CARTESIAN_POINT('',(134.999845316,-100.125268828,10.885364778));
#1309=VERTEX_POINT('',#1308);
#1310=CARTESIAN_POINT('',(-65.000154684,-100.125268828,10.885364778));
#1311=VERTEX_POINT('',#1310);
#1312=CARTESIAN_POINT('',(134.999845316,-100.125268828,10.885364778));
#1313=DIRECTION('',(-1.,0.,0.));
#1314=VECTOR('',#1313,200.);
#1315=LINE('',#1312,#1314);
#1316=EDGE_CURVE('',#1309,#1311,#1315,.T.);
#1317=ORIENTED_EDGE('',*,*,#1316,.F.);
#1318=CARTESIAN_POINT('',(134.999845316,99.874731172,10.885364778));
#1319=VERTEX_POINT('',#1318);
#1320=CARTESIAN_POINT('',(134.999845316,99.874731172,10.885364778));
#1321=DIRECTION('',(0.,-1.,0.));
#1322=VECTOR('',#1321,200.);
#1323=LINE('',#1320,#1322);
#1324=EDGE_CURVE('',#1319,#1309,#1323,.T.);
#1325=ORIENTED_EDGE('',*,*,#1324,.F.);
#1326=CARTESIAN_POINT('',(-65.000154684,99.874731172,10.885364778));
#1327=VERTEX_POINT('',#1326);
#1328=CARTESIAN_POINT('',(-65.000154684,99.874731172,10.885364778));
#1329=DIRECTION('',(1.,0.,-0.));
#1330=VECTOR('',#1329,200.);
#1331=LINE('',#1328,#1330);
#1332=EDGE_CURVE('',#1327,#1319,#1331,.T.);
#1333=ORIENTED_EDGE('',*,*,#1332,.F.);
#1334=CARTESIAN_POINT('',(-65.000154684,-100.125268828,10.885364778));
#1335=DIRECTION('',(0.,1.,0.));
#1336=VECTOR('',#1335,200.);
#1337=LINE('',#1334,#1336);
#1338=EDGE_CURVE('',#1311,#1327,#1337,.T.);
#1339=ORIENTED_EDGE('',*,*,#1338,.F.);
#1340=EDGE_LOOP('',(#1317,#1325,#1333,#1339));
#1341=FACE_BOUND('',#1340,.T.);
#1342=ADVANCED_FACE('',(#1117,#1135,#1153,#1171,#1191,#1211,#1231,#1251,#1271,#1291,#1295,#1299,#1303,#1307,#1341),#1099,.F.);
#1343=COLOUR_RGB('',0.627451003,0.627451003,0.643137276);
#1344=FILL_AREA_STYLE_COLOUR('',#1343);
#1345=FILL_AREA_STYLE('',(#1344));
#1346=SURFACE_STYLE_FILL_AREA(#1345);
#1347=SURFACE_SIDE_STYLE('',(#1346));
#1348=SURFACE_STYLE_USAGE(.BOTH.,#1347);
#1349=PRESENTATION_STYLE_ASSIGNMENT((#1348));
#1350=OVER_RIDING_STYLED_ITEM('',(#1349),#1342,#82);
#1351=CARTESIAN_POINT('',(-153.528977778,266.745843431,0.885364778));
#1352=DIRECTION('',(0.,0.,-1.));
#1353=DIRECTION('',(-1.,0.,0.));
#1354=AXIS2_PLACEMENT_3D('',#1351,#1352,#1353);
#1355=PLANE('',#1354);
#1356=CARTESIAN_POINT('',(41.999866475,4.37478721,0.885364778));
#1357=DIRECTION('',(0.,0.,-1.));
#1358=DIRECTION('',(-1.,0.,0.));
#1359=AXIS2_PLACEMENT_3D('',#1356,#1357,#1358);
#1360=CIRCLE('',#1359,4.4);
#1361=EDGE_CURVE('',#332,#875,#1360,.T.);
#1362=ORIENTED_EDGE('',*,*,#1361,.F.);
#1363=ORIENTED_EDGE('',*,*,#337,.F.);
#1364=CARTESIAN_POINT('',(41.999866475,-15.62521279,0.885364778));
#1365=DIRECTION('',(0.,0.,-1.));
#1366=DIRECTION('',(-1.,0.,0.));
#1367=AXIS2_PLACEMENT_3D('',#1364,#1365,#1366);
#1368=CIRCLE('',#1367,4.4);
#1369=EDGE_CURVE('',#866,#324,#1368,.T.);
#1370=ORIENTED_EDGE('',*,*,#1369,.F.);
#1371=ORIENTED_EDGE('',*,*,#886,.F.);
#1372=EDGE_LOOP('',(#1362,#1363,#1370,#1371));
#1373=FACE_BOUND('',#1372,.T.);
#1374=CARTESIAN_POINT('',(17.999866475,4.37478721,0.885364778));
#1375=DIRECTION('',(0.,0.,-1.));
#1376=DIRECTION('',(-1.,0.,0.));
#1377=AXIS2_PLACEMENT_3D('',#1374,#1375,#1376);
#1378=CIRCLE('',#1377,4.4);
#1379=EDGE_CURVE('',#441,#472,#1378,.T.);
#1380=ORIENTED_EDGE('',*,*,#1379,.F.);
#1381=ORIENTED_EDGE('',*,*,#446,.F.);
#1382=CARTESIAN_POINT('',(17.999866475,-15.62521279,0.885364778));
#1383=DIRECTION('',(0.,0.,-1.));
#1384=DIRECTION('',(-1.,0.,0.));
#1385=AXIS2_PLACEMENT_3D('',#1382,#1383,#1384);
#1386=CIRCLE('',#1385,4.4);
#1387=EDGE_CURVE('',#463,#433,#1386,.T.);
#1388=ORIENTED_EDGE('',*,*,#1387,.F.);
#1389=ORIENTED_EDGE('',*,*,#483,.T.);
#1390=EDGE_LOOP('',(#1380,#1381,#1388,#1389));
#1391=FACE_BOUND('',#1390,.T.);
#1392=CARTESIAN_POINT('',(-18.000175843,-4.625828013,0.885364778));
#1393=DIRECTION('',(0.,0.,-1.));
#1394=DIRECTION('',(-1.,0.,0.));
#1395=AXIS2_PLACEMENT_3D('',#1392,#1393,#1394);
#1396=CIRCLE('',#1395,4.4);
#1397=EDGE_CURVE('',#596,#565,#1396,.T.);
#1398=ORIENTED_EDGE('',*,*,#1397,.F.);
#1399=ORIENTED_EDGE('',*,*,#601,.T.);
#1400=CARTESIAN_POINT('',(-18.000175843,15.374171987,0.885364778));
#1401=DIRECTION('',(0.,0.,-1.));
#1402=DIRECTION('',(-1.,0.,0.));
#1403=AXIS2_PLACEMENT_3D('',#1400,#1401,#1402);
#1404=CIRCLE('',#1403,4.4);
#1405=EDGE_CURVE('',#556,#588,#1404,.T.);
#1406=ORIENTED_EDGE('',*,*,#1405,.F.);
#1407=ORIENTED_EDGE('',*,*,#576,.F.);
#1408=EDGE_LOOP('',(#1398,#1399,#1406,#1407));
#1409=FACE_BOUND('',#1408,.T.);
#1410=CARTESIAN_POINT('',(-42.000175843,-4.625828013,0.885364778));
#1411=DIRECTION('',(0.,0.,-1.));
#1412=DIRECTION('',(-1.,0.,0.));
#1413=AXIS2_PLACEMENT_3D('',#1410,#1411,#1412);
#1414=CIRCLE('',#1413,4.4);
#1415=EDGE_CURVE('',#689,#658,#1414,.T.);
#1416=ORIENTED_EDGE('',*,*,#1415,.F.);
#1417=ORIENTED_EDGE('',*,*,#694,.T.);
#1418=CARTESIAN_POINT('',(-42.000175843,15.374171987,0.885364778));
#1419=DIRECTION('',(0.,0.,-1.));
#1420=DIRECTION('',(-1.,0.,0.));
#1421=AXIS2_PLACEMENT_3D('',#1418,#1419,#1420);
#1422=CIRCLE('',#1421,4.4);
#1423=EDGE_CURVE('',#649,#681,#1422,.T.);
#1424=ORIENTED_EDGE('',*,*,#1423,.F.);
#1425=ORIENTED_EDGE('',*,*,#669,.F.);
#1426=EDGE_LOOP('',(#1416,#1417,#1424,#1425));
#1427=FACE_BOUND('',#1426,.T.);
#1428=CARTESIAN_POINT('',(95.096611619,-59.121435233,0.885364778));
#1429=VERTEX_POINT('',#1428);
#1430=CARTESIAN_POINT('',(92.096611619,-59.121435233,0.885364778));
#1431=VERTEX_POINT('',#1430);
#1432=CARTESIAN_POINT('',(93.596611619,-59.121435233,0.885364778));
#1433=DIRECTION('',(0.,0.,-1.));
#1434=DIRECTION('',(-1.,0.,0.));
#1435=AXIS2_PLACEMENT_3D('',#1432,#1433,#1434);
#1436=CIRCLE('',#1435,1.5);
#1437=EDGE_CURVE('',#1429,#1431,#1436,.T.);
#1438=ORIENTED_EDGE('',*,*,#1437,.F.);
#1439=CARTESIAN_POINT('',(93.596611619,-59.121435233,0.885364778));
#1440=DIRECTION('',(0.,0.,-1.));
#1441=DIRECTION('',(-1.,0.,0.));
#1442=AXIS2_PLACEMENT_3D('',#1439,#1440,#1441);
#1443=CIRCLE('',#1442,1.5);
#1444=EDGE_CURVE('',#1431,#1429,#1443,.T.);
#1445=ORIENTED_EDGE('',*,*,#1444,.F.);
#1446=EDGE_LOOP('',(#1438,#1445));
#1447=FACE_BOUND('',#1446,.T.);
#1448=CARTESIAN_POINT('',(95.096611619,-27.921435233,0.885364778));
#1449=VERTEX_POINT('',#1448);
#1450=CARTESIAN_POINT('',(92.096611619,-27.921435233,0.885364778));
#1451=VERTEX_POINT('',#1450);
#1452=CARTESIAN_POINT('',(93.596611619,-27.921435233,0.885364778));
#1453=DIRECTION('',(0.,0.,-1.));
#1454=DIRECTION('',(-1.,0.,0.));
#1455=AXIS2_PLACEMENT_3D('',#1452,#1453,#1454);
#1456=CIRCLE('',#1455,1.5);
#1457=EDGE_CURVE('',#1449,#1451,#1456,.T.);
#1458=ORIENTED_EDGE('',*,*,#1457,.F.);
#1459=CARTESIAN_POINT('',(93.596611619,-27.921435233,0.885364778));
#1460=DIRECTION('',(0.,0.,-1.));
#1461=DIRECTION('',(-1.,0.,0.));
#1462=AXIS2_PLACEMENT_3D('',#1459,#1460,#1461);
#1463=CIRCLE('',#1462,1.5);
#1464=EDGE_CURVE('',#1451,#1449,#1463,.T.);
#1465=ORIENTED_EDGE('',*,*,#1464,.F.);
#1466=EDGE_LOOP('',(#1458,#1465));
#1467=FACE_BOUND('',#1466,.T.);
#1468=CARTESIAN_POINT('',(126.096611619,-9.121435233,0.885364778));
#1469=VERTEX_POINT('',#1468);
#1470=CARTESIAN_POINT('',(123.096611619,-9.121435233,0.885364778));
#1471=VERTEX_POINT('',#1470);
#1472=CARTESIAN_POINT('',(124.596611619,-9.121435233,0.885364778));
#1473=DIRECTION('',(0.,0.,-1.));
#1474=DIRECTION('',(-1.,0.,0.));
#1475=AXIS2_PLACEMENT_3D('',#1472,#1473,#1474);
#1476=CIRCLE('',#1475,1.5);
#1477=EDGE_CURVE('',#1469,#1471,#1476,.T.);
#1478=ORIENTED_EDGE('',*,*,#1477,.F.);
#1479=CARTESIAN_POINT('',(124.596611619,-9.121435233,0.885364778));
#1480=DIRECTION('',(0.,0.,-1.));
#1481=DIRECTION('',(-1.,0.,0.));
#1482=AXIS2_PLACEMENT_3D('',#1479,#1480,#1481);
#1483=CIRCLE('',#1482,1.5);
#1484=EDGE_CURVE('',#1471,#1469,#1483,.T.);
#1485=ORIENTED_EDGE('',*,*,#1484,.F.);
#1486=EDGE_LOOP('',(#1478,#1485));
#1487=FACE_BOUND('',#1486,.T.);
#1488=CARTESIAN_POINT('',(126.096611619,44.878564767,0.885364778));
#1489=VERTEX_POINT('',#1488);
#1490=CARTESIAN_POINT('',(123.096611619,44.878564767,0.885364778));
#1491=VERTEX_POINT('',#1490);
#1492=CARTESIAN_POINT('',(124.596611619,44.878564767,0.885364778));
#1493=DIRECTION('',(0.,0.,-1.));
#1494=DIRECTION('',(-1.,0.,0.));
#1495=AXIS2_PLACEMENT_3D('',#1492,#1493,#1494);
#1496=CIRCLE('',#1495,1.5);
#1497=EDGE_CURVE('',#1489,#1491,#1496,.T.);
#1498=ORIENTED_EDGE('',*,*,#1497,.F.);
#1499=CARTESIAN_POINT('',(124.596611619,44.878564767,0.885364778));
#1500=DIRECTION('',(0.,0.,-1.));
#1501=DIRECTION('',(-1.,0.,0.));
#1502=AXIS2_PLACEMENT_3D('',#1499,#1500,#1501);
#1503=CIRCLE('',#1502,1.5);
#1504=EDGE_CURVE('',#1491,#1489,#1503,.T.);
#1505=ORIENTED_EDGE('',*,*,#1504,.F.);
#1506=EDGE_LOOP('',(#1498,#1505));
#1507=FACE_BOUND('',#1506,.T.);
#1508=CARTESIAN_POINT('',(66.096611619,44.878564767,0.885364778));
#1509=VERTEX_POINT('',#1508);
#1510=CARTESIAN_POINT('',(63.096611619,44.878564767,0.885364778));
#1511=VERTEX_POINT('',#1510);
#1512=CARTESIAN_POINT('',(64.596611619,44.878564767,0.885364778));
#1513=DIRECTION('',(0.,0.,-1.));
#1514=DIRECTION('',(-1.,0.,0.));
#1515=AXIS2_PLACEMENT_3D('',#1512,#1513,#1514);
#1516=CIRCLE('',#1515,1.5);
#1517=EDGE_CURVE('',#1509,#1511,#1516,.T.);
#1518=ORIENTED_EDGE('',*,*,#1517,.F.);
#1519=CARTESIAN_POINT('',(64.596611619,44.878564767,0.885364778));
#1520=DIRECTION('',(0.,0.,-1.));
#1521=DIRECTION('',(-1.,0.,0.));
#1522=AXIS2_PLACEMENT_3D('',#1519,#1520,#1521);
#1523=CIRCLE('',#1522,1.5);
#1524=EDGE_CURVE('',#1511,#1509,#1523,.T.);
#1525=ORIENTED_EDGE('',*,*,#1524,.F.);
#1526=EDGE_LOOP('',(#1518,#1525));
#1527=FACE_BOUND('',#1526,.T.);
#1528=CARTESIAN_POINT('',(66.096611619,-9.121435233,0.885364778));
#1529=VERTEX_POINT('',#1528);
#1530=CARTESIAN_POINT('',(63.096611619,-9.121435233,0.885364778));
#1531=VERTEX_POINT('',#1530);
#1532=CARTESIAN_POINT('',(64.596611619,-9.121435233,0.885364778));
#1533=DIRECTION('',(0.,0.,-1.));
#1534=DIRECTION('',(-1.,0.,0.));
#1535=AXIS2_PLACEMENT_3D('',#1532,#1533,#1534);
#1536=CIRCLE('',#1535,1.5);
#1537=EDGE_CURVE('',#1529,#1531,#1536,.T.);
#1538=ORIENTED_EDGE('',*,*,#1537,.F.);
#1539=CARTESIAN_POINT('',(64.596611619,-9.121435233,0.885364778));
#1540=DIRECTION('',(0.,0.,-1.));
#1541=DIRECTION('',(-1.,0.,0.));
#1542=AXIS2_PLACEMENT_3D('',#1539,#1540,#1541);
#1543=CIRCLE('',#1542,1.5);
#1544=EDGE_CURVE('',#1531,#1529,#1543,.T.);
#1545=ORIENTED_EDGE('',*,*,#1544,.F.);
#1546=EDGE_LOOP('',(#1538,#1545));
#1547=FACE_BOUND('',#1546,.T.);
#1548=CARTESIAN_POINT('',(-47.0002,-60.62521279,0.885364778));
#1549=VERTEX_POINT('',#1548);
#1550=CARTESIAN_POINT('',(-41.0002,-60.62521279,0.885364778));
#1551=DIRECTION('',(0.,0.,-1.));
#1552=DIRECTION('',(-1.,0.,0.));
#1553=AXIS2_PLACEMENT_3D('',#1550,#1551,#1552);
#1554=CIRCLE('',#1553,6.);
#1555=EDGE_CURVE('',#1549,#1549,#1554,.T.);
#1556=ORIENTED_EDGE('',*,*,#1555,.F.);
#1557=EDGE_LOOP('',(#1556));
#1558=FACE_BOUND('',#1557,.T.);
#1559=CARTESIAN_POINT('',(34.9998,60.374171987,0.885364778));
#1560=VERTEX_POINT('',#1559);
#1561=CARTESIAN_POINT('',(40.9998,60.374171987,0.885364778));
#1562=DIRECTION('',(0.,0.,-1.));
#1563=DIRECTION('',(-1.,0.,0.));
#1564=AXIS2_PLACEMENT_3D('',#1561,#1562,#1563);
#1565=CIRCLE('',#1564,6.);
#1566=EDGE_CURVE('',#1560,#1560,#1565,.T.);
#1567=ORIENTED_EDGE('',*,*,#1566,.F.);
#1568=EDGE_LOOP('',(#1567));
#1569=FACE_BOUND('',#1568,.T.);
#1570=CARTESIAN_POINT('',(39.9998,-60.62521279,0.885364778));
#1571=VERTEX_POINT('',#1570);
#1572=CARTESIAN_POINT('',(45.9998,-60.62521279,0.885364778));
#1573=DIRECTION('',(0.,0.,-1.));
#1574=DIRECTION('',(-1.,0.,0.));
#1575=AXIS2_PLACEMENT_3D('',#1572,#1573,#1574);
#1576=CIRCLE('',#1575,6.);
#1577=EDGE_CURVE('',#1571,#1571,#1576,.T.);
#1578=ORIENTED_EDGE('',*,*,#1577,.F.);
#1579=EDGE_LOOP('',(#1578));
#1580=FACE_BOUND('',#1579,.T.);
#1581=CARTESIAN_POINT('',(-52.0002,60.374171987,0.885364778));
#1582=VERTEX_POINT('',#1581);
#1583=CARTESIAN_POINT('',(-46.0002,60.374171987,0.885364778));
#1584=DIRECTION('',(0.,0.,-1.));
#1585=DIRECTION('',(-1.,0.,0.));
#1586=AXIS2_PLACEMENT_3D('',#1583,#1584,#1585);
#1587=CIRCLE('',#1586,6.);
#1588=EDGE_CURVE('',#1582,#1582,#1587,.T.);
#1589=ORIENTED_EDGE('',*,*,#1588,.F.);
#1590=EDGE_LOOP('',(#1589));
#1591=FACE_BOUND('',#1590,.T.);
#1592=CARTESIAN_POINT('',(-65.000154684,-100.125268828,0.885364778));
#1593=VERTEX_POINT('',#1592);
#1594=CARTESIAN_POINT('',(-65.000154684,99.874731172,0.885364778));
#1595=VERTEX_POINT('',#1594);
#1596=CARTESIAN_POINT('',(-65.000154684,-100.125268828,0.885364778));
#1597=DIRECTION('',(0.,1.,0.));
#1598=VECTOR('',#1597,200.);
#1599=LINE('',#1596,#1598);
#1600=EDGE_CURVE('',#1593,#1595,#1599,.T.);
#1601=ORIENTED_EDGE('',*,*,#1600,.T.);
#1602=CARTESIAN_POINT('',(134.999845316,99.874731172,0.885364778));
#1603=VERTEX_POINT('',#1602);
#1604=CARTESIAN_POINT('',(-65.000154684,99.874731172,0.885364778));
#1605=DIRECTION('',(1.,0.,-0.));
#1606=VECTOR('',#1605,200.);
#1607=LINE('',#1604,#1606);
#1608=EDGE_CURVE('',#1595,#1603,#1607,.T.);
#1609=ORIENTED_EDGE('',*,*,#1608,.T.);
#1610=CARTESIAN_POINT('',(134.999845316,-100.125268828,0.885364778));
#1611=VERTEX_POINT('',#1610);
#1612=CARTESIAN_POINT('',(134.999845316,99.874731172,0.885364778));
#1613=DIRECTION('',(0.,-1.,0.));
#1614=VECTOR('',#1613,200.);
#1615=LINE('',#1612,#1614);
#1616=EDGE_CURVE('',#1603,#1611,#1615,.T.);
#1617=ORIENTED_EDGE('',*,*,#1616,.T.);
#1618=CARTESIAN_POINT('',(134.999845316,-100.125268828,0.885364778));
#1619=DIRECTION('',(-1.,0.,0.));
#1620=VECTOR('',#1619,200.);
#1621=LINE('',#1618,#1620);
#1622=EDGE_CURVE('',#1611,#1593,#1621,.T.);
#1623=ORIENTED_EDGE('',*,*,#1622,.T.);
#1624=EDGE_LOOP('',(#1601,#1609,#1617,#1623));
#1625=FACE_BOUND('',#1624,.T.);
#1626=ADVANCED_FACE('',(#1373,#1391,#1409,#1427,#1447,#1467,#1487,#1507,#1527,#1547,#1558,#1569,#1580,#1591,#1625),#1355,.T.);
#1627=OVER_RIDING_STYLED_ITEM('',(#1349),#1626,#82);
#1628=CARTESIAN_POINT('',(134.999845316,9.498737416,10.885364778));
#1629=DIRECTION('',(1.,0.,0.));
#1630=DIRECTION('',(0.,0.,-1.));
#1631=AXIS2_PLACEMENT_3D('',#1628,#1629,#1630);
#1632=PLANE('',#1631);
#1633=CARTESIAN_POINT('',(134.999845316,-100.125268828,10.885364778));
#1634=DIRECTION('',(0.,0.,-1.));
#1635=VECTOR('',#1634,10.);
#1636=LINE('',#1633,#1635);
#1637=EDGE_CURVE('',#1309,#1611,#1636,.T.);
#1638=ORIENTED_EDGE('',*,*,#1637,.T.);
#1639=ORIENTED_EDGE('',*,*,#1616,.F.);
#1640=CARTESIAN_POINT('',(134.999845316,99.874731172,10.885364778));
#1641=DIRECTION('',(0.,0.,-1.));
#1642=VECTOR('',#1641,10.);
#1643=LINE('',#1640,#1642);
#1644=EDGE_CURVE('',#1319,#1603,#1643,.T.);
#1645=ORIENTED_EDGE('',*,*,#1644,.F.);
#1646=ORIENTED_EDGE('',*,*,#1324,.T.);
#1647=EDGE_LOOP('',(#1638,#1639,#1645,#1646));
#1648=FACE_BOUND('',#1647,.T.);
#1649=ADVANCED_FACE('',(#1648),#1632,.T.);
#1650=CARTESIAN_POINT('',(-0.828341348,-100.125268828,51.242987868));
#1651=DIRECTION('',(0.,-1.,0.));
#1652=DIRECTION('',(-1.,0.,0.));
#1653=AXIS2_PLACEMENT_3D('',#1650,#1651,#1652);
#1654=PLANE('',#1653);
#1655=ORIENTED_EDGE('',*,*,#1622,.F.);
#1656=ORIENTED_EDGE('',*,*,#1637,.F.);
#1657=ORIENTED_EDGE('',*,*,#1316,.T.);
#1658=CARTESIAN_POINT('',(-65.000154684,-100.125268828,10.885364778));
#1659=DIRECTION('',(0.,0.,-1.));
#1660=VECTOR('',#1659,10.);
#1661=LINE('',#1658,#1660);
#1662=EDGE_CURVE('',#1311,#1593,#1661,.T.);
#1663=ORIENTED_EDGE('',*,*,#1662,.T.);
#1664=EDGE_LOOP('',(#1655,#1656,#1657,#1663));
#1665=FACE_BOUND('',#1664,.T.);
#1666=ADVANCED_FACE('',(#1665),#1654,.T.);
#1667=CARTESIAN_POINT('',(-65.000154684,-9.569275071,10.885364778));
#1668=DIRECTION('',(-1.,0.,0.));
#1669=DIRECTION('',(0.,0.,-1.));
#1670=AXIS2_PLACEMENT_3D('',#1667,#1668,#1669);
#1671=PLANE('',#1670);
#1672=ORIENTED_EDGE('',*,*,#1338,.T.);
#1673=CARTESIAN_POINT('',(-65.000154684,99.874731172,10.885364778));
#1674=DIRECTION('',(0.,0.,-1.));
#1675=VECTOR('',#1674,10.);
#1676=LINE('',#1673,#1675);
#1677=EDGE_CURVE('',#1327,#1595,#1676,.T.);
#1678=ORIENTED_EDGE('',*,*,#1677,.T.);
#1679=ORIENTED_EDGE('',*,*,#1600,.F.);
#1680=ORIENTED_EDGE('',*,*,#1662,.F.);
#1681=EDGE_LOOP('',(#1672,#1678,#1679,#1680));
#1682=FACE_BOUND('',#1681,.T.);
#1683=ADVANCED_FACE('',(#1682),#1671,.T.);
#1684=CARTESIAN_POINT('',(-0.828341348,99.874731172,51.242987868));
#1685=DIRECTION('',(0.,1.,0.));
#1686=DIRECTION('',(-1.,0.,0.));
#1687=AXIS2_PLACEMENT_3D('',#1684,#1685,#1686);
#1688=PLANE('',#1687);
#1689=ORIENTED_EDGE('',*,*,#1332,.T.);
#1690=ORIENTED_EDGE('',*,*,#1644,.T.);
#1691=ORIENTED_EDGE('',*,*,#1608,.F.);
#1692=ORIENTED_EDGE('',*,*,#1677,.F.);
#1693=EDGE_LOOP('',(#1689,#1690,#1691,#1692));
#1694=FACE_BOUND('',#1693,.T.);
#1695=ADVANCED_FACE('',(#1694),#1688,.T.);
#1696=CARTESIAN_POINT('',(-46.0002,60.374171987,5.885364778));
#1697=DIRECTION('',(0.,0.,-1.));
#1698=DIRECTION('',(-1.,0.,0.));
#1699=AXIS2_PLACEMENT_3D('',#1696,#1697,#1698);
#1700=CYLINDRICAL_SURFACE('',#1699,6.);
#1701=CARTESIAN_POINT('',(-52.0002,60.374171987,7.885364778));
#1702=VERTEX_POINT('',#1701);
#1703=CARTESIAN_POINT('',(-52.0002,60.374171987,0.885364778));
#1704=DIRECTION('',(-0.,-0.,1.));
#1705=VECTOR('',#1704,7.);
#1706=LINE('',#1703,#1705);
#1707=EDGE_CURVE('',#1582,#1702,#1706,.T.);
#1708=ORIENTED_EDGE('',*,*,#1707,.F.);
#1709=ORIENTED_EDGE('',*,*,#1588,.T.);
#1710=ORIENTED_EDGE('',*,*,#1707,.T.);
#1711=CARTESIAN_POINT('',(-46.0002,60.374171987,7.885364778));
#1712=DIRECTION('',(0.,0.,-1.));
#1713=DIRECTION('',(-1.,0.,0.));
#1714=AXIS2_PLACEMENT_3D('',#1711,#1712,#1713);
#1715=CIRCLE('',#1714,6.);
#1716=EDGE_CURVE('',#1702,#1702,#1715,.T.);
#1717=ORIENTED_EDGE('',*,*,#1716,.F.);
#1718=EDGE_LOOP('',(#1708,#1709,#1710,#1717));
#1719=FACE_BOUND('',#1718,.T.);
#1720=ADVANCED_FACE('',(#1719),#1700,.F.);
#1721=CARTESIAN_POINT('',(0.,-0.26,7.885364778));
#1722=DIRECTION('',(0.,0.,-1.));
#1723=DIRECTION('',(-1.,0.,0.));
#1724=AXIS2_PLACEMENT_3D('',#1721,#1722,#1723);
#1725=PLANE('',#1724);
#1726=ORIENTED_EDGE('',*,*,#1083,.F.);
#1727=ORIENTED_EDGE('',*,*,#1090,.F.);
#1728=EDGE_LOOP('',(#1726,#1727));
#1729=FACE_BOUND('',#1728,.T.);
#1730=ORIENTED_EDGE('',*,*,#1716,.T.);
#1731=EDGE_LOOP('',(#1730));
#1732=FACE_BOUND('',#1731,.T.);
#1733=ADVANCED_FACE('',(#1729,#1732),#1725,.T.);
#1734=CARTESIAN_POINT('',(45.9998,-60.62521279,5.885364778));
#1735=DIRECTION('',(0.,0.,-1.));
#1736=DIRECTION('',(-1.,0.,0.));
#1737=AXIS2_PLACEMENT_3D('',#1734,#1735,#1736);
#1738=CYLINDRICAL_SURFACE('',#1737,6.);
#1739=CARTESIAN_POINT('',(39.9998,-60.62521279,7.885364778));
#1740=VERTEX_POINT('',#1739);
#1741=CARTESIAN_POINT('',(39.9998,-60.62521279,0.885364778));
#1742=DIRECTION('',(-0.,-0.,1.));
#1743=VECTOR('',#1742,7.);
#1744=LINE('',#1741,#1743);
#1745=EDGE_CURVE('',#1571,#1740,#1744,.T.);
#1746=ORIENTED_EDGE('',*,*,#1745,.F.);
#1747=ORIENTED_EDGE('',*,*,#1577,.T.);
#1748=ORIENTED_EDGE('',*,*,#1745,.T.);
#1749=CARTESIAN_POINT('',(45.9998,-60.62521279,7.885364778));
#1750=DIRECTION('',(0.,0.,-1.));
#1751=DIRECTION('',(-1.,0.,0.));
#1752=AXIS2_PLACEMENT_3D('',#1749,#1750,#1751);
#1753=CIRCLE('',#1752,6.);
#1754=EDGE_CURVE('',#1740,#1740,#1753,.T.);
#1755=ORIENTED_EDGE('',*,*,#1754,.F.);
#1756=EDGE_LOOP('',(#1746,#1747,#1748,#1755));
#1757=FACE_BOUND('',#1756,.T.);
#1758=ADVANCED_FACE('',(#1757),#1738,.F.);
#1759=CARTESIAN_POINT('',(0.,0.,7.885364778));
#1760=DIRECTION('',(0.,0.,-1.));
#1761=DIRECTION('',(-1.,0.,0.));
#1762=AXIS2_PLACEMENT_3D('',#1759,#1760,#1761);
#1763=PLANE('',#1762);
#1764=ORIENTED_EDGE('',*,*,#1032,.F.);
#1765=ORIENTED_EDGE('',*,*,#1039,.F.);
#1766=EDGE_LOOP('',(#1764,#1765));
#1767=FACE_BOUND('',#1766,.T.);
#1768=ORIENTED_EDGE('',*,*,#1754,.T.);
#1769=EDGE_LOOP('',(#1768));
#1770=FACE_BOUND('',#1769,.T.);
#1771=ADVANCED_FACE('',(#1767,#1770),#1763,.T.);
#1772=CARTESIAN_POINT('',(40.9998,60.374171987,5.885364778));
#1773=DIRECTION('',(0.,0.,-1.));
#1774=DIRECTION('',(-1.,0.,0.));
#1775=AXIS2_PLACEMENT_3D('',#1772,#1773,#1774);
#1776=CYLINDRICAL_SURFACE('',#1775,6.);
#1777=CARTESIAN_POINT('',(34.9998,60.374171987,7.885364778));
#1778=VERTEX_POINT('',#1777);
#1779=CARTESIAN_POINT('',(34.9998,60.374171987,0.885364778));
#1780=DIRECTION('',(-0.,-0.,1.));
#1781=VECTOR('',#1780,7.);
#1782=LINE('',#1779,#1781);
#1783=EDGE_CURVE('',#1560,#1778,#1782,.T.);
#1784=ORIENTED_EDGE('',*,*,#1783,.F.);
#1785=ORIENTED_EDGE('',*,*,#1566,.T.);
#1786=ORIENTED_EDGE('',*,*,#1783,.T.);
#1787=CARTESIAN_POINT('',(40.9998,60.374171987,7.885364778));
#1788=DIRECTION('',(0.,0.,-1.));
#1789=DIRECTION('',(-1.,0.,0.));
#1790=AXIS2_PLACEMENT_3D('',#1787,#1788,#1789);
#1791=CIRCLE('',#1790,6.);
#1792=EDGE_CURVE('',#1778,#1778,#1791,.T.);
#1793=ORIENTED_EDGE('',*,*,#1792,.F.);
#1794=EDGE_LOOP('',(#1784,#1785,#1786,#1793));
#1795=FACE_BOUND('',#1794,.T.);
#1796=ADVANCED_FACE('',(#1795),#1776,.F.);
#1797=CARTESIAN_POINT('',(0.,-0.26,7.885364778));
#1798=DIRECTION('',(0.,0.,-1.));
#1799=DIRECTION('',(-1.,0.,0.));
#1800=AXIS2_PLACEMENT_3D('',#1797,#1798,#1799);
#1801=PLANE('',#1800);
#1802=ORIENTED_EDGE('',*,*,#981,.F.);
#1803=ORIENTED_EDGE('',*,*,#988,.F.);
#1804=EDGE_LOOP('',(#1802,#1803));
#1805=FACE_BOUND('',#1804,.T.);
#1806=ORIENTED_EDGE('',*,*,#1792,.T.);
#1807=EDGE_LOOP('',(#1806));
#1808=FACE_BOUND('',#1807,.T.);
#1809=ADVANCED_FACE('',(#1805,#1808),#1801,.T.);
#1810=CARTESIAN_POINT('',(-41.0002,-60.62521279,5.885364778));
#1811=DIRECTION('',(0.,0.,-1.));
#1812=DIRECTION('',(-1.,0.,0.));
#1813=AXIS2_PLACEMENT_3D('',#1810,#1811,#1812);
#1814=CYLINDRICAL_SURFACE('',#1813,6.);
#1815=CARTESIAN_POINT('',(-47.0002,-60.62521279,7.885364778));
#1816=VERTEX_POINT('',#1815);
#1817=CARTESIAN_POINT('',(-47.0002,-60.62521279,0.885364778));
#1818=DIRECTION('',(-0.,-0.,1.));
#1819=VECTOR('',#1818,7.);
#1820=LINE('',#1817,#1819);
#1821=EDGE_CURVE('',#1549,#1816,#1820,.T.);
#1822=ORIENTED_EDGE('',*,*,#1821,.F.);
#1823=ORIENTED_EDGE('',*,*,#1555,.T.);
#1824=ORIENTED_EDGE('',*,*,#1821,.T.);
#1825=CARTESIAN_POINT('',(-41.0002,-60.62521279,7.885364778));
#1826=DIRECTION('',(0.,0.,-1.));
#1827=DIRECTION('',(-1.,0.,0.));
#1828=AXIS2_PLACEMENT_3D('',#1825,#1826,#1827);
#1829=CIRCLE('',#1828,6.);
#1830=EDGE_CURVE('',#1816,#1816,#1829,.T.);
#1831=ORIENTED_EDGE('',*,*,#1830,.F.);
#1832=EDGE_LOOP('',(#1822,#1823,#1824,#1831));
#1833=FACE_BOUND('',#1832,.T.);
#1834=ADVANCED_FACE('',(#1833),#1814,.F.);
#1835=CARTESIAN_POINT('',(0.,0.,7.885364778));
#1836=DIRECTION('',(0.,0.,-1.));
#1837=DIRECTION('',(-1.,0.,0.));
#1838=AXIS2_PLACEMENT_3D('',#1835,#1836,#1837);
#1839=PLANE('',#1838);
#1840=ORIENTED_EDGE('',*,*,#930,.F.);
#1841=ORIENTED_EDGE('',*,*,#937,.F.);
#1842=EDGE_LOOP('',(#1840,#1841));
#1843=FACE_BOUND('',#1842,.T.);
#1844=ORIENTED_EDGE('',*,*,#1830,.T.);
#1845=EDGE_LOOP('',(#1844));
#1846=FACE_BOUND('',#1845,.T.);
#1847=ADVANCED_FACE('',(#1843,#1846),#1839,.T.);
#1848=CARTESIAN_POINT('',(64.596611619,-9.121435233,-4.214635222));
#1849=DIRECTION('',(0.,0.,1.));
#1850=DIRECTION('',(1.,0.,-0.));
#1851=AXIS2_PLACEMENT_3D('',#1848,#1849,#1850);
#1852=CYLINDRICAL_SURFACE('',#1851,1.5);
#1853=CARTESIAN_POINT('',(66.096611619,-9.121435233,10.885364778));
#1854=DIRECTION('',(-0.,-0.,-1.));
#1855=VECTOR('',#1854,10.);
#1856=LINE('',#1853,#1855);
#1857=EDGE_CURVE('',#1275,#1529,#1856,.T.);
#1858=ORIENTED_EDGE('',*,*,#1857,.F.);
#1859=ORIENTED_EDGE('',*,*,#1281,.F.);
#1860=ORIENTED_EDGE('',*,*,#1288,.F.);
#1861=ORIENTED_EDGE('',*,*,#1857,.T.);
#1862=ORIENTED_EDGE('',*,*,#1537,.T.);
#1863=ORIENTED_EDGE('',*,*,#1544,.T.);
#1864=EDGE_LOOP('',(#1858,#1859,#1860,#1861,#1862,#1863));
#1865=FACE_BOUND('',#1864,.T.);
#1866=ADVANCED_FACE('',(#1865),#1852,.F.);
#1867=CARTESIAN_POINT('',(64.596611619,44.878564767,-4.214635222));
#1868=DIRECTION('',(0.,0.,1.));
#1869=DIRECTION('',(1.,0.,-0.));
#1870=AXIS2_PLACEMENT_3D('',#1867,#1868,#1869);
#1871=CYLINDRICAL_SURFACE('',#1870,1.5);
#1872=CARTESIAN_POINT('',(66.096611619,44.878564767,10.885364778));
#1873=DIRECTION('',(-0.,-0.,-1.));
#1874=VECTOR('',#1873,10.);
#1875=LINE('',#1872,#1874);
#1876=EDGE_CURVE('',#1255,#1509,#1875,.T.);
#1877=ORIENTED_EDGE('',*,*,#1876,.F.);
#1878=ORIENTED_EDGE('',*,*,#1261,.F.);
#1879=ORIENTED_EDGE('',*,*,#1268,.F.);
#1880=ORIENTED_EDGE('',*,*,#1876,.T.);
#1881=ORIENTED_EDGE('',*,*,#1517,.T.);
#1882=ORIENTED_EDGE('',*,*,#1524,.T.);
#1883=EDGE_LOOP('',(#1877,#1878,#1879,#1880,#1881,#1882));
#1884=FACE_BOUND('',#1883,.T.);
#1885=ADVANCED_FACE('',(#1884),#1871,.F.);
#1886=CARTESIAN_POINT('',(124.596611619,44.878564767,-4.214635222));
#1887=DIRECTION('',(0.,0.,1.));
#1888=DIRECTION('',(1.,0.,-0.));
#1889=AXIS2_PLACEMENT_3D('',#1886,#1887,#1888);
#1890=CYLINDRICAL_SURFACE('',#1889,1.5);
#1891=CARTESIAN_POINT('',(126.096611619,44.878564767,10.885364778));
#1892=DIRECTION('',(-0.,-0.,-1.));
#1893=VECTOR('',#1892,10.);
#1894=LINE('',#1891,#1893);
#1895=EDGE_CURVE('',#1235,#1489,#1894,.T.);
#1896=ORIENTED_EDGE('',*,*,#1895,.F.);
#1897=ORIENTED_EDGE('',*,*,#1241,.F.);
#1898=ORIENTED_EDGE('',*,*,#1248,.F.);
#1899=ORIENTED_EDGE('',*,*,#1895,.T.);
#1900=ORIENTED_EDGE('',*,*,#1497,.T.);
#1901=ORIENTED_EDGE('',*,*,#1504,.T.);
#1902=EDGE_LOOP('',(#1896,#1897,#1898,#1899,#1900,#1901));
#1903=FACE_BOUND('',#1902,.T.);
#1904=ADVANCED_FACE('',(#1903),#1890,.F.);
#1905=CARTESIAN_POINT('',(124.596611619,-9.121435233,-4.214635222));
#1906=DIRECTION('',(0.,0.,1.));
#1907=DIRECTION('',(1.,0.,-0.));
#1908=AXIS2_PLACEMENT_3D('',#1905,#1906,#1907);
#1909=CYLINDRICAL_SURFACE('',#1908,1.5);
#1910=CARTESIAN_POINT('',(126.096611619,-9.121435233,10.885364778));
#1911=DIRECTION('',(-0.,-0.,-1.));
#1912=VECTOR('',#1911,10.);
#1913=LINE('',#1910,#1912);
#1914=EDGE_CURVE('',#1215,#1469,#1913,.T.);
#1915=ORIENTED_EDGE('',*,*,#1914,.F.);
#1916=ORIENTED_EDGE('',*,*,#1221,.F.);
#1917=ORIENTED_EDGE('',*,*,#1228,.F.);
#1918=ORIENTED_EDGE('',*,*,#1914,.T.);
#1919=ORIENTED_EDGE('',*,*,#1477,.T.);
#1920=ORIENTED_EDGE('',*,*,#1484,.T.);
#1921=EDGE_LOOP('',(#1915,#1916,#1917,#1918,#1919,#1920));
#1922=FACE_BOUND('',#1921,.T.);
#1923=ADVANCED_FACE('',(#1922),#1909,.F.);
#1924=CARTESIAN_POINT('',(93.596611619,-27.921435233,-3.314635222));
#1925=DIRECTION('',(0.,0.,1.));
#1926=DIRECTION('',(1.,0.,-0.));
#1927=AXIS2_PLACEMENT_3D('',#1924,#1925,#1926);
#1928=CYLINDRICAL_SURFACE('',#1927,1.5);
#1929=CARTESIAN_POINT('',(95.096611619,-27.921435233,10.885364778));
#1930=DIRECTION('',(-0.,-0.,-1.));
#1931=VECTOR('',#1930,10.);
#1932=LINE('',#1929,#1931);
#1933=EDGE_CURVE('',#1193,#1449,#1932,.T.);
#1934=ORIENTED_EDGE('',*,*,#1933,.F.);
#1935=ORIENTED_EDGE('',*,*,#1201,.T.);
#1936=ORIENTED_EDGE('',*,*,#1208,.T.);
#1937=ORIENTED_EDGE('',*,*,#1933,.T.);
#1938=ORIENTED_EDGE('',*,*,#1457,.T.);
#1939=ORIENTED_EDGE('',*,*,#1464,.T.);
#1940=EDGE_LOOP('',(#1934,#1935,#1936,#1937,#1938,#1939));
#1941=FACE_BOUND('',#1940,.T.);
#1942=ADVANCED_FACE('',(#1941),#1928,.F.);
#1943=CARTESIAN_POINT('',(93.596611619,-59.121435233,-4.114635222));
#1944=DIRECTION('',(0.,0.,1.));
#1945=DIRECTION('',(1.,0.,-0.));
#1946=AXIS2_PLACEMENT_3D('',#1943,#1944,#1945);
#1947=CYLINDRICAL_SURFACE('',#1946,1.5);
#1948=CARTESIAN_POINT('',(95.096611619,-59.121435233,10.885364778));
#1949=DIRECTION('',(-0.,-0.,-1.));
#1950=VECTOR('',#1949,10.);
#1951=LINE('',#1948,#1950);
#1952=EDGE_CURVE('',#1173,#1429,#1951,.T.);
#1953=ORIENTED_EDGE('',*,*,#1952,.F.);
#1954=ORIENTED_EDGE('',*,*,#1181,.T.);
#1955=ORIENTED_EDGE('',*,*,#1188,.T.);
#1956=ORIENTED_EDGE('',*,*,#1952,.T.);
#1957=ORIENTED_EDGE('',*,*,#1437,.T.);
#1958=ORIENTED_EDGE('',*,*,#1444,.T.);
#1959=EDGE_LOOP('',(#1953,#1954,#1955,#1956,#1957,#1958));
#1960=FACE_BOUND('',#1959,.T.);
#1961=ADVANCED_FACE('',(#1960),#1947,.F.);
#1962=CARTESIAN_POINT('',(41.999866475,4.37478721,10.885364778));
#1963=DIRECTION('',(0.,0.,-1.));
#1964=DIRECTION('',(-1.,0.,0.));
#1965=AXIS2_PLACEMENT_3D('',#1962,#1963,#1964);
#1966=CYLINDRICAL_SURFACE('',#1965,1.5);
#1967=ORIENTED_EDGE('',*,*,#855,.T.);
#1968=ORIENTED_EDGE('',*,*,#276,.T.);
#1969=ORIENTED_EDGE('',*,*,#823,.F.);
#1970=ORIENTED_EDGE('',*,*,#1167,.F.);
#1971=EDGE_LOOP('',(#1967,#1968,#1969,#1970));
#1972=FACE_BOUND('',#1971,.T.);
#1973=ADVANCED_FACE('',(#1972),#1966,.F.);
#1974=OVER_RIDING_STYLED_ITEM('',(#1349),#1973,#82);
#1975=CARTESIAN_POINT('',(41.999866475,4.37478721,3.885364778));
#1976=DIRECTION('',(0.,0.,-1.));
#1977=DIRECTION('',(-1.,0.,0.));
#1978=AXIS2_PLACEMENT_3D('',#1975,#1976,#1977);
#1979=CYLINDRICAL_SURFACE('',#1978,4.4);
#1980=ORIENTED_EDGE('',*,*,#1361,.T.);
#1981=ORIENTED_EDGE('',*,*,#880,.F.);
#1982=ORIENTED_EDGE('',*,*,#289,.F.);
#1983=ORIENTED_EDGE('',*,*,#343,.T.);
#1984=EDGE_LOOP('',(#1980,#1981,#1982,#1983));
#1985=FACE_BOUND('',#1984,.T.);
#1986=ADVANCED_FACE('',(#1985),#1979,.F.);
#1987=OVER_RIDING_STYLED_ITEM('',(#1349),#1986,#82);
#1988=CARTESIAN_POINT('',(41.999866475,-15.62521279,10.885364778));
#1989=DIRECTION('',(0.,0.,-1.));
#1990=DIRECTION('',(-1.,0.,0.));
#1991=AXIS2_PLACEMENT_3D('',#1988,#1989,#1990);
#1992=CYLINDRICAL_SURFACE('',#1991,1.5);
#1993=ORIENTED_EDGE('',*,*,#809,.T.);
#1994=ORIENTED_EDGE('',*,*,#261,.T.);
#1995=ORIENTED_EDGE('',*,*,#848,.F.);
#1996=ORIENTED_EDGE('',*,*,#1159,.F.);
#1997=EDGE_LOOP('',(#1993,#1994,#1995,#1996));
#1998=FACE_BOUND('',#1997,.T.);
#1999=ADVANCED_FACE('',(#1998),#1992,.F.);
#2000=OVER_RIDING_STYLED_ITEM('',(#1349),#1999,#82);
#2001=CARTESIAN_POINT('',(17.999866475,-15.62521279,10.885364778));
#2002=DIRECTION('',(0.,0.,-1.));
#2003=DIRECTION('',(-1.,0.,0.));
#2004=AXIS2_PLACEMENT_3D('',#2001,#2002,#2003);
#2005=CYLINDRICAL_SURFACE('',#2004,1.5);
#2006=ORIENTED_EDGE('',*,*,#793,.T.);
#2007=ORIENTED_EDGE('',*,*,#385,.T.);
#2008=ORIENTED_EDGE('',*,*,#761,.F.);
#2009=ORIENTED_EDGE('',*,*,#1149,.F.);
#2010=EDGE_LOOP('',(#2006,#2007,#2008,#2009));
#2011=FACE_BOUND('',#2010,.T.);
#2012=ADVANCED_FACE('',(#2011),#2005,.F.);
#2013=OVER_RIDING_STYLED_ITEM('',(#1349),#2012,#82);
#2014=CARTESIAN_POINT('',(17.999866475,4.37478721,10.885364778));
#2015=DIRECTION('',(0.,0.,-1.));
#2016=DIRECTION('',(-1.,0.,0.));
#2017=AXIS2_PLACEMENT_3D('',#2014,#2015,#2016);
#2018=CYLINDRICAL_SURFACE('',#2017,1.5);
#2019=ORIENTED_EDGE('',*,*,#747,.T.);
#2020=ORIENTED_EDGE('',*,*,#370,.T.);
#2021=ORIENTED_EDGE('',*,*,#786,.F.);
#2022=ORIENTED_EDGE('',*,*,#1141,.F.);
#2023=EDGE_LOOP('',(#2019,#2020,#2021,#2022));
#2024=FACE_BOUND('',#2023,.T.);
#2025=ADVANCED_FACE('',(#2024),#2018,.F.);
#2026=OVER_RIDING_STYLED_ITEM('',(#1349),#2025,#82);
#2027=CARTESIAN_POINT('',(17.999866475,4.37478721,3.885364778));
#2028=DIRECTION('',(0.,0.,-1.));
#2029=DIRECTION('',(-1.,0.,0.));
#2030=AXIS2_PLACEMENT_3D('',#2027,#2028,#2029);
#2031=CYLINDRICAL_SURFACE('',#2030,4.4);
#2032=ORIENTED_EDGE('',*,*,#1379,.T.);
#2033=ORIENTED_EDGE('',*,*,#477,.F.);
#2034=ORIENTED_EDGE('',*,*,#398,.F.);
#2035=ORIENTED_EDGE('',*,*,#452,.T.);
#2036=EDGE_LOOP('',(#2032,#2033,#2034,#2035));
#2037=FACE_BOUND('',#2036,.T.);
#2038=ADVANCED_FACE('',(#2037),#2031,.F.);
#2039=OVER_RIDING_STYLED_ITEM('',(#1349),#2038,#82);
#2040=CARTESIAN_POINT('',(-18.000175843,15.374171987,10.885364778));
#2041=DIRECTION('',(0.,0.,-1.));
#2042=DIRECTION('',(-1.,0.,0.));
#2043=AXIS2_PLACEMENT_3D('',#2040,#2041,#2042);
#2044=CYLINDRICAL_SURFACE('',#2043,1.5);
#2045=ORIENTED_EDGE('',*,*,#731,.T.);
#2046=ORIENTED_EDGE('',*,*,#183,.T.);
#2047=ORIENTED_EDGE('',*,*,#544,.F.);
#2048=ORIENTED_EDGE('',*,*,#1131,.F.);
#2049=EDGE_LOOP('',(#2045,#2046,#2047,#2048));
#2050=FACE_BOUND('',#2049,.T.);
#2051=ADVANCED_FACE('',(#2050),#2044,.F.);
#2052=OVER_RIDING_STYLED_ITEM('',(#1349),#2051,#82);
#2053=CARTESIAN_POINT('',(-42.000175843,-4.625828013,10.885364778));
#2054=DIRECTION('',(0.,0.,-1.));
#2055=DIRECTION('',(-1.,0.,0.));
#2056=AXIS2_PLACEMENT_3D('',#2053,#2054,#2055);
#2057=CYLINDRICAL_SURFACE('',#2056,1.5);
#2058=ORIENTED_EDGE('',*,*,#638,.T.);
#2059=ORIENTED_EDGE('',*,*,#105,.T.);
#2060=ORIENTED_EDGE('',*,*,#513,.F.);
#2061=ORIENTED_EDGE('',*,*,#1113,.F.);
#2062=EDGE_LOOP('',(#2058,#2059,#2060,#2061));
#2063=FACE_BOUND('',#2062,.T.);
#2064=ADVANCED_FACE('',(#2063),#2057,.F.);
#2065=OVER_RIDING_STYLED_ITEM('',(#1349),#2064,#82);
#2066=CARTESIAN_POINT('',(-42.000175843,-4.625828013,5.885364778));
#2067=DIRECTION('',(0.,0.,-1.));
#2068=DIRECTION('',(-1.,0.,0.));
#2069=AXIS2_PLACEMENT_3D('',#2066,#2067,#2068);
#2070=CYLINDRICAL_SURFACE('',#2069,4.4);
#2071=ORIENTED_EDGE('',*,*,#1415,.T.);
#2072=ORIENTED_EDGE('',*,*,#663,.F.);
#2073=ORIENTED_EDGE('',*,*,#133,.F.);
#2074=ORIENTED_EDGE('',*,*,#700,.T.);
#2075=EDGE_LOOP('',(#2071,#2072,#2073,#2074));
#2076=FACE_BOUND('',#2075,.T.);
#2077=ADVANCED_FACE('',(#2076),#2070,.F.);
#2078=OVER_RIDING_STYLED_ITEM('',(#1349),#2077,#82);
#2079=CARTESIAN_POINT('',(-18.000175843,-4.625828013,10.885364778));
#2080=DIRECTION('',(0.,0.,-1.));
#2081=DIRECTION('',(-1.,0.,0.));
#2082=AXIS2_PLACEMENT_3D('',#2079,#2080,#2081);
#2083=CYLINDRICAL_SURFACE('',#2082,1.5);
#2084=ORIENTED_EDGE('',*,*,#530,.T.);
#2085=ORIENTED_EDGE('',*,*,#198,.T.);
#2086=ORIENTED_EDGE('',*,*,#724,.F.);
#2087=ORIENTED_EDGE('',*,*,#1123,.F.);
#2088=EDGE_LOOP('',(#2084,#2085,#2086,#2087));
#2089=FACE_BOUND('',#2088,.T.);
#2090=ADVANCED_FACE('',(#2089),#2083,.F.);
#2091=OVER_RIDING_STYLED_ITEM('',(#1349),#2090,#82);
#2092=CARTESIAN_POINT('',(-18.000175843,-4.625828013,5.885364778));
#2093=DIRECTION('',(0.,0.,-1.));
#2094=DIRECTION('',(-1.,0.,0.));
#2095=AXIS2_PLACEMENT_3D('',#2092,#2093,#2094);
#2096=CYLINDRICAL_SURFACE('',#2095,4.4);
#2097=ORIENTED_EDGE('',*,*,#1397,.T.);
#2098=ORIENTED_EDGE('',*,*,#570,.F.);
#2099=ORIENTED_EDGE('',*,*,#211,.F.);
#2100=ORIENTED_EDGE('',*,*,#607,.T.);
#2101=EDGE_LOOP('',(#2097,#2098,#2099,#2100));
#2102=FACE_BOUND('',#2101,.T.);
#2103=ADVANCED_FACE('',(#2102),#2096,.F.);
#2104=OVER_RIDING_STYLED_ITEM('',(#1349),#2103,#82);
#2105=CARTESIAN_POINT('',(-42.000175843,15.374171987,10.885364778));
#2106=DIRECTION('',(0.,0.,-1.));
#2107=DIRECTION('',(-1.,0.,0.));
#2108=AXIS2_PLACEMENT_3D('',#2105,#2106,#2107);
#2109=CYLINDRICAL_SURFACE('',#2108,1.5);
#2110=ORIENTED_EDGE('',*,*,#499,.T.);
#2111=ORIENTED_EDGE('',*,*,#120,.T.);
#2112=ORIENTED_EDGE('',*,*,#631,.F.);
#2113=ORIENTED_EDGE('',*,*,#1105,.F.);
#2114=EDGE_LOOP('',(#2110,#2111,#2112,#2113));
#2115=FACE_BOUND('',#2114,.T.);
#2116=ADVANCED_FACE('',(#2115),#2109,.F.);
#2117=OVER_RIDING_STYLED_ITEM('',(#1349),#2116,#82);
#2118=CARTESIAN_POINT('',(17.999866475,-15.62521279,3.885364778));
#2119=DIRECTION('',(0.,0.,-1.));
#2120=DIRECTION('',(-1.,0.,0.));
#2121=AXIS2_PLACEMENT_3D('',#2118,#2119,#2120);
#2122=CYLINDRICAL_SURFACE('',#2121,4.4);
#2123=ORIENTED_EDGE('',*,*,#1387,.T.);
#2124=ORIENTED_EDGE('',*,*,#438,.F.);
#2125=ORIENTED_EDGE('',*,*,#415,.F.);
#2126=ORIENTED_EDGE('',*,*,#468,.T.);
#2127=EDGE_LOOP('',(#2123,#2124,#2125,#2126));
#2128=FACE_BOUND('',#2127,.T.);
#2129=ADVANCED_FACE('',(#2128),#2122,.F.);
#2130=OVER_RIDING_STYLED_ITEM('',(#1349),#2129,#82);
#2131=CARTESIAN_POINT('',(41.999866475,-15.62521279,3.885364778));
#2132=DIRECTION('',(0.,0.,-1.));
#2133=DIRECTION('',(-1.,0.,0.));
#2134=AXIS2_PLACEMENT_3D('',#2131,#2132,#2133);
#2135=CYLINDRICAL_SURFACE('',#2134,4.4);
#2136=ORIENTED_EDGE('',*,*,#1369,.T.);
#2137=ORIENTED_EDGE('',*,*,#329,.F.);
#2138=ORIENTED_EDGE('',*,*,#306,.F.);
#2139=ORIENTED_EDGE('',*,*,#871,.T.);
#2140=EDGE_LOOP('',(#2136,#2137,#2138,#2139));
#2141=FACE_BOUND('',#2140,.T.);
#2142=ADVANCED_FACE('',(#2141),#2135,.F.);
#2143=OVER_RIDING_STYLED_ITEM('',(#1349),#2142,#82);
#2144=CARTESIAN_POINT('',(-18.000175843,15.374171987,5.885364778));
#2145=DIRECTION('',(0.,0.,-1.));
#2146=DIRECTION('',(-1.,0.,0.));
#2147=AXIS2_PLACEMENT_3D('',#2144,#2145,#2146);
#2148=CYLINDRICAL_SURFACE('',#2147,4.4);
#2149=ORIENTED_EDGE('',*,*,#1405,.T.);
#2150=ORIENTED_EDGE('',*,*,#593,.F.);
#2151=ORIENTED_EDGE('',*,*,#228,.F.);
#2152=ORIENTED_EDGE('',*,*,#561,.T.);
#2153=EDGE_LOOP('',(#2149,#2150,#2151,#2152));
#2154=FACE_BOUND('',#2153,.T.);
#2155=ADVANCED_FACE('',(#2154),#2148,.F.);
#2156=OVER_RIDING_STYLED_ITEM('',(#1349),#2155,#82);
#2157=CARTESIAN_POINT('',(-42.000175843,15.374171987,5.885364778));
#2158=DIRECTION('',(0.,0.,-1.));
#2159=DIRECTION('',(-1.,0.,0.));
#2160=AXIS2_PLACEMENT_3D('',#2157,#2158,#2159);
#2161=CYLINDRICAL_SURFACE('',#2160,4.4);
#2162=ORIENTED_EDGE('',*,*,#1423,.T.);
#2163=ORIENTED_EDGE('',*,*,#686,.F.);
#2164=ORIENTED_EDGE('',*,*,#150,.F.);
#2165=ORIENTED_EDGE('',*,*,#654,.T.);
#2166=EDGE_LOOP('',(#2162,#2163,#2164,#2165));
#2167=FACE_BOUND('',#2166,.T.);
#2168=ADVANCED_FACE('',(#2167),#2161,.F.);
#2169=OVER_RIDING_STYLED_ITEM('',(#1349),#2168,#82);
#2170=CLOSED_SHELL('',(#160,#238,#316,#347,#425,#456,#487,#518,#549,#580,#611,#642,#673,#704,#735,#766,#797,#828,#859,#890,#941,#992,#1043,#1094,#1342,#1626,
#1649,#1666,#1683,#1695,#1720,#1733,#1758,#1771,#1796,#1809,#1834,#1847,#1866,#1885,#1904,#1923,#1942,#1961,#1973,#1986,#1999,#2012,#2025,#2038,#2051,
#2064,#2077,#2090,#2103,#2116,#2129,#2142,#2155,#2168));
#2171=MANIFOLD_SOLID_BREP('Base_Plate',#2170);
#2172=COLOUR_RGB('',0.611764729,0.611764729,0.611764729);
#2173=FILL_AREA_STYLE_COLOUR('',#2172);
#2174=FILL_AREA_STYLE('',(#2173));
#2175=SURFACE_STYLE_FILL_AREA(#2174);
#2176=SURFACE_SIDE_STYLE('',(#2175));
#2177=SURFACE_STYLE_USAGE(.BOTH.,#2176);
#2178=PRESENTATION_STYLE_ASSIGNMENT((#2177));
#82=STYLED_ITEM('',(#2178),#2171);
#63=SHAPE_REPRESENTATION('Base_Plate',(#15),#61);
#64=ADVANCED_BREP_SHAPE_REPRESENTATION('Base_Plate',(#2171),#61);
#2186=SHAPE_REPRESENTATION_RELATIONSHIP('','',#63,#64);
#2187=CARTESIAN_POINT('',(0.,0.,0.));
#2188=DIRECTION('',(0.,0.,1.));
#2189=DIRECTION('',(1.,0.,0.));
#2190=AXIS2_PLACEMENT_3D('',#2187,#2188,#2189);
#2192=MAPPED_ITEM('',#2191,#2190);
#2191=REPRESENTATION_MAP(#2190,#63);
#2193=APPLICATION_CONTEXT('Managed model based 3d engineering');
#2194=APPLICATION_PROTOCOL_DEFINITION('international standard','ap242_managed_model_based_3d_engineering',2014,#2193);
#2195=PRODUCT_CONTEXT('',#2193,'mechanical');
#2196=PRODUCT_DEFINITION_CONTEXT('part definition',#2193,'design');
#71=PRODUCT('Base_Plate','Base_Plate','',(#2195));
#2197=PRODUCT_RELATED_PRODUCT_CATEGORY('part','',(#71));
#2198=PRODUCT_DEFINITION_FORMATION_WITH_SPECIFIED_SOURCE('','',#71,.NOT_KNOWN.);
#72=PRODUCT_DEFINITION('design','',#2198,#2196);
#70=PRODUCT_DEFINITION_SHAPE('','',#72);
#2199=SHAPE_DEFINITION_REPRESENTATION(#70,#63);
#62=DRAUGHTING_MODEL('',(#2192),#61);
#35=SHAPE_REPRESENTATION('RoboticArm.step',(#15,#76),#33);
#2200=CARTESIAN_POINT('',(0.,0.,0.));
#2201=DIRECTION('',(0.,0.,1.));
#2202=DIRECTION('',(1.,0.,0.));
#2203=AXIS2_PLACEMENT_3D('',#2200,#2201,#2202);
#2205=MAPPED_ITEM('',#2204,#2203);
#2204=REPRESENTATION_MAP(#2203,#35);
#43=PRODUCT('RoboticArm.step','RoboticArm.step','',(#2195));
#2206=PRODUCT_RELATED_PRODUCT_CATEGORY('part','',(#43));
#2207=PRODUCT_DEFINITION_FORMATION_WITH_SPECIFIED_SOURCE('','',#43,.NOT_KNOWN.);
#44=PRODUCT_DEFINITION('design','',#2207,#2196);
#42=PRODUCT_DEFINITION_SHAPE('','',#44);
#2208=SHAPE_DEFINITION_REPRESENTATION(#42,#35);
#34=DRAUGHTING_MODEL('',(#2205),#33);
#16=SHAPE_REPRESENTATION('root',(#15,#48),#10);
#2209=CARTESIAN_POINT('',(0.,0.,0.));
#2210=DIRECTION('',(0.,0.,1.));
#2211=DIRECTION('',(1.,0.,0.));
#2212=AXIS2_PLACEMENT_3D('',#2209,#2210,#2211);
#2214=MAPPED_ITEM('',#2213,#2212);
#2213=REPRESENTATION_MAP(#2212,#16);
#24=PRODUCT('root','root','',(#2195));
#2215=PRODUCT_RELATED_PRODUCT_CATEGORY('part','',(#24));
#2216=PRODUCT_DEFINITION_FORMATION_WITH_SPECIFIED_SOURCE('','',#24,.NOT_KNOWN.);
#25=PRODUCT_DEFINITION('design','',#2216,#2196);
#23=PRODUCT_DEFINITION_SHAPE('','',#25);
#2217=SHAPE_DEFINITION_REPRESENTATION(#23,#16);
#11=DRAUGHTING_MODEL('',(#2214),#10);
#2218=DESCRIPTIVE_REPRESENTATION_ITEM('KEY','C:\\Users\\tbheg\\AppData\\Local\\Packages\\Shapr3D.Shapr3D_j403pzjkqtqbj\\TempState\\30f666f9-0f8b-4869-b597-8c30148ec70e.tmp');
#2219=PROPERTY_DEFINITION('KEY','',#25);
#2220=REPRESENTATION('',(#2218),#10);
#2221=PROPERTY_DEFINITION_REPRESENTATION(#2219,#2220);
#2222=GENERAL_PROPERTY('','KEY','');
#2223=GENERAL_PROPERTY_ASSOCIATION('','',#2222,#2219);
#1=MECHANICAL_DESIGN_GEOMETRIC_PRESENTATION_REPRESENTATION('',(#1350,#1627,#1974,#1987,#2000,#2013,#2026,#2039,#2052,#2065,#2078,#2091,#2104,#2117,#2130,#2143,#2156,#2169,#82),#10);
ENDSEC;
END-ISO-10303-21;
