ISO-10303-21;
HEADER;

/* File generated by Shapr3D Version 5.900.9124.0 */

FILE_DESCRIPTION(('HOOPS Exchange Step'),'2;1');

FILE_NAME('C:\\Users\\tbheg\\AppData\\Local\\Packages\\Shapr3D.Shapr3D_j403pzjkqtqbj\\TempState\\export\\temp_export',
'2025-07-17T17:09:57+02:00',
('tbheg'),
('Shapr3D Limited'),
'HOOPS Exchange 2024.8',
'Shapr3D',
'Authorized');

FILE_SCHEMA( ('AP242_MANAGED_MODEL_BASED_3D_ENGINEERING_MIM_LF {1 0 10303 442 1 1 4}') );

ENDSEC;

DATA;
#3=(NAMED_UNIT(*)PLANE_ANGLE_UNIT()SI_UNIT($,.RADIAN.));
#4=PLANE_ANGLE_MEASURE_WITH_UNIT(PLANE_ANGLE_MEASURE(0.0174532925),#3);
#5=(CONVERSION_BASED_UNIT('DEGREE',#4)NAMED_UNIT(#6)PLANE_ANGLE_UNIT());
#6=DIMENSIONAL_EXPONENTS(0.,0.,0.,0.,0.,0.,0.);
#7=(NAMED_UNIT(*)SI_UNIT($,.STERADIAN.)SOLID_ANGLE_UNIT());
#8=(LENGTH_UNIT()NAMED_UNIT(*)SI_UNIT(.MILLI.,.METRE.));
#9=UNCERTAINTY_MEASURE_WITH_UNIT(LENGTH_MEASURE(1.000000E-03),#8,'DISTANCE_ACCURACY_VALUE','Maximum Tolerance applied to model');
#10=(GEOMETRIC_REPRESENTATION_CONTEXT(3)GLOBAL_UNCERTAINTY_ASSIGNED_CONTEXT((#9))GLOBAL_UNIT_ASSIGNED_CONTEXT((#8,#5,#7))REPRESENTATION_CONTEXT('','root'));
#12=CARTESIAN_POINT('',(0.,0.,0.));
#13=DIRECTION('',(0.,0.,1.));
#14=DIRECTION('',(1.,0.,0.));
#15=AXIS2_PLACEMENT_3D('',#12,#13,#14);
#26=(NAMED_UNIT(*)PLANE_ANGLE_UNIT()SI_UNIT($,.RADIAN.));
#27=PLANE_ANGLE_MEASURE_WITH_UNIT(PLANE_ANGLE_MEASURE(0.0174532925),#26);
#28=(CONVERSION_BASED_UNIT('DEGREE',#27)NAMED_UNIT(#29)PLANE_ANGLE_UNIT());
#29=DIMENSIONAL_EXPONENTS(0.,0.,0.,0.,0.,0.,0.);
#30=(NAMED_UNIT(*)SI_UNIT($,.STERADIAN.)SOLID_ANGLE_UNIT());
#31=(LENGTH_UNIT()NAMED_UNIT(*)SI_UNIT(.MILLI.,.METRE.));
#32=UNCERTAINTY_MEASURE_WITH_UNIT(LENGTH_MEASURE(1.000000E-03),#31,'DISTANCE_ACCURACY_VALUE','Maximum Tolerance applied to model');
#33=(GEOMETRIC_REPRESENTATION_CONTEXT(3)GLOBAL_UNCERTAINTY_ASSIGNED_CONTEXT((#32))GLOBAL_UNIT_ASSIGNED_CONTEXT((#31,#28,#30))REPRESENTATION_CONTEXT('','RoboticArm.step'));
#45=CARTESIAN_POINT('',(0.,0.,0.));
#46=DIRECTION('',(0.,0.,1.));
#47=DIRECTION('',(1.,0.,-0.));
#48=AXIS2_PLACEMENT_3D('',#45,#46,#47);
#49=ITEM_DEFINED_TRANSFORMATION('','',#48,#15);
#50=(REPRESENTATION_RELATIONSHIP('','',#35,#16)REPRESENTATION_RELATIONSHIP_WITH_TRANSFORMATION(#49)SHAPE_REPRESENTATION_RELATIONSHIP());
#51=NEXT_ASSEMBLY_USAGE_OCCURRENCE('RoboticArm.step_1','RoboticArm.step','RoboticArm.step',#25,#44,$);
#52=PRODUCT_DEFINITION_SHAPE('','',#51);
#53=CONTEXT_DEPENDENT_SHAPE_REPRESENTATION(#50,#52);
#54=(NAMED_UNIT(*)PLANE_ANGLE_UNIT()SI_UNIT($,.RADIAN.));
#55=PLANE_ANGLE_MEASURE_WITH_UNIT(PLANE_ANGLE_MEASURE(0.0174532925),#54);
#56=(CONVERSION_BASED_UNIT('DEGREE',#55)NAMED_UNIT(#57)PLANE_ANGLE_UNIT());
#57=DIMENSIONAL_EXPONENTS(0.,0.,0.,0.,0.,0.,0.);
#58=(NAMED_UNIT(*)SI_UNIT($,.STERADIAN.)SOLID_ANGLE_UNIT());
#59=(LENGTH_UNIT()NAMED_UNIT(*)SI_UNIT(.MILLI.,.METRE.));
#60=UNCERTAINTY_MEASURE_WITH_UNIT(LENGTH_MEASURE(1.000000E-03),#59,'DISTANCE_ACCURACY_VALUE','Maximum Tolerance applied to model');
#61=(GEOMETRIC_REPRESENTATION_CONTEXT(3)GLOBAL_UNCERTAINTY_ASSIGNED_CONTEXT((#60))GLOBAL_UNIT_ASSIGNED_CONTEXT((#59,#56,#58))REPRESENTATION_CONTEXT('','Lower_Segment'));
#73=CARTESIAN_POINT('',(0.,0.,0.));
#74=DIRECTION('',(0.,0.,1.));
#75=DIRECTION('',(1.,0.,-0.));
#76=AXIS2_PLACEMENT_3D('',#73,#74,#75);
#77=ITEM_DEFINED_TRANSFORMATION('','',#76,#15);
#78=(REPRESENTATION_RELATIONSHIP('','',#63,#35)REPRESENTATION_RELATIONSHIP_WITH_TRANSFORMATION(#77)SHAPE_REPRESENTATION_RELATIONSHIP());
#79=NEXT_ASSEMBLY_USAGE_OCCURRENCE('Lower_Segment_2','Lower_Segment','Lower_Segment',#44,#72,$);
#80=PRODUCT_DEFINITION_SHAPE('','',#79);
#81=CONTEXT_DEPENDENT_SHAPE_REPRESENTATION(#78,#80);
#82=(NAMED_UNIT(*)PLANE_ANGLE_UNIT()SI_UNIT($,.RADIAN.));
#83=PLANE_ANGLE_MEASURE_WITH_UNIT(PLANE_ANGLE_MEASURE(0.0174532925),#82);
#84=(CONVERSION_BASED_UNIT('DEGREE',#83)NAMED_UNIT(#85)PLANE_ANGLE_UNIT());
#85=DIMENSIONAL_EXPONENTS(0.,0.,0.,0.,0.,0.,0.);
#86=(NAMED_UNIT(*)SI_UNIT($,.STERADIAN.)SOLID_ANGLE_UNIT());
#87=(LENGTH_UNIT()NAMED_UNIT(*)SI_UNIT(.MILLI.,.METRE.));
#88=UNCERTAINTY_MEASURE_WITH_UNIT(LENGTH_MEASURE(1.000000E-05),#87,'DISTANCE_ACCURACY_VALUE','Maximum Tolerance applied to model');
#89=(GEOMETRIC_REPRESENTATION_CONTEXT(3)GLOBAL_UNCERTAINTY_ASSIGNED_CONTEXT((#88))GLOBAL_UNIT_ASSIGNED_CONTEXT((#87,#84,#86))REPRESENTATION_CONTEXT('','Planetary_Gearbox'));
#101=CARTESIAN_POINT('',(0.,0.,0.));
#102=DIRECTION('',(0.,0.,1.));
#103=DIRECTION('',(1.,0.,-0.));
#104=AXIS2_PLACEMENT_3D('',#101,#102,#103);
#105=ITEM_DEFINED_TRANSFORMATION('','',#104,#15);
#106=(REPRESENTATION_RELATIONSHIP('','',#91,#63)REPRESENTATION_RELATIONSHIP_WITH_TRANSFORMATION(#105)SHAPE_REPRESENTATION_RELATIONSHIP());
#107=NEXT_ASSEMBLY_USAGE_OCCURRENCE('Planetary_Gearbox_3','Planetary_Gearbox','Planetary_Gearbox',#72,#100,$);
#108=PRODUCT_DEFINITION_SHAPE('','',#107);
#109=CONTEXT_DEPENDENT_SHAPE_REPRESENTATION(#106,#108);
#111=CARTESIAN_POINT('',(0.,0.,227.521931382));
#112=DIRECTION('',(0.,0.,1.));
#113=DIRECTION('',(1.,0.,0.));
#114=AXIS2_PLACEMENT_3D('',#111,#112,#113);
#115=PLANE('',#114);
#116=CARTESIAN_POINT('',(5.009317224,-0.004129103,227.521931382));
#117=VERTEX_POINT('',#116);
#118=CARTESIAN_POINT('',(-4.990682776,-0.004129103,227.521931382));
#119=VERTEX_POINT('',#118);
#120=CARTESIAN_POINT('',(0.009317224,-0.004129103,227.521931382));
#121=DIRECTION('',(0.,0.,1.));
#122=DIRECTION('',(1.,0.,-0.));
#123=AXIS2_PLACEMENT_3D('',#120,#121,#122);
#124=CIRCLE('',#123,5.);
#125=EDGE_CURVE('',#117,#119,#124,.T.);
#126=ORIENTED_EDGE('',*,*,#125,.T.);
#127=CARTESIAN_POINT('',(0.009317224,-0.004129103,227.521931382));
#128=DIRECTION('',(0.,0.,1.));
#129=DIRECTION('',(1.,0.,-0.));
#130=AXIS2_PLACEMENT_3D('',#127,#128,#129);
#131=CIRCLE('',#130,5.);
#132=EDGE_CURVE('',#119,#117,#131,.T.);
#133=ORIENTED_EDGE('',*,*,#132,.T.);
#134=EDGE_LOOP('',(#126,#133));
#135=FACE_BOUND('',#134,.T.);
#136=CARTESIAN_POINT('',(-1.990682776,-2.24019708,227.521931382));
#137=VERTEX_POINT('',#136);
#138=CARTESIAN_POINT('',(2.009317224,-2.24019708,227.521931382));
#139=VERTEX_POINT('',#138);
#140=CARTESIAN_POINT('',(0.009317224,-0.004129103,227.521931382));
#141=DIRECTION('',(0.,0.,1.));
#142=DIRECTION('',(1.,0.,-0.));
#143=AXIS2_PLACEMENT_3D('',#140,#141,#142);
#144=CIRCLE('',#143,3.);
#145=EDGE_CURVE('',#137,#139,#144,.T.);
#146=ORIENTED_EDGE('',*,*,#145,.F.);
#147=CARTESIAN_POINT('',(-1.990682776,2.231938874,227.521931382));
#148=VERTEX_POINT('',#147);
#149=CARTESIAN_POINT('',(-1.990682776,-2.24019708,227.521931382));
#150=DIRECTION('',(0.,1.,0.));
#151=VECTOR('',#150,4.472135955);
#152=LINE('',#149,#151);
#153=EDGE_CURVE('',#137,#148,#152,.T.);
#154=ORIENTED_EDGE('',*,*,#153,.T.);
#155=CARTESIAN_POINT('',(2.009317224,2.231938874,227.521931382));
#156=VERTEX_POINT('',#155);
#157=CARTESIAN_POINT('',(0.009317224,-0.004129103,227.521931382));
#158=DIRECTION('',(0.,0.,1.));
#159=DIRECTION('',(1.,0.,-0.));
#160=AXIS2_PLACEMENT_3D('',#157,#158,#159);
#161=CIRCLE('',#160,3.);
#162=EDGE_CURVE('',#156,#148,#161,.T.);
#163=ORIENTED_EDGE('',*,*,#162,.F.);
#164=CARTESIAN_POINT('',(2.009317224,-2.24019708,227.521931382));
#165=DIRECTION('',(0.,1.,0.));
#166=VECTOR('',#165,4.472135955);
#167=LINE('',#164,#166);
#168=EDGE_CURVE('',#139,#156,#167,.T.);
#169=ORIENTED_EDGE('',*,*,#168,.F.);
#170=EDGE_LOOP('',(#146,#154,#163,#169));
#171=FACE_BOUND('',#170,.T.);
#172=ADVANCED_FACE('',(#135,#171),#115,.T.);
#173=CARTESIAN_POINT('',(-7.990682776,-0.004129103,164.32881255));
#174=DIRECTION('',(0.,-0.,1.));
#175=DIRECTION('',(0.,1.,0.));
#176=AXIS2_PLACEMENT_3D('',#173,#174,#175);
#177=CYLINDRICAL_SURFACE('',#176,1.25);
#178=CARTESIAN_POINT('',(-7.990682776,1.245870897,218.821931382));
#179=VERTEX_POINT('',#178);
#180=CARTESIAN_POINT('',(-7.990682776,1.245870897,216.821931382));
#181=VERTEX_POINT('',#180);
#182=CARTESIAN_POINT('',(-7.990682776,1.245870897,218.821931382));
#183=DIRECTION('',(-0.,-0.,-1.));
#184=VECTOR('',#183,2.);
#185=LINE('',#182,#184);
#186=EDGE_CURVE('',#179,#181,#185,.T.);
#187=ORIENTED_EDGE('',*,*,#186,.F.);
#188=CARTESIAN_POINT('',(-6.740682776,-0.004129103,218.821931382));
#189=VERTEX_POINT('',#188);
#190=CARTESIAN_POINT('',(-7.990682776,-0.004129103,218.821931382));
#191=DIRECTION('',(-0.,-0.,-1.));
#192=DIRECTION('',(1.,0.,-0.));
#193=AXIS2_PLACEMENT_3D('',#190,#191,#192);
#194=CIRCLE('',#193,1.25);
#195=EDGE_CURVE('',#189,#179,#194,.T.);
#196=ORIENTED_EDGE('',*,*,#195,.F.);
#197=CARTESIAN_POINT('',(-7.990682776,-0.004129103,218.821931382));
#198=DIRECTION('',(-0.,-0.,-1.));
#199=DIRECTION('',(1.,0.,-0.));
#200=AXIS2_PLACEMENT_3D('',#197,#198,#199);
#201=CIRCLE('',#200,1.25);
#202=EDGE_CURVE('',#179,#189,#201,.T.);
#203=ORIENTED_EDGE('',*,*,#202,.F.);
#204=ORIENTED_EDGE('',*,*,#186,.T.);
#205=CARTESIAN_POINT('',(-9.240682776,-0.004129103,216.821931382));
#206=VERTEX_POINT('',#205);
#207=CARTESIAN_POINT('',(-7.990682776,-0.004129103,216.821931382));
#208=DIRECTION('',(-0.,-0.,1.));
#209=DIRECTION('',(-1.,0.,0.));
#210=AXIS2_PLACEMENT_3D('',#207,#208,#209);
#211=CIRCLE('',#210,1.25);
#212=EDGE_CURVE('',#206,#181,#211,.T.);
#213=ORIENTED_EDGE('',*,*,#212,.F.);
#214=CARTESIAN_POINT('',(-7.990682776,-0.004129103,216.821931382));
#215=DIRECTION('',(-0.,-0.,1.));
#216=DIRECTION('',(-1.,0.,0.));
#217=AXIS2_PLACEMENT_3D('',#214,#215,#216);
#218=CIRCLE('',#217,1.25);
#219=EDGE_CURVE('',#181,#206,#218,.T.);
#220=ORIENTED_EDGE('',*,*,#219,.F.);
#221=EDGE_LOOP('',(#187,#196,#203,#204,#213,#220));
#222=FACE_BOUND('',#221,.T.);
#223=ADVANCED_FACE('',(#222),#177,.F.);
#224=CARTESIAN_POINT('',(-5.647537025,-5.660983353,164.32881255));
#225=DIRECTION('',(0.,0.,1.));
#226=DIRECTION('',(-0.707106781,0.707106781,0.));
#227=AXIS2_PLACEMENT_3D('',#224,#225,#226);
#228=CYLINDRICAL_SURFACE('',#227,1.25);
#229=CARTESIAN_POINT('',(-6.531420501,-4.777099877,218.821931382));
#230=VERTEX_POINT('',#229);
#231=CARTESIAN_POINT('',(-6.531420501,-4.777099877,216.821931382));
#232=VERTEX_POINT('',#231);
#233=CARTESIAN_POINT('',(-6.531420501,-4.777099877,218.821931382));
#234=DIRECTION('',(-0.,-0.,-1.));
#235=VECTOR('',#234,2.);
#236=LINE('',#233,#235);
#237=EDGE_CURVE('',#230,#232,#236,.T.);
#238=ORIENTED_EDGE('',*,*,#237,.F.);
#239=CARTESIAN_POINT('',(-4.397537025,-5.660983353,218.821931382));
#240=VERTEX_POINT('',#239);
#241=CARTESIAN_POINT('',(-5.647537025,-5.660983353,218.821931382));
#242=DIRECTION('',(-0.,-0.,-1.));
#243=DIRECTION('',(1.,0.,-0.));
#244=AXIS2_PLACEMENT_3D('',#241,#242,#243);
#245=CIRCLE('',#244,1.25);
#246=EDGE_CURVE('',#240,#230,#245,.T.);
#247=ORIENTED_EDGE('',*,*,#246,.F.);
#248=CARTESIAN_POINT('',(-5.647537025,-5.660983353,218.821931382));
#249=DIRECTION('',(-0.,-0.,-1.));
#250=DIRECTION('',(1.,0.,-0.));
#251=AXIS2_PLACEMENT_3D('',#248,#249,#250);
#252=CIRCLE('',#251,1.25);
#253=EDGE_CURVE('',#230,#240,#252,.T.);
#254=ORIENTED_EDGE('',*,*,#253,.F.);
#255=ORIENTED_EDGE('',*,*,#237,.T.);
#256=CARTESIAN_POINT('',(-6.897537025,-5.660983353,216.821931382));
#257=VERTEX_POINT('',#256);
#258=CARTESIAN_POINT('',(-5.647537025,-5.660983353,216.821931382));
#259=DIRECTION('',(-0.,-0.,1.));
#260=DIRECTION('',(-1.,0.,0.));
#261=AXIS2_PLACEMENT_3D('',#258,#259,#260);
#262=CIRCLE('',#261,1.25);
#263=EDGE_CURVE('',#257,#232,#262,.T.);
#264=ORIENTED_EDGE('',*,*,#263,.F.);
#265=CARTESIAN_POINT('',(-5.647537025,-5.660983353,216.821931382));
#266=DIRECTION('',(-0.,-0.,1.));
#267=DIRECTION('',(-1.,0.,0.));
#268=AXIS2_PLACEMENT_3D('',#265,#266,#267);
#269=CIRCLE('',#268,1.25);
#270=EDGE_CURVE('',#232,#257,#269,.T.);
#271=ORIENTED_EDGE('',*,*,#270,.F.);
#272=EDGE_LOOP('',(#238,#247,#254,#255,#264,#271));
#273=FACE_BOUND('',#272,.T.);
#274=ADVANCED_FACE('',(#273),#228,.F.);
#275=CARTESIAN_POINT('',(0.009317224,-8.004129103,164.32881255));
#276=DIRECTION('',(0.,0.,1.));
#277=DIRECTION('',(-1.,0.,0.));
#278=AXIS2_PLACEMENT_3D('',#275,#276,#277);
#279=CYLINDRICAL_SURFACE('',#278,1.25);
#280=CARTESIAN_POINT('',(-1.240682776,-8.004129103,218.821931382));
#281=VERTEX_POINT('',#280);
#282=CARTESIAN_POINT('',(-1.240682776,-8.004129103,216.821931382));
#283=VERTEX_POINT('',#282);
#284=CARTESIAN_POINT('',(-1.240682776,-8.004129103,218.821931382));
#285=DIRECTION('',(-0.,-0.,-1.));
#286=VECTOR('',#285,2.);
#287=LINE('',#284,#286);
#288=EDGE_CURVE('',#281,#283,#287,.T.);
#289=ORIENTED_EDGE('',*,*,#288,.F.);
#290=CARTESIAN_POINT('',(1.259317224,-8.004129103,218.821931382));
#291=VERTEX_POINT('',#290);
#292=CARTESIAN_POINT('',(0.009317224,-8.004129103,218.821931382));
#293=DIRECTION('',(-0.,-0.,-1.));
#294=DIRECTION('',(1.,0.,-0.));
#295=AXIS2_PLACEMENT_3D('',#292,#293,#294);
#296=CIRCLE('',#295,1.25);
#297=EDGE_CURVE('',#291,#281,#296,.T.);
#298=ORIENTED_EDGE('',*,*,#297,.F.);
#299=CARTESIAN_POINT('',(0.009317224,-8.004129103,218.821931382));
#300=DIRECTION('',(-0.,-0.,-1.));
#301=DIRECTION('',(1.,0.,-0.));
#302=AXIS2_PLACEMENT_3D('',#299,#300,#301);
#303=CIRCLE('',#302,1.25);
#304=EDGE_CURVE('',#281,#291,#303,.T.);
#305=ORIENTED_EDGE('',*,*,#304,.F.);
#306=ORIENTED_EDGE('',*,*,#288,.T.);
#307=CARTESIAN_POINT('',(0.009317224,-8.004129103,216.821931382));
#308=DIRECTION('',(-0.,-0.,1.));
#309=DIRECTION('',(-1.,0.,0.));
#310=AXIS2_PLACEMENT_3D('',#307,#308,#309);
#311=CIRCLE('',#310,1.25);
#312=EDGE_CURVE('',#283,#283,#311,.T.);
#313=ORIENTED_EDGE('',*,*,#312,.F.);
#314=EDGE_LOOP('',(#289,#298,#305,#306,#313));
#315=FACE_BOUND('',#314,.T.);
#316=ADVANCED_FACE('',(#315),#279,.F.);
#317=CARTESIAN_POINT('',(5.666171474,-5.660983353,164.32881255));
#318=DIRECTION('',(0.,0.,1.));
#319=DIRECTION('',(-0.707106781,-0.707106781,0.));
#320=AXIS2_PLACEMENT_3D('',#317,#318,#319);
#321=CYLINDRICAL_SURFACE('',#320,1.25);
#322=CARTESIAN_POINT('',(4.782287998,-6.544866829,218.821931382));
#323=VERTEX_POINT('',#322);
#324=CARTESIAN_POINT('',(4.782287998,-6.544866829,216.821931382));
#325=VERTEX_POINT('',#324);
#326=CARTESIAN_POINT('',(4.782287998,-6.544866829,218.821931382));
#327=DIRECTION('',(-0.,-0.,-1.));
#328=VECTOR('',#327,2.);
#329=LINE('',#326,#328);
#330=EDGE_CURVE('',#323,#325,#329,.T.);
#331=ORIENTED_EDGE('',*,*,#330,.F.);
#332=CARTESIAN_POINT('',(6.916171474,-5.660983353,218.821931382));
#333=VERTEX_POINT('',#332);
#334=CARTESIAN_POINT('',(5.666171474,-5.660983353,218.821931382));
#335=DIRECTION('',(-0.,-0.,-1.));
#336=DIRECTION('',(1.,0.,-0.));
#337=AXIS2_PLACEMENT_3D('',#334,#335,#336);
#338=CIRCLE('',#337,1.25);
#339=EDGE_CURVE('',#333,#323,#338,.T.);
#340=ORIENTED_EDGE('',*,*,#339,.F.);
#341=CARTESIAN_POINT('',(5.666171474,-5.660983353,218.821931382));
#342=DIRECTION('',(-0.,-0.,-1.));
#343=DIRECTION('',(1.,0.,-0.));
#344=AXIS2_PLACEMENT_3D('',#341,#342,#343);
#345=CIRCLE('',#344,1.25);
#346=EDGE_CURVE('',#323,#333,#345,.T.);
#347=ORIENTED_EDGE('',*,*,#346,.F.);
#348=ORIENTED_EDGE('',*,*,#330,.T.);
#349=CARTESIAN_POINT('',(4.416171474,-5.660983353,216.821931382));
#350=VERTEX_POINT('',#349);
#351=CARTESIAN_POINT('',(5.666171474,-5.660983353,216.821931382));
#352=DIRECTION('',(-0.,-0.,1.));
#353=DIRECTION('',(-1.,0.,0.));
#354=AXIS2_PLACEMENT_3D('',#351,#352,#353);
#355=CIRCLE('',#354,1.25);
#356=EDGE_CURVE('',#350,#325,#355,.T.);
#357=ORIENTED_EDGE('',*,*,#356,.F.);
#358=CARTESIAN_POINT('',(5.666171474,-5.660983353,216.821931382));
#359=DIRECTION('',(-0.,-0.,1.));
#360=DIRECTION('',(-1.,0.,0.));
#361=AXIS2_PLACEMENT_3D('',#358,#359,#360);
#362=CIRCLE('',#361,1.25);
#363=EDGE_CURVE('',#325,#350,#362,.T.);
#364=ORIENTED_EDGE('',*,*,#363,.F.);
#365=EDGE_LOOP('',(#331,#340,#347,#348,#357,#364));
#366=FACE_BOUND('',#365,.T.);
#367=ADVANCED_FACE('',(#366),#321,.F.);
#368=CARTESIAN_POINT('',(8.009317224,-0.004129103,164.32881255));
#369=DIRECTION('',(0.,0.,1.));
#370=DIRECTION('',(0.,-1.,0.));
#371=AXIS2_PLACEMENT_3D('',#368,#369,#370);
#372=CYLINDRICAL_SURFACE('',#371,1.25);
#373=CARTESIAN_POINT('',(8.009317224,-1.254129103,218.821931382));
#374=VERTEX_POINT('',#373);
#375=CARTESIAN_POINT('',(8.009317224,-1.254129103,216.821931382));
#376=VERTEX_POINT('',#375);
#377=CARTESIAN_POINT('',(8.009317224,-1.254129103,218.821931382));
#378=DIRECTION('',(-0.,0.,-1.));
#379=VECTOR('',#378,2.);
#380=LINE('',#377,#379);
#381=EDGE_CURVE('',#374,#376,#380,.T.);
#382=ORIENTED_EDGE('',*,*,#381,.F.);
#383=CARTESIAN_POINT('',(9.259317224,-0.004129103,218.821931382));
#384=VERTEX_POINT('',#383);
#385=CARTESIAN_POINT('',(8.009317224,-0.004129103,218.821931382));
#386=DIRECTION('',(-0.,-0.,-1.));
#387=DIRECTION('',(1.,0.,-0.));
#388=AXIS2_PLACEMENT_3D('',#385,#386,#387);
#389=CIRCLE('',#388,1.25);
#390=EDGE_CURVE('',#384,#374,#389,.T.);
#391=ORIENTED_EDGE('',*,*,#390,.F.);
#392=CARTESIAN_POINT('',(8.009317224,-0.004129103,218.821931382));
#393=DIRECTION('',(-0.,-0.,-1.));
#394=DIRECTION('',(1.,0.,-0.));
#395=AXIS2_PLACEMENT_3D('',#392,#393,#394);
#396=CIRCLE('',#395,1.25);
#397=EDGE_CURVE('',#374,#384,#396,.T.);
#398=ORIENTED_EDGE('',*,*,#397,.F.);
#399=ORIENTED_EDGE('',*,*,#381,.T.);
#400=CARTESIAN_POINT('',(6.759317224,-0.004129103,216.821931382));
#401=VERTEX_POINT('',#400);
#402=CARTESIAN_POINT('',(8.009317224,-0.004129103,216.821931382));
#403=DIRECTION('',(-0.,-0.,1.));
#404=DIRECTION('',(-1.,0.,0.));
#405=AXIS2_PLACEMENT_3D('',#402,#403,#404);
#406=CIRCLE('',#405,1.25);
#407=EDGE_CURVE('',#401,#376,#406,.T.);
#408=ORIENTED_EDGE('',*,*,#407,.F.);
#409=CARTESIAN_POINT('',(8.009317224,-0.004129103,216.821931382));
#410=DIRECTION('',(-0.,-0.,1.));
#411=DIRECTION('',(-1.,0.,0.));
#412=AXIS2_PLACEMENT_3D('',#409,#410,#411);
#413=CIRCLE('',#412,1.25);
#414=EDGE_CURVE('',#376,#401,#413,.T.);
#415=ORIENTED_EDGE('',*,*,#414,.F.);
#416=EDGE_LOOP('',(#382,#391,#398,#399,#408,#415));
#417=FACE_BOUND('',#416,.T.);
#418=ADVANCED_FACE('',(#417),#372,.F.);
#419=CARTESIAN_POINT('',(5.666171474,5.652725146,164.32881255));
#420=DIRECTION('',(0.,0.,1.));
#421=DIRECTION('',(0.707106781,-0.707106781,0.));
#422=AXIS2_PLACEMENT_3D('',#419,#420,#421);
#423=CYLINDRICAL_SURFACE('',#422,1.25);
#424=CARTESIAN_POINT('',(6.55005495,4.76884167,218.821931382));
#425=VERTEX_POINT('',#424);
#426=CARTESIAN_POINT('',(6.55005495,4.76884167,216.821931382));
#427=VERTEX_POINT('',#426);
#428=CARTESIAN_POINT('',(6.55005495,4.76884167,218.821931382));
#429=DIRECTION('',(-0.,-0.,-1.));
#430=VECTOR('',#429,2.);
#431=LINE('',#428,#430);
#432=EDGE_CURVE('',#425,#427,#431,.T.);
#433=ORIENTED_EDGE('',*,*,#432,.F.);
#434=CARTESIAN_POINT('',(6.916171474,5.652725146,218.821931382));
#435=VERTEX_POINT('',#434);
#436=CARTESIAN_POINT('',(5.666171474,5.652725146,218.821931382));
#437=DIRECTION('',(-0.,-0.,-1.));
#438=DIRECTION('',(1.,0.,-0.));
#439=AXIS2_PLACEMENT_3D('',#436,#437,#438);
#440=CIRCLE('',#439,1.25);
#441=EDGE_CURVE('',#435,#425,#440,.T.);
#442=ORIENTED_EDGE('',*,*,#441,.F.);
#443=CARTESIAN_POINT('',(5.666171474,5.652725146,218.821931382));
#444=DIRECTION('',(-0.,-0.,-1.));
#445=DIRECTION('',(1.,0.,-0.));
#446=AXIS2_PLACEMENT_3D('',#443,#444,#445);
#447=CIRCLE('',#446,1.25);
#448=EDGE_CURVE('',#425,#435,#447,.T.);
#449=ORIENTED_EDGE('',*,*,#448,.F.);
#450=ORIENTED_EDGE('',*,*,#432,.T.);
#451=CARTESIAN_POINT('',(4.416171474,5.652725146,216.821931382));
#452=VERTEX_POINT('',#451);
#453=CARTESIAN_POINT('',(5.666171474,5.652725146,216.821931382));
#454=DIRECTION('',(-0.,-0.,1.));
#455=DIRECTION('',(-1.,0.,0.));
#456=AXIS2_PLACEMENT_3D('',#453,#454,#455);
#457=CIRCLE('',#456,1.25);
#458=EDGE_CURVE('',#452,#427,#457,.T.);
#459=ORIENTED_EDGE('',*,*,#458,.F.);
#460=CARTESIAN_POINT('',(5.666171474,5.652725146,216.821931382));
#461=DIRECTION('',(-0.,-0.,1.));
#462=DIRECTION('',(-1.,0.,0.));
#463=AXIS2_PLACEMENT_3D('',#460,#461,#462);
#464=CIRCLE('',#463,1.25);
#465=EDGE_CURVE('',#427,#452,#464,.T.);
#466=ORIENTED_EDGE('',*,*,#465,.F.);
#467=EDGE_LOOP('',(#433,#442,#449,#450,#459,#466));
#468=FACE_BOUND('',#467,.T.);
#469=ADVANCED_FACE('',(#468),#423,.F.);
#470=CARTESIAN_POINT('',(0.009317224,7.995870897,164.32881255));
#471=DIRECTION('',(0.,0.,1.));
#472=DIRECTION('',(1.,0.,-0.));
#473=AXIS2_PLACEMENT_3D('',#470,#471,#472);
#474=CYLINDRICAL_SURFACE('',#473,1.25);
#475=CARTESIAN_POINT('',(1.259317224,7.995870897,218.821931382));
#476=VERTEX_POINT('',#475);
#477=CARTESIAN_POINT('',(1.259317224,7.995870897,216.821931382));
#478=VERTEX_POINT('',#477);
#479=CARTESIAN_POINT('',(1.259317224,7.995870897,218.821931382));
#480=DIRECTION('',(-0.,-0.,-1.));
#481=VECTOR('',#480,2.);
#482=LINE('',#479,#481);
#483=EDGE_CURVE('',#476,#478,#482,.T.);
#484=ORIENTED_EDGE('',*,*,#483,.F.);
#485=CARTESIAN_POINT('',(0.009317224,7.995870897,218.821931382));
#486=DIRECTION('',(-0.,-0.,-1.));
#487=DIRECTION('',(1.,0.,-0.));
#488=AXIS2_PLACEMENT_3D('',#485,#486,#487);
#489=CIRCLE('',#488,1.25);
#490=EDGE_CURVE('',#476,#476,#489,.T.);
#491=ORIENTED_EDGE('',*,*,#490,.F.);
#492=ORIENTED_EDGE('',*,*,#483,.T.);
#493=CARTESIAN_POINT('',(-1.240682776,7.995870897,216.821931382));
#494=VERTEX_POINT('',#493);
#495=CARTESIAN_POINT('',(0.009317224,7.995870897,216.821931382));
#496=DIRECTION('',(-0.,-0.,1.));
#497=DIRECTION('',(-1.,0.,0.));
#498=AXIS2_PLACEMENT_3D('',#495,#496,#497);
#499=CIRCLE('',#498,1.25);
#500=EDGE_CURVE('',#494,#478,#499,.T.);
#501=ORIENTED_EDGE('',*,*,#500,.F.);
#502=CARTESIAN_POINT('',(0.009317224,7.995870897,216.821931382));
#503=DIRECTION('',(-0.,-0.,1.));
#504=DIRECTION('',(-1.,0.,0.));
#505=AXIS2_PLACEMENT_3D('',#502,#503,#504);
#506=CIRCLE('',#505,1.25);
#507=EDGE_CURVE('',#478,#494,#506,.T.);
#508=ORIENTED_EDGE('',*,*,#507,.F.);
#509=EDGE_LOOP('',(#484,#491,#492,#501,#508));
#510=FACE_BOUND('',#509,.T.);
#511=ADVANCED_FACE('',(#510),#474,.F.);
#512=CARTESIAN_POINT('',(-5.647537025,5.652725146,164.32881255));
#513=DIRECTION('',(0.,-0.,1.));
#514=DIRECTION('',(0.707106781,0.707106781,0.));
#515=AXIS2_PLACEMENT_3D('',#512,#513,#514);
#516=CYLINDRICAL_SURFACE('',#515,1.25);
#517=CARTESIAN_POINT('',(-4.763653549,6.536608622,218.821931382));
#518=VERTEX_POINT('',#517);
#519=CARTESIAN_POINT('',(-4.763653549,6.536608622,216.821931382));
#520=VERTEX_POINT('',#519);
#521=CARTESIAN_POINT('',(-4.763653549,6.536608622,218.821931382));
#522=DIRECTION('',(-0.,-0.,-1.));
#523=VECTOR('',#522,2.);
#524=LINE('',#521,#523);
#525=EDGE_CURVE('',#518,#520,#524,.T.);
#526=ORIENTED_EDGE('',*,*,#525,.F.);
#527=CARTESIAN_POINT('',(-4.397537025,5.652725146,218.821931382));
#528=VERTEX_POINT('',#527);
#529=CARTESIAN_POINT('',(-5.647537025,5.652725146,218.821931382));
#530=DIRECTION('',(-0.,-0.,-1.));
#531=DIRECTION('',(1.,0.,-0.));
#532=AXIS2_PLACEMENT_3D('',#529,#530,#531);
#533=CIRCLE('',#532,1.25);
#534=EDGE_CURVE('',#528,#518,#533,.T.);
#535=ORIENTED_EDGE('',*,*,#534,.F.);
#536=CARTESIAN_POINT('',(-5.647537025,5.652725146,218.821931382));
#537=DIRECTION('',(-0.,-0.,-1.));
#538=DIRECTION('',(1.,0.,-0.));
#539=AXIS2_PLACEMENT_3D('',#536,#537,#538);
#540=CIRCLE('',#539,1.25);
#541=EDGE_CURVE('',#518,#528,#540,.T.);
#542=ORIENTED_EDGE('',*,*,#541,.F.);
#543=ORIENTED_EDGE('',*,*,#525,.T.);
#544=CARTESIAN_POINT('',(-6.897537025,5.652725146,216.821931382));
#545=VERTEX_POINT('',#544);
#546=CARTESIAN_POINT('',(-5.647537025,5.652725146,216.821931382));
#547=DIRECTION('',(-0.,-0.,1.));
#548=DIRECTION('',(-1.,0.,0.));
#549=AXIS2_PLACEMENT_3D('',#546,#547,#548);
#550=CIRCLE('',#549,1.25);
#551=EDGE_CURVE('',#545,#520,#550,.T.);
#552=ORIENTED_EDGE('',*,*,#551,.F.);
#553=CARTESIAN_POINT('',(-5.647537025,5.652725146,216.821931382));
#554=DIRECTION('',(-0.,-0.,1.));
#555=DIRECTION('',(-1.,0.,0.));
#556=AXIS2_PLACEMENT_3D('',#553,#554,#555);
#557=CIRCLE('',#556,1.25);
#558=EDGE_CURVE('',#520,#545,#557,.T.);
#559=ORIENTED_EDGE('',*,*,#558,.F.);
#560=EDGE_LOOP('',(#526,#535,#542,#543,#552,#559));
#561=FACE_BOUND('',#560,.T.);
#562=ADVANCED_FACE('',(#561),#516,.F.);
#563=CARTESIAN_POINT('',(0.009317224,-0.004129103,217.821931382));
#564=DIRECTION('',(0.,0.,1.));
#565=DIRECTION('',(-1.,0.,0.));
#566=AXIS2_PLACEMENT_3D('',#563,#564,#565);
#567=CYLINDRICAL_SURFACE('',#566,10.5);
#568=CARTESIAN_POINT('',(-10.490682776,-0.004129103,218.821931382));
#569=VERTEX_POINT('',#568);
#570=CARTESIAN_POINT('',(-10.490682776,-0.004129103,216.821931382));
#571=VERTEX_POINT('',#570);
#572=CARTESIAN_POINT('',(-10.490682776,-0.004129103,218.821931382));
#573=DIRECTION('',(-0.,-0.,-1.));
#574=VECTOR('',#573,2.);
#575=LINE('',#572,#574);
#576=EDGE_CURVE('',#569,#571,#575,.T.);
#577=ORIENTED_EDGE('',*,*,#576,.T.);
#578=CARTESIAN_POINT('',(0.009317224,-0.004129103,216.821931382));
#579=DIRECTION('',(-0.,-0.,1.));
#580=DIRECTION('',(-1.,0.,0.));
#581=AXIS2_PLACEMENT_3D('',#578,#579,#580);
#582=CIRCLE('',#581,10.5);
#583=EDGE_CURVE('',#571,#571,#582,.T.);
#584=ORIENTED_EDGE('',*,*,#583,.T.);
#585=ORIENTED_EDGE('',*,*,#576,.F.);
#586=CARTESIAN_POINT('',(10.509317224,-0.004129103,218.821931382));
#587=VERTEX_POINT('',#586);
#588=CARTESIAN_POINT('',(0.009317224,-0.004129103,218.821931382));
#589=DIRECTION('',(-0.,-0.,-1.));
#590=DIRECTION('',(1.,0.,-0.));
#591=AXIS2_PLACEMENT_3D('',#588,#589,#590);
#592=CIRCLE('',#591,10.5);
#593=EDGE_CURVE('',#569,#587,#592,.T.);
#594=ORIENTED_EDGE('',*,*,#593,.T.);
#595=CARTESIAN_POINT('',(0.009317224,-0.004129103,218.821931382));
#596=DIRECTION('',(-0.,-0.,-1.));
#597=DIRECTION('',(1.,0.,-0.));
#598=AXIS2_PLACEMENT_3D('',#595,#596,#597);
#599=CIRCLE('',#598,10.5);
#600=EDGE_CURVE('',#587,#569,#599,.T.);
#601=ORIENTED_EDGE('',*,*,#600,.T.);
#602=EDGE_LOOP('',(#577,#584,#585,#594,#601));
#603=FACE_BOUND('',#602,.T.);
#604=ADVANCED_FACE('',(#603),#567,.T.);
#605=CARTESIAN_POINT('',(-9.740682776,-0.004129103,216.821931382));
#606=DIRECTION('',(0.,0.,-1.));
#607=DIRECTION('',(0.,-1.,0.));
#608=AXIS2_PLACEMENT_3D('',#605,#606,#607);
#609=PLANE('',#608);
#610=CARTESIAN_POINT('',(-4.790682775,-0.004129103,216.821931382));
#611=VERTEX_POINT('',#610);
#612=CARTESIAN_POINT('',(0.009317224,-4.804129102,216.821931382));
#613=VERTEX_POINT('',#612);
#614=CARTESIAN_POINT('',(0.009317224,-0.004129103,216.821931382));
#615=DIRECTION('',(-0.,-0.,1.));
#616=DIRECTION('',(-1.,0.,0.));
#617=AXIS2_PLACEMENT_3D('',#614,#615,#616);
#618=CIRCLE('',#617,4.799999999);
#619=EDGE_CURVE('',#611,#613,#618,.T.);
#620=ORIENTED_EDGE('',*,*,#619,.T.);
#621=CARTESIAN_POINT('',(0.009317224,-0.004129103,216.821931382));
#622=DIRECTION('',(-0.,-0.,1.));
#623=DIRECTION('',(-1.,0.,0.));
#624=AXIS2_PLACEMENT_3D('',#621,#622,#623);
#625=CIRCLE('',#624,4.799999999);
#626=EDGE_CURVE('',#613,#611,#625,.T.);
#627=ORIENTED_EDGE('',*,*,#626,.T.);
#628=EDGE_LOOP('',(#620,#627));
#629=FACE_BOUND('',#628,.T.);
#630=ORIENTED_EDGE('',*,*,#583,.F.);
#631=EDGE_LOOP('',(#630));
#632=FACE_BOUND('',#631,.T.);
#633=ORIENTED_EDGE('',*,*,#551,.T.);
#634=ORIENTED_EDGE('',*,*,#558,.T.);
#635=EDGE_LOOP('',(#633,#634));
#636=FACE_BOUND('',#635,.T.);
#637=ORIENTED_EDGE('',*,*,#500,.T.);
#638=ORIENTED_EDGE('',*,*,#507,.T.);
#639=EDGE_LOOP('',(#637,#638));
#640=FACE_BOUND('',#639,.T.);
#641=ORIENTED_EDGE('',*,*,#458,.T.);
#642=ORIENTED_EDGE('',*,*,#465,.T.);
#643=EDGE_LOOP('',(#641,#642));
#644=FACE_BOUND('',#643,.T.);
#645=ORIENTED_EDGE('',*,*,#407,.T.);
#646=ORIENTED_EDGE('',*,*,#414,.T.);
#647=EDGE_LOOP('',(#645,#646));
#648=FACE_BOUND('',#647,.T.);
#649=ORIENTED_EDGE('',*,*,#356,.T.);
#650=ORIENTED_EDGE('',*,*,#363,.T.);
#651=EDGE_LOOP('',(#649,#650));
#652=FACE_BOUND('',#651,.T.);
#653=ORIENTED_EDGE('',*,*,#312,.T.);
#654=EDGE_LOOP('',(#653));
#655=FACE_BOUND('',#654,.T.);
#656=ORIENTED_EDGE('',*,*,#263,.T.);
#657=ORIENTED_EDGE('',*,*,#270,.T.);
#658=EDGE_LOOP('',(#656,#657));
#659=FACE_BOUND('',#658,.T.);
#660=ORIENTED_EDGE('',*,*,#212,.T.);
#661=ORIENTED_EDGE('',*,*,#219,.T.);
#662=EDGE_LOOP('',(#660,#661));
#663=FACE_BOUND('',#662,.T.);
#664=ADVANCED_FACE('',(#629,#632,#636,#640,#644,#648,#652,#655,#659,#663),#609,.T.);
#665=CARTESIAN_POINT('',(0.009317224,-0.004129103,219.321931382));
#666=DIRECTION('',(0.,0.,-1.));
#667=DIRECTION('',(0.,-1.,0.));
#668=AXIS2_PLACEMENT_3D('',#665,#666,#667);
#669=CYLINDRICAL_SURFACE('',#668,4.5);
#670=CARTESIAN_POINT('',(0.009317224,-4.504129103,217.121931382));
#671=VERTEX_POINT('',#670);
#672=CARTESIAN_POINT('',(0.009317224,-4.504129103,219.221931382));
#673=VERTEX_POINT('',#672);
#674=CARTESIAN_POINT('',(0.009317224,-4.504129103,217.121931382));
#675=DIRECTION('',(-0.,-0.,1.));
#676=VECTOR('',#675,2.1);
#677=LINE('',#674,#676);
#678=EDGE_CURVE('',#671,#673,#677,.T.);
#679=ORIENTED_EDGE('',*,*,#678,.F.);
#680=CARTESIAN_POINT('',(-4.490682776,-0.004129103,217.121931382));
#681=VERTEX_POINT('',#680);
#682=CARTESIAN_POINT('',(0.009317224,-0.004129103,217.121931382));
#683=DIRECTION('',(0.,0.,-1.));
#684=DIRECTION('',(-1.,0.,0.));
#685=AXIS2_PLACEMENT_3D('',#682,#683,#684);
#686=CIRCLE('',#685,4.5);
#687=EDGE_CURVE('',#671,#681,#686,.T.);
#688=ORIENTED_EDGE('',*,*,#687,.T.);
#689=CARTESIAN_POINT('',(0.009317224,-0.004129103,217.121931382));
#690=DIRECTION('',(0.,0.,-1.));
#691=DIRECTION('',(-1.,0.,0.));
#692=AXIS2_PLACEMENT_3D('',#689,#690,#691);
#693=CIRCLE('',#692,4.5);
#694=EDGE_CURVE('',#681,#671,#693,.T.);
#695=ORIENTED_EDGE('',*,*,#694,.T.);
#696=ORIENTED_EDGE('',*,*,#678,.T.);
#697=CARTESIAN_POINT('',(-4.490682776,-0.004129103,219.221931382));
#698=VERTEX_POINT('',#697);
#699=CARTESIAN_POINT('',(0.009317224,-0.004129103,219.221931382));
#700=DIRECTION('',(-0.,-0.,1.));
#701=DIRECTION('',(-1.,0.,0.));
#702=AXIS2_PLACEMENT_3D('',#699,#700,#701);
#703=CIRCLE('',#702,4.5);
#704=EDGE_CURVE('',#673,#698,#703,.T.);
#705=ORIENTED_EDGE('',*,*,#704,.T.);
#706=CARTESIAN_POINT('',(0.009317224,-0.004129103,219.221931382));
#707=DIRECTION('',(-0.,-0.,1.));
#708=DIRECTION('',(-1.,0.,0.));
#709=AXIS2_PLACEMENT_3D('',#706,#707,#708);
#710=CIRCLE('',#709,4.5);
#711=EDGE_CURVE('',#698,#673,#710,.T.);
#712=ORIENTED_EDGE('',*,*,#711,.T.);
#713=EDGE_LOOP('',(#679,#688,#695,#696,#705,#712));
#714=FACE_BOUND('',#713,.T.);
#715=ADVANCED_FACE('',(#714),#669,.F.);
#716=CARTESIAN_POINT('',(-4.990682776,-0.004129103,218.821931382));
#717=DIRECTION('',(0.,0.,1.));
#718=DIRECTION('',(0.,1.,0.));
#719=AXIS2_PLACEMENT_3D('',#716,#717,#718);
#720=PLANE('',#719);
#721=ORIENTED_EDGE('',*,*,#534,.T.);
#722=ORIENTED_EDGE('',*,*,#541,.T.);
#723=EDGE_LOOP('',(#721,#722));
#724=FACE_BOUND('',#723,.T.);
#725=ORIENTED_EDGE('',*,*,#490,.T.);
#726=EDGE_LOOP('',(#725));
#727=FACE_BOUND('',#726,.T.);
#728=ORIENTED_EDGE('',*,*,#441,.T.);
#729=ORIENTED_EDGE('',*,*,#448,.T.);
#730=EDGE_LOOP('',(#728,#729));
#731=FACE_BOUND('',#730,.T.);
#732=ORIENTED_EDGE('',*,*,#390,.T.);
#733=ORIENTED_EDGE('',*,*,#397,.T.);
#734=EDGE_LOOP('',(#732,#733));
#735=FACE_BOUND('',#734,.T.);
#736=ORIENTED_EDGE('',*,*,#339,.T.);
#737=ORIENTED_EDGE('',*,*,#346,.T.);
#738=EDGE_LOOP('',(#736,#737));
#739=FACE_BOUND('',#738,.T.);
#740=ORIENTED_EDGE('',*,*,#297,.T.);
#741=ORIENTED_EDGE('',*,*,#304,.T.);
#742=EDGE_LOOP('',(#740,#741));
#743=FACE_BOUND('',#742,.T.);
#744=ORIENTED_EDGE('',*,*,#246,.T.);
#745=ORIENTED_EDGE('',*,*,#253,.T.);
#746=EDGE_LOOP('',(#744,#745));
#747=FACE_BOUND('',#746,.T.);
#748=ORIENTED_EDGE('',*,*,#593,.F.);
#749=ORIENTED_EDGE('',*,*,#600,.F.);
#750=EDGE_LOOP('',(#748,#749));
#751=FACE_BOUND('',#750,.T.);
#752=ORIENTED_EDGE('',*,*,#195,.T.);
#753=ORIENTED_EDGE('',*,*,#202,.T.);
#754=EDGE_LOOP('',(#752,#753));
#755=FACE_BOUND('',#754,.T.);
#756=CARTESIAN_POINT('',(-5.990682776,-0.004129103,218.821931382));
#757=VERTEX_POINT('',#756);
#758=CARTESIAN_POINT('',(6.009317224,-0.004129103,218.821931382));
#759=VERTEX_POINT('',#758);
#760=CARTESIAN_POINT('',(0.009317224,-0.004129103,218.821931382));
#761=DIRECTION('',(0.,0.,1.));
#762=DIRECTION('',(1.,0.,-0.));
#763=AXIS2_PLACEMENT_3D('',#760,#761,#762);
#764=CIRCLE('',#763,6.);
#765=EDGE_CURVE('',#757,#759,#764,.T.);
#766=ORIENTED_EDGE('',*,*,#765,.F.);
#767=CARTESIAN_POINT('',(0.009317224,-0.004129103,218.821931382));
#768=DIRECTION('',(0.,0.,1.));
#769=DIRECTION('',(1.,0.,-0.));
#770=AXIS2_PLACEMENT_3D('',#767,#768,#769);
#771=CIRCLE('',#770,6.);
#772=EDGE_CURVE('',#759,#757,#771,.T.);
#773=ORIENTED_EDGE('',*,*,#772,.F.);
#774=EDGE_LOOP('',(#766,#773));
#775=FACE_BOUND('',#774,.T.);
#776=ADVANCED_FACE('',(#724,#727,#731,#735,#739,#743,#747,#751,#755,#775),#720,.T.);
#777=CARTESIAN_POINT('',(0.009317224,-0.004129103,217.321931382));
#778=DIRECTION('',(0.,0.,-1.));
#779=DIRECTION('',(0.,-1.,0.));
#780=AXIS2_PLACEMENT_3D('',#777,#778,#779);
#781=CONICAL_SURFACE('',#780,4.3,44.999999949);
#782=CARTESIAN_POINT('',(0.009317224,-4.804129102,216.821931382));
#783=DIRECTION('',(-0.,0.707106781,0.707106782));
#784=VECTOR('',#783,0.424264068);
#785=LINE('',#782,#784);
#786=EDGE_CURVE('',#613,#671,#785,.T.);
#787=ORIENTED_EDGE('',*,*,#786,.F.);
#788=ORIENTED_EDGE('',*,*,#619,.F.);
#789=ORIENTED_EDGE('',*,*,#626,.F.);
#790=ORIENTED_EDGE('',*,*,#786,.T.);
#791=ORIENTED_EDGE('',*,*,#694,.F.);
#792=ORIENTED_EDGE('',*,*,#687,.F.);
#793=EDGE_LOOP('',(#787,#788,#789,#790,#791,#792));
#794=FACE_BOUND('',#793,.T.);
#795=ADVANCED_FACE('',(#794),#781,.F.);
#796=CARTESIAN_POINT('',(139.318049687,-29.313682528,219.221931382));
#797=DIRECTION('',(0.,0.,-1.));
#798=DIRECTION('',(0.,-1.,0.));
#799=AXIS2_PLACEMENT_3D('',#796,#797,#798);
#800=PLANE('',#799);
#801=CARTESIAN_POINT('',(-2.490682776,-0.004129103,219.221931382));
#802=VERTEX_POINT('',#801);
#803=CARTESIAN_POINT('',(0.009317224,-0.004129103,219.221931382));
#804=DIRECTION('',(0.,0.,-1.));
#805=DIRECTION('',(-1.,0.,0.));
#806=AXIS2_PLACEMENT_3D('',#803,#804,#805);
#807=CIRCLE('',#806,2.5);
#808=EDGE_CURVE('',#802,#802,#807,.T.);
#809=ORIENTED_EDGE('',*,*,#808,.F.);
#810=EDGE_LOOP('',(#809));
#811=FACE_BOUND('',#810,.T.);
#812=ORIENTED_EDGE('',*,*,#704,.F.);
#813=ORIENTED_EDGE('',*,*,#711,.F.);
#814=EDGE_LOOP('',(#812,#813));
#815=FACE_BOUND('',#814,.T.);
#816=ADVANCED_FACE('',(#811,#815),#800,.T.);
#817=CARTESIAN_POINT('',(0.009317224,-0.004129103,224.521931382));
#818=DIRECTION('',(0.,0.,-1.));
#819=DIRECTION('',(-1.,0.,0.));
#820=AXIS2_PLACEMENT_3D('',#817,#818,#819);
#821=CYLINDRICAL_SURFACE('',#820,6.);
#822=CARTESIAN_POINT('',(-5.990682776,-0.004129103,226.521931382));
#823=VERTEX_POINT('',#822);
#824=CARTESIAN_POINT('',(-5.990682776,-0.004129103,218.821931382));
#825=DIRECTION('',(-0.,-0.,1.));
#826=VECTOR('',#825,7.7);
#827=LINE('',#824,#826);
#828=EDGE_CURVE('',#757,#823,#827,.T.);
#829=ORIENTED_EDGE('',*,*,#828,.T.);
#830=CARTESIAN_POINT('',(6.009317224,-0.004129103,226.521931382));
#831=VERTEX_POINT('',#830);
#832=CARTESIAN_POINT('',(0.009317224,-0.004129103,226.521931382));
#833=DIRECTION('',(-0.,-0.,-1.));
#834=DIRECTION('',(1.,0.,-0.));
#835=AXIS2_PLACEMENT_3D('',#832,#833,#834);
#836=CIRCLE('',#835,6.);
#837=EDGE_CURVE('',#823,#831,#836,.T.);
#838=ORIENTED_EDGE('',*,*,#837,.T.);
#839=CARTESIAN_POINT('',(0.009317224,-0.004129103,226.521931382));
#840=DIRECTION('',(-0.,-0.,-1.));
#841=DIRECTION('',(1.,0.,-0.));
#842=AXIS2_PLACEMENT_3D('',#839,#840,#841);
#843=CIRCLE('',#842,6.);
#844=EDGE_CURVE('',#831,#823,#843,.T.);
#845=ORIENTED_EDGE('',*,*,#844,.T.);
#846=ORIENTED_EDGE('',*,*,#828,.F.);
#847=ORIENTED_EDGE('',*,*,#765,.T.);
#848=ORIENTED_EDGE('',*,*,#772,.T.);
#849=EDGE_LOOP('',(#829,#838,#845,#846,#847,#848));
#850=FACE_BOUND('',#849,.T.);
#851=ADVANCED_FACE('',(#850),#821,.T.);
#852=CARTESIAN_POINT('',(-1.990682776,-0.004129103,235.521931382));
#853=DIRECTION('',(-1.,0.,0.));
#854=DIRECTION('',(0.,0.,1.));
#855=AXIS2_PLACEMENT_3D('',#852,#853,#854);
#856=PLANE('',#855);
#857=CARTESIAN_POINT('',(-1.990682776,-2.24019708,234.521931382));
#858=VERTEX_POINT('',#857);
#859=CARTESIAN_POINT('',(-1.990682776,-0.004129103,235.521931382));
#860=VERTEX_POINT('',#859);
#861=CARTESIAN_POINT('',(-1.990682776,-2.24019708,234.521931382));
#862=CARTESIAN_POINT('',(-1.990682776,-2.073674087,234.646050293));
#863=CARTESIAN_POINT('',(-1.990682776,-1.904750281,234.765984319));
#864=CARTESIAN_POINT('',(-1.990682776,-1.731860735,234.879005618));
#865=CARTESIAN_POINT('',(-1.990682776,-1.558971188,234.992026917));
#866=CARTESIAN_POINT('',(-1.990682776,-1.382188369,235.098261808));
#867=CARTESIAN_POINT('',(-1.990682776,-1.198492116,235.192445815));
#868=CARTESIAN_POINT('',(-1.990682776,-1.10664399,235.239537818));
#869=CARTESIAN_POINT('',(-1.990682776,-1.013039033,235.283567471));
#870=CARTESIAN_POINT('',(-1.990682776,-0.917043001,235.323429213));
#871=CARTESIAN_POINT('',(-1.990682776,-0.82104697,235.363290956));
#872=CARTESIAN_POINT('',(-1.990682776,-0.721966579,235.399182318));
#873=CARTESIAN_POINT('',(-1.990682776,-0.621477036,235.428819233));
#874=CARTESIAN_POINT('',(-1.990682776,-0.420497949,235.488093063));
#875=CARTESIAN_POINT('',(-1.990682776,-0.215191797,235.521931382));
#876=CARTESIAN_POINT('',(-1.990682776,-0.004129103,235.521931382));
#877=B_SPLINE_CURVE_WITH_KNOTS('',3,(#861,#862,#863,#864,#865,#866,#867,#868,#869,#870,#871,#872,#873,#874,#875,#876),.UNSPECIFIED.,.F.,.F.,(4,3,3,3,3,4),(0.,0.000618615,0.001237231,0.001546539,0.001855846,0.002474462),.UNSPECIFIED.);
#878=EDGE_CURVE('',#858,#860,#877,.T.);
#879=ORIENTED_EDGE('',*,*,#878,.T.);
#880=CARTESIAN_POINT('',(-1.990682776,2.231938874,234.521931382));
#881=VERTEX_POINT('',#880);
#882=CARTESIAN_POINT('',(-1.990682776,-0.004129103,235.521931382));
#883=CARTESIAN_POINT('',(-1.990682776,0.206880821,235.521931382));
#884=CARTESIAN_POINT('',(-1.990682776,0.412015983,235.488116306));
#885=CARTESIAN_POINT('',(-1.990682776,0.612748213,235.42895799));
#886=CARTESIAN_POINT('',(-1.990682776,0.713114328,235.399378832));
#887=CARTESIAN_POINT('',(-1.990682776,0.812289256,235.363482574));
#888=CARTESIAN_POINT('',(-1.990682776,0.908348966,235.323610153));
#889=CARTESIAN_POINT('',(-1.990682776,1.004408675,235.283737732));
#890=CARTESIAN_POINT('',(-1.990682776,1.098065064,235.239694177));
#891=CARTESIAN_POINT('',(-1.990682776,1.189956774,235.192587895));
#892=CARTESIAN_POINT('',(-1.990682776,1.373740193,235.098375331));
#893=CARTESIAN_POINT('',(-1.990682776,1.5505795,234.992110766));
#894=CARTESIAN_POINT('',(-1.990682776,1.723511639,234.879065034));
#895=CARTESIAN_POINT('',(-1.990682776,1.896443779,234.766019302));
#896=CARTESIAN_POINT('',(-1.990682776,2.065395586,234.64606542));
#897=CARTESIAN_POINT('',(-1.990682776,2.231938874,234.521931382));
#898=B_SPLINE_CURVE_WITH_KNOTS('',3,(#882,#883,#884,#885,#886,#887,#888,#889,#890,#891,#892,#893,#894,#895,#896,#897),.UNSPECIFIED.,.F.,.F.,(4,3,3,3,3,4),(0.,0.000623687,0.000935531,0.001247375,0.001871062,0.00249475),.UNSPECIFIED.);
#899=EDGE_CURVE('',#860,#881,#898,.T.);
#900=ORIENTED_EDGE('',*,*,#899,.T.);
#901=CARTESIAN_POINT('',(-1.990682776,2.231938874,234.521931382));
#902=DIRECTION('',(0.,0.,-1.));
#903=VECTOR('',#902,7.);
#904=LINE('',#901,#903);
#905=EDGE_CURVE('',#881,#148,#904,.T.);
#906=ORIENTED_EDGE('',*,*,#905,.T.);
#907=ORIENTED_EDGE('',*,*,#153,.F.);
#908=CARTESIAN_POINT('',(-1.990682776,-2.24019708,234.521931382));
#909=DIRECTION('',(0.,0.,-1.));
#910=VECTOR('',#909,7.);
#911=LINE('',#908,#910);
#912=EDGE_CURVE('',#858,#137,#911,.T.);
#913=ORIENTED_EDGE('',*,*,#912,.F.);
#914=EDGE_LOOP('',(#879,#900,#906,#907,#913));
#915=FACE_BOUND('',#914,.T.);
#916=ADVANCED_FACE('',(#915),#856,.T.);
#917=CARTESIAN_POINT('',(0.009317224,-0.004129103,235.521931382));
#918=DIRECTION('',(0.,0.,-1.));
#919=DIRECTION('',(-1.,0.,0.));
#920=AXIS2_PLACEMENT_3D('',#917,#918,#919);
#921=CYLINDRICAL_SURFACE('',#920,3.);
#922=CARTESIAN_POINT('',(2.009317224,-2.24019708,234.521931382));
#923=VERTEX_POINT('',#922);
#924=CARTESIAN_POINT('',(2.009317224,-2.24019708,234.521931382));
#925=DIRECTION('',(0.,0.,-1.));
#926=VECTOR('',#925,7.);
#927=LINE('',#924,#926);
#928=EDGE_CURVE('',#923,#139,#927,.T.);
#929=ORIENTED_EDGE('',*,*,#928,.F.);
#930=CARTESIAN_POINT('',(0.009317224,-0.004129103,234.521931382));
#931=DIRECTION('',(-0.,-0.,-1.));
#932=DIRECTION('',(1.,0.,-0.));
#933=AXIS2_PLACEMENT_3D('',#930,#931,#932);
#934=CIRCLE('',#933,3.);
#935=EDGE_CURVE('',#923,#858,#934,.T.);
#936=ORIENTED_EDGE('',*,*,#935,.T.);
#937=ORIENTED_EDGE('',*,*,#912,.T.);
#938=ORIENTED_EDGE('',*,*,#145,.T.);
#939=EDGE_LOOP('',(#929,#936,#937,#938));
#940=FACE_BOUND('',#939,.T.);
#941=ADVANCED_FACE('',(#940),#921,.T.);
#942=CARTESIAN_POINT('',(2.009317224,-0.004129103,235.521931382));
#943=DIRECTION('',(-1.,0.,0.));
#944=DIRECTION('',(0.,0.,1.));
#945=AXIS2_PLACEMENT_3D('',#942,#943,#944);
#946=PLANE('',#945);
#947=CARTESIAN_POINT('',(2.009317224,2.231938874,234.521931382));
#948=VERTEX_POINT('',#947);
#949=CARTESIAN_POINT('',(2.009317224,2.231938874,234.521931382));
#950=DIRECTION('',(0.,0.,-1.));
#951=VECTOR('',#950,7.);
#952=LINE('',#949,#951);
#953=EDGE_CURVE('',#948,#156,#952,.T.);
#954=ORIENTED_EDGE('',*,*,#953,.F.);
#955=CARTESIAN_POINT('',(2.009317224,-0.004129103,235.521931382));
#956=VERTEX_POINT('',#955);
#957=CARTESIAN_POINT('',(2.009317224,2.231938874,234.521931382));
#958=CARTESIAN_POINT('',(2.009317224,2.065415881,234.646050293));
#959=CARTESIAN_POINT('',(2.009317224,1.896492075,234.765984319));
#960=CARTESIAN_POINT('',(2.009317224,1.723602529,234.879005618));
#961=CARTESIAN_POINT('',(2.009317224,1.550712982,234.992026917));
#962=CARTESIAN_POINT('',(2.009317224,1.373930163,235.098261808));
#963=CARTESIAN_POINT('',(2.009317224,1.19023391,235.192445815));
#964=CARTESIAN_POINT('',(2.009317224,1.098385784,235.239537818));
#965=CARTESIAN_POINT('',(2.009317224,1.004780827,235.283567471));
#966=CARTESIAN_POINT('',(2.009317224,0.908784795,235.323429213));
#967=CARTESIAN_POINT('',(2.009317224,0.812788764,235.363290956));
#968=CARTESIAN_POINT('',(2.009317224,0.713708373,235.399182318));
#969=CARTESIAN_POINT('',(2.009317224,0.61321883,235.428819233));
#970=CARTESIAN_POINT('',(2.009317224,0.412239743,235.488093063));
#971=CARTESIAN_POINT('',(2.009317224,0.206933591,235.521931382));
#972=CARTESIAN_POINT('',(2.009317224,-0.004129103,235.521931382));
#973=B_SPLINE_CURVE_WITH_KNOTS('',3,(#957,#958,#959,#960,#961,#962,#963,#964,#965,#966,#967,#968,#969,#970,#971,#972),.UNSPECIFIED.,.F.,.F.,(4,3,3,3,3,4),(0.,0.000618615,0.001237231,0.001546539,0.001855846,0.002474462),.UNSPECIFIED.);
#974=EDGE_CURVE('',#948,#956,#973,.T.);
#975=ORIENTED_EDGE('',*,*,#974,.T.);
#976=CARTESIAN_POINT('',(2.009317224,-0.004129103,235.521931382));
#977=CARTESIAN_POINT('',(2.009317224,-0.215139027,235.521931382));
#978=CARTESIAN_POINT('',(2.009317224,-0.420274189,235.488116306));
#979=CARTESIAN_POINT('',(2.009317224,-0.621006419,235.42895799));
#980=CARTESIAN_POINT('',(2.009317224,-0.721372534,235.399378832));
#981=CARTESIAN_POINT('',(2.009317224,-0.820547462,235.363482574));
#982=CARTESIAN_POINT('',(2.009317224,-0.916607172,235.323610153));
#983=CARTESIAN_POINT('',(2.009317224,-1.012666881,235.283737732));
#984=CARTESIAN_POINT('',(2.009317224,-1.10632327,235.239694177));
#985=CARTESIAN_POINT('',(2.009317224,-1.19821498,235.192587895));
#986=CARTESIAN_POINT('',(2.009317224,-1.381998399,235.098375331));
#987=CARTESIAN_POINT('',(2.009317224,-1.558837706,234.992110766));
#988=CARTESIAN_POINT('',(2.009317224,-1.731769845,234.879065034));
#989=CARTESIAN_POINT('',(2.009317224,-1.904701985,234.766019302));
#990=CARTESIAN_POINT('',(2.009317224,-2.073653792,234.64606542));
#991=CARTESIAN_POINT('',(2.009317224,-2.24019708,234.521931382));
#992=B_SPLINE_CURVE_WITH_KNOTS('',3,(#976,#977,#978,#979,#980,#981,#982,#983,#984,#985,#986,#987,#988,#989,#990,#991),.UNSPECIFIED.,.F.,.F.,(4,3,3,3,3,4),(0.,0.000623687,0.000935531,0.001247375,0.001871062,0.00249475),.UNSPECIFIED.);
#993=EDGE_CURVE('',#956,#923,#992,.T.);
#994=ORIENTED_EDGE('',*,*,#993,.T.);
#995=ORIENTED_EDGE('',*,*,#928,.T.);
#996=ORIENTED_EDGE('',*,*,#168,.T.);
#997=EDGE_LOOP('',(#954,#975,#994,#995,#996));
#998=FACE_BOUND('',#997,.T.);
#999=ADVANCED_FACE('',(#998),#946,.F.);
#1000=CARTESIAN_POINT('',(0.009317224,-0.004129103,235.521931382));
#1001=DIRECTION('',(0.,0.,-1.));
#1002=DIRECTION('',(-1.,0.,0.));
#1003=AXIS2_PLACEMENT_3D('',#1000,#1001,#1002);
#1004=CYLINDRICAL_SURFACE('',#1003,3.);
#1005=ORIENTED_EDGE('',*,*,#905,.F.);
#1006=CARTESIAN_POINT('',(0.009317224,-0.004129103,234.521931382));
#1007=DIRECTION('',(-0.,-0.,-1.));
#1008=DIRECTION('',(1.,0.,-0.));
#1009=AXIS2_PLACEMENT_3D('',#1006,#1007,#1008);
#1010=CIRCLE('',#1009,3.);
#1011=EDGE_CURVE('',#881,#948,#1010,.T.);
#1012=ORIENTED_EDGE('',*,*,#1011,.T.);
#1013=ORIENTED_EDGE('',*,*,#953,.T.);
#1014=ORIENTED_EDGE('',*,*,#162,.T.);
#1015=EDGE_LOOP('',(#1005,#1012,#1013,#1014));
#1016=FACE_BOUND('',#1015,.T.);
#1017=ADVANCED_FACE('',(#1016),#1004,.T.);
#1018=CARTESIAN_POINT('',(0.,0.,235.521931382));
#1019=DIRECTION('',(0.,0.,1.));
#1020=DIRECTION('',(1.,0.,0.));
#1021=AXIS2_PLACEMENT_3D('',#1018,#1019,#1020);
#1022=PLANE('',#1021);
#1023=CARTESIAN_POINT('',(0.009317224,-0.004129103,235.521931382));
#1024=DIRECTION('',(0.,0.,1.));
#1025=DIRECTION('',(1.,0.,-0.));
#1026=AXIS2_PLACEMENT_3D('',#1023,#1024,#1025);
#1027=CIRCLE('',#1026,2.);
#1028=EDGE_CURVE('',#860,#956,#1027,.T.);
#1029=ORIENTED_EDGE('',*,*,#1028,.T.);
#1030=CARTESIAN_POINT('',(0.009317224,-0.004129103,235.521931382));
#1031=DIRECTION('',(0.,0.,1.));
#1032=DIRECTION('',(1.,0.,-0.));
#1033=AXIS2_PLACEMENT_3D('',#1030,#1031,#1032);
#1034=CIRCLE('',#1033,2.);
#1035=EDGE_CURVE('',#956,#860,#1034,.T.);
#1036=ORIENTED_EDGE('',*,*,#1035,.T.);
#1037=EDGE_LOOP('',(#1029,#1036));
#1038=FACE_BOUND('',#1037,.T.);
#1039=ADVANCED_FACE('',(#1038),#1022,.T.);
#1040=CARTESIAN_POINT('',(0.009317224,-0.004129103,222.421931382));
#1041=DIRECTION('',(0.,0.,-1.));
#1042=DIRECTION('',(-1.,0.,0.));
#1043=AXIS2_PLACEMENT_3D('',#1040,#1041,#1042);
#1044=CYLINDRICAL_SURFACE('',#1043,2.5);
#1045=CARTESIAN_POINT('',(-2.490682776,-0.004129103,222.421931382));
#1046=VERTEX_POINT('',#1045);
#1047=CARTESIAN_POINT('',(-2.490682776,-0.004129103,219.221931382));
#1048=DIRECTION('',(-0.,-0.,1.));
#1049=VECTOR('',#1048,3.2);
#1050=LINE('',#1047,#1049);
#1051=EDGE_CURVE('',#802,#1046,#1050,.T.);
#1052=ORIENTED_EDGE('',*,*,#1051,.F.);
#1053=ORIENTED_EDGE('',*,*,#808,.T.);
#1054=ORIENTED_EDGE('',*,*,#1051,.T.);
#1055=CARTESIAN_POINT('',(0.009317224,-0.004129103,222.421931382));
#1056=DIRECTION('',(0.,0.,-1.));
#1057=DIRECTION('',(-1.,0.,0.));
#1058=AXIS2_PLACEMENT_3D('',#1055,#1056,#1057);
#1059=CIRCLE('',#1058,2.5);
#1060=EDGE_CURVE('',#1046,#1046,#1059,.T.);
#1061=ORIENTED_EDGE('',*,*,#1060,.F.);
#1062=EDGE_LOOP('',(#1052,#1053,#1054,#1061));
#1063=FACE_BOUND('',#1062,.T.);
#1064=ADVANCED_FACE('',(#1063),#1044,.F.);
#1065=CARTESIAN_POINT('',(0.,0.,222.421931382));
#1066=DIRECTION('',(0.,0.,-1.));
#1067=DIRECTION('',(-1.,0.,0.));
#1068=AXIS2_PLACEMENT_3D('',#1065,#1066,#1067);
#1069=PLANE('',#1068);
#1070=ORIENTED_EDGE('',*,*,#1060,.T.);
#1071=EDGE_LOOP('',(#1070));
#1072=FACE_BOUND('',#1071,.T.);
#1073=ADVANCED_FACE('',(#1072),#1069,.T.);
#1074=CARTESIAN_POINT('',(0.009317224,-0.004129103,235.521931382));
#1075=DIRECTION('',(0.,0.,-1.));
#1076=DIRECTION('',(-1.,0.,0.));
#1077=AXIS2_PLACEMENT_3D('',#1074,#1075,#1076);
#1078=CONICAL_SURFACE('',#1077,2.,45.);
#1079=ORIENTED_EDGE('',*,*,#974,.F.);
#1080=ORIENTED_EDGE('',*,*,#1011,.F.);
#1081=ORIENTED_EDGE('',*,*,#899,.F.);
#1082=ORIENTED_EDGE('',*,*,#1035,.F.);
#1083=EDGE_LOOP('',(#1079,#1080,#1081,#1082));
#1084=FACE_BOUND('',#1083,.T.);
#1085=ADVANCED_FACE('',(#1084),#1078,.T.);
#1086=CARTESIAN_POINT('',(0.009317224,-0.004129103,235.521931382));
#1087=DIRECTION('',(0.,0.,-1.));
#1088=DIRECTION('',(-1.,0.,0.));
#1089=AXIS2_PLACEMENT_3D('',#1086,#1087,#1088);
#1090=CONICAL_SURFACE('',#1089,2.,45.);
#1091=ORIENTED_EDGE('',*,*,#878,.F.);
#1092=ORIENTED_EDGE('',*,*,#935,.F.);
#1093=ORIENTED_EDGE('',*,*,#993,.F.);
#1094=ORIENTED_EDGE('',*,*,#1028,.F.);
#1095=EDGE_LOOP('',(#1091,#1092,#1093,#1094));
#1096=FACE_BOUND('',#1095,.T.);
#1097=ADVANCED_FACE('',(#1096),#1090,.T.);
#1098=CARTESIAN_POINT('',(0.009317224,-0.004129103,227.521931382));
#1099=DIRECTION('',(0.,0.,-1.));
#1100=DIRECTION('',(-1.,0.,0.));
#1101=AXIS2_PLACEMENT_3D('',#1098,#1099,#1100);
#1102=CONICAL_SURFACE('',#1101,5.,45.);
#1103=CARTESIAN_POINT('',(-5.990682776,-0.004129103,226.521931382));
#1104=DIRECTION('',(0.707106781,-0.,0.707106781));
#1105=VECTOR('',#1104,1.414213562);
#1106=LINE('',#1103,#1105);
#1107=EDGE_CURVE('',#823,#119,#1106,.T.);
#1108=ORIENTED_EDGE('',*,*,#1107,.T.);
#1109=ORIENTED_EDGE('',*,*,#125,.F.);
#1110=ORIENTED_EDGE('',*,*,#132,.F.);
#1111=ORIENTED_EDGE('',*,*,#1107,.F.);
#1112=ORIENTED_EDGE('',*,*,#844,.F.);
#1113=ORIENTED_EDGE('',*,*,#837,.F.);
#1114=EDGE_LOOP('',(#1108,#1109,#1110,#1111,#1112,#1113));
#1115=FACE_BOUND('',#1114,.T.);
#1116=ADVANCED_FACE('',(#1115),#1102,.T.);
#1117=CLOSED_SHELL('',(#172,#223,#274,#316,#367,#418,#469,#511,#562,#604,#664,#715,#776,#795,#816,#851,#916,#941,#999,#1017,#1039,#1064,#1073,#1085,#1097,#1116));
#1118=MANIFOLD_SOLID_BREP('Motor_Axis',#1117);
#1119=COLOUR_RGB('',0.627451003,0.627451003,0.643137276);
#1120=FILL_AREA_STYLE_COLOUR('',#1119);
#1121=FILL_AREA_STYLE('',(#1120));
#1122=SURFACE_STYLE_FILL_AREA(#1121);
#1123=SURFACE_SIDE_STYLE('',(#1122));
#1124=SURFACE_STYLE_USAGE(.BOTH.,#1123);
#1125=PRESENTATION_STYLE_ASSIGNMENT((#1124));
#110=STYLED_ITEM('',(#1125),#1118);
#91=SHAPE_REPRESENTATION('Planetary_Gearbox',(#15),#89);
#92=ADVANCED_BREP_SHAPE_REPRESENTATION('Planetary_Gearbox',(#1118),#89);
#1133=SHAPE_REPRESENTATION_RELATIONSHIP('','',#91,#92);
#1134=CARTESIAN_POINT('',(0.,0.,0.));
#1135=DIRECTION('',(0.,0.,1.));
#1136=DIRECTION('',(1.,0.,0.));
#1137=AXIS2_PLACEMENT_3D('',#1134,#1135,#1136);
#1139=MAPPED_ITEM('',#1138,#1137);
#1138=REPRESENTATION_MAP(#1137,#91);
#1140=APPLICATION_CONTEXT('Managed model based 3d engineering');
#1141=APPLICATION_PROTOCOL_DEFINITION('international standard','ap242_managed_model_based_3d_engineering',2014,#1140);
#1142=PRODUCT_CONTEXT('',#1140,'mechanical');
#1143=PRODUCT_DEFINITION_CONTEXT('part definition',#1140,'design');
#99=PRODUCT('Planetary_Gearbox','Planetary_Gearbox','',(#1142));
#1144=PRODUCT_RELATED_PRODUCT_CATEGORY('part','',(#99));
#1145=PRODUCT_DEFINITION_FORMATION_WITH_SPECIFIED_SOURCE('','',#99,.NOT_KNOWN.);
#100=PRODUCT_DEFINITION('design','',#1145,#1143);
#98=PRODUCT_DEFINITION_SHAPE('','',#100);
#1146=SHAPE_DEFINITION_REPRESENTATION(#98,#91);
#90=DRAUGHTING_MODEL('',(#1139),#89);
#63=SHAPE_REPRESENTATION('Lower_Segment',(#15,#104),#61);
#1147=CARTESIAN_POINT('',(0.,0.,0.));
#1148=DIRECTION('',(0.,0.,1.));
#1149=DIRECTION('',(1.,0.,0.));
#1150=AXIS2_PLACEMENT_3D('',#1147,#1148,#1149);
#1152=MAPPED_ITEM('',#1151,#1150);
#1151=REPRESENTATION_MAP(#1150,#63);
#71=PRODUCT('Lower_Segment','Lower_Segment','',(#1142));
#1153=PRODUCT_RELATED_PRODUCT_CATEGORY('part','',(#71));
#1154=PRODUCT_DEFINITION_FORMATION_WITH_SPECIFIED_SOURCE('','',#71,.NOT_KNOWN.);
#72=PRODUCT_DEFINITION('design','',#1154,#1143);
#70=PRODUCT_DEFINITION_SHAPE('','',#72);
#1155=SHAPE_DEFINITION_REPRESENTATION(#70,#63);
#62=DRAUGHTING_MODEL('',(#1152),#61);
#35=SHAPE_REPRESENTATION('RoboticArm.step',(#15,#76),#33);
#1156=CARTESIAN_POINT('',(0.,0.,0.));
#1157=DIRECTION('',(0.,0.,1.));
#1158=DIRECTION('',(1.,0.,0.));
#1159=AXIS2_PLACEMENT_3D('',#1156,#1157,#1158);
#1161=MAPPED_ITEM('',#1160,#1159);
#1160=REPRESENTATION_MAP(#1159,#35);
#43=PRODUCT('RoboticArm.step','RoboticArm.step','',(#1142));
#1162=PRODUCT_RELATED_PRODUCT_CATEGORY('part','',(#43));
#1163=PRODUCT_DEFINITION_FORMATION_WITH_SPECIFIED_SOURCE('','',#43,.NOT_KNOWN.);
#44=PRODUCT_DEFINITION('design','',#1163,#1143);
#42=PRODUCT_DEFINITION_SHAPE('','',#44);
#1164=SHAPE_DEFINITION_REPRESENTATION(#42,#35);
#34=DRAUGHTING_MODEL('',(#1161),#33);
#16=SHAPE_REPRESENTATION('root',(#15,#48),#10);
#1165=CARTESIAN_POINT('',(0.,0.,0.));
#1166=DIRECTION('',(0.,0.,1.));
#1167=DIRECTION('',(1.,0.,0.));
#1168=AXIS2_PLACEMENT_3D('',#1165,#1166,#1167);
#1170=MAPPED_ITEM('',#1169,#1168);
#1169=REPRESENTATION_MAP(#1168,#16);
#24=PRODUCT('root','root','',(#1142));
#1171=PRODUCT_RELATED_PRODUCT_CATEGORY('part','',(#24));
#1172=PRODUCT_DEFINITION_FORMATION_WITH_SPECIFIED_SOURCE('','',#24,.NOT_KNOWN.);
#25=PRODUCT_DEFINITION('design','',#1172,#1143);
#23=PRODUCT_DEFINITION_SHAPE('','',#25);
#1173=SHAPE_DEFINITION_REPRESENTATION(#23,#16);
#11=DRAUGHTING_MODEL('',(#1170),#10);
#1174=DESCRIPTIVE_REPRESENTATION_ITEM('KEY','C:\\Users\\tbheg\\AppData\\Local\\Packages\\Shapr3D.Shapr3D_j403pzjkqtqbj\\TempState\\50926272-d533-4966-a4ff-588ff4f97f54.tmp');
#1175=PROPERTY_DEFINITION('KEY','',#25);
#1176=REPRESENTATION('',(#1174),#10);
#1177=PROPERTY_DEFINITION_REPRESENTATION(#1175,#1176);
#1178=GENERAL_PROPERTY('','KEY','');
#1179=GENERAL_PROPERTY_ASSOCIATION('','',#1178,#1175);
#1=MECHANICAL_DESIGN_GEOMETRIC_PRESENTATION_REPRESENTATION('',(#110),#10);
ENDSEC;
END-ISO-10303-21;
