ISO-10303-21;
HEADER;

/* File generated by Shapr3D Version 5.860.8843.0 */

FILE_DESCRIPTION(('HOOPS Exchange Step'),'2;1');

FILE_NAME('C:\\Users\\tbheg\\AppData\\Local\\Packages\\Shapr3D.Shapr3D_j403pzjkqtqbj\\TempState\\export\\temp_export',
'2025-06-03T17:20:03+02:00',
('tbheg'),
('Shapr3D Limited'),
'HOOPS Exchange 2024.8',
'Shapr3D',
'Authorized');

FILE_SCHEMA( ('AP242_MANAGED_MODEL_BASED_3D_ENGINEERING_MIM_LF {1 0 10303 442 1 1 4}') );

ENDSEC;

DATA;
#3=(NAMED_UNIT(*)PLANE_ANGLE_UNIT()SI_UNIT($,.RADIAN.));
#4=PLANE_ANGLE_MEASURE_WITH_UNIT(PLANE_ANGLE_MEASURE(0.0174532925),#3);
#5=(CONVERSION_BASED_UNIT('DEGREE',#4)NAMED_UNIT(#6)PLANE_ANGLE_UNIT());
#6=DIMENSIONAL_EXPONENTS(0.,0.,0.,0.,0.,0.,0.);
#7=(NAMED_UNIT(*)SI_UNIT($,.STERADIAN.)SOLID_ANGLE_UNIT());
#8=(LENGTH_UNIT()NAMED_UNIT(*)SI_UNIT(.MILLI.,.METRE.));
#9=UNCERTAINTY_MEASURE_WITH_UNIT(LENGTH_MEASURE(1.000000E-03),#8,'DISTANCE_ACCURACY_VALUE','Maximum Tolerance applied to model');
#10=(GEOMETRIC_REPRESENTATION_CONTEXT(3)GLOBAL_UNCERTAINTY_ASSIGNED_CONTEXT((#9))GLOBAL_UNIT_ASSIGNED_CONTEXT((#8,#5,#7))REPRESENTATION_CONTEXT('','root'));
#12=CARTESIAN_POINT('',(0.,0.,0.));
#13=DIRECTION('',(0.,0.,1.));
#14=DIRECTION('',(1.,0.,0.));
#15=AXIS2_PLACEMENT_3D('',#12,#13,#14);
#26=(NAMED_UNIT(*)PLANE_ANGLE_UNIT()SI_UNIT($,.RADIAN.));
#27=PLANE_ANGLE_MEASURE_WITH_UNIT(PLANE_ANGLE_MEASURE(0.0174532925),#26);
#28=(CONVERSION_BASED_UNIT('DEGREE',#27)NAMED_UNIT(#29)PLANE_ANGLE_UNIT());
#29=DIMENSIONAL_EXPONENTS(0.,0.,0.,0.,0.,0.,0.);
#30=(NAMED_UNIT(*)SI_UNIT($,.STERADIAN.)SOLID_ANGLE_UNIT());
#31=(LENGTH_UNIT()NAMED_UNIT(*)SI_UNIT(.MILLI.,.METRE.));
#32=UNCERTAINTY_MEASURE_WITH_UNIT(LENGTH_MEASURE(1.000000E-03),#31,'DISTANCE_ACCURACY_VALUE','Maximum Tolerance applied to model');
#33=(GEOMETRIC_REPRESENTATION_CONTEXT(3)GLOBAL_UNCERTAINTY_ASSIGNED_CONTEXT((#32))GLOBAL_UNIT_ASSIGNED_CONTEXT((#31,#28,#30))REPRESENTATION_CONTEXT('','RoboticArm.step'));
#45=CARTESIAN_POINT('',(0.,0.,0.));
#46=DIRECTION('',(0.,0.,1.));
#47=DIRECTION('',(1.,0.,-0.));
#48=AXIS2_PLACEMENT_3D('',#45,#46,#47);
#49=ITEM_DEFINED_TRANSFORMATION('','',#48,#15);
#50=(REPRESENTATION_RELATIONSHIP('','',#35,#16)REPRESENTATION_RELATIONSHIP_WITH_TRANSFORMATION(#49)SHAPE_REPRESENTATION_RELATIONSHIP());
#51=NEXT_ASSEMBLY_USAGE_OCCURRENCE('RoboticArm.step_1','RoboticArm.step','RoboticArm.step',#25,#44,$);
#52=PRODUCT_DEFINITION_SHAPE('','',#51);
#53=CONTEXT_DEPENDENT_SHAPE_REPRESENTATION(#50,#52);
#54=(NAMED_UNIT(*)PLANE_ANGLE_UNIT()SI_UNIT($,.RADIAN.));
#55=PLANE_ANGLE_MEASURE_WITH_UNIT(PLANE_ANGLE_MEASURE(0.0174532925),#54);
#56=(CONVERSION_BASED_UNIT('DEGREE',#55)NAMED_UNIT(#57)PLANE_ANGLE_UNIT());
#57=DIMENSIONAL_EXPONENTS(0.,0.,0.,0.,0.,0.,0.);
#58=(NAMED_UNIT(*)SI_UNIT($,.STERADIAN.)SOLID_ANGLE_UNIT());
#59=(LENGTH_UNIT()NAMED_UNIT(*)SI_UNIT(.MILLI.,.METRE.));
#60=UNCERTAINTY_MEASURE_WITH_UNIT(LENGTH_MEASURE(1.000000E-03),#59,'DISTANCE_ACCURACY_VALUE','Maximum Tolerance applied to model');
#61=(GEOMETRIC_REPRESENTATION_CONTEXT(3)GLOBAL_UNCERTAINTY_ASSIGNED_CONTEXT((#60))GLOBAL_UNIT_ASSIGNED_CONTEXT((#59,#56,#58))REPRESENTATION_CONTEXT('','Redesigned_Bevel_Gear'));
#73=CARTESIAN_POINT('',(0.,0.,0.));
#74=DIRECTION('',(0.,0.,1.));
#75=DIRECTION('',(1.,0.,-0.));
#76=AXIS2_PLACEMENT_3D('',#73,#74,#75);
#77=ITEM_DEFINED_TRANSFORMATION('','',#76,#15);
#78=(REPRESENTATION_RELATIONSHIP('','',#63,#35)REPRESENTATION_RELATIONSHIP_WITH_TRANSFORMATION(#77)SHAPE_REPRESENTATION_RELATIONSHIP());
#79=NEXT_ASSEMBLY_USAGE_OCCURRENCE('Redesigned_Bevel_Gear_2','Redesigned_Bevel_Gear','Redesigned_Bevel_Gear',#44,#72,$);
#80=PRODUCT_DEFINITION_SHAPE('','',#79);
#81=CONTEXT_DEPENDENT_SHAPE_REPRESENTATION(#78,#80);
#82=(NAMED_UNIT(*)PLANE_ANGLE_UNIT()SI_UNIT($,.RADIAN.));
#83=PLANE_ANGLE_MEASURE_WITH_UNIT(PLANE_ANGLE_MEASURE(0.0174532925),#82);
#84=(CONVERSION_BASED_UNIT('DEGREE',#83)NAMED_UNIT(#85)PLANE_ANGLE_UNIT());
#85=DIMENSIONAL_EXPONENTS(0.,0.,0.,0.,0.,0.,0.);
#86=(NAMED_UNIT(*)SI_UNIT($,.STERADIAN.)SOLID_ANGLE_UNIT());
#87=(LENGTH_UNIT()NAMED_UNIT(*)SI_UNIT(.MILLI.,.METRE.));
#88=UNCERTAINTY_MEASURE_WITH_UNIT(LENGTH_MEASURE(1.000000E-05),#87,'DISTANCE_ACCURACY_VALUE','Maximum Tolerance applied to model');
#89=(GEOMETRIC_REPRESENTATION_CONTEXT(3)GLOBAL_UNCERTAINTY_ASSIGNED_CONTEXT((#88))GLOBAL_UNIT_ASSIGNED_CONTEXT((#87,#84,#86))REPRESENTATION_CONTEXT('','Pos_Y_Side'));
#101=CARTESIAN_POINT('',(0.,0.,0.));
#102=DIRECTION('',(0.,0.,1.));
#103=DIRECTION('',(1.,0.,-0.));
#104=AXIS2_PLACEMENT_3D('',#101,#102,#103);
#105=ITEM_DEFINED_TRANSFORMATION('','',#104,#15);
#106=(REPRESENTATION_RELATIONSHIP('','',#91,#63)REPRESENTATION_RELATIONSHIP_WITH_TRANSFORMATION(#105)SHAPE_REPRESENTATION_RELATIONSHIP());
#107=NEXT_ASSEMBLY_USAGE_OCCURRENCE('Pos_Y_Side_3','Pos_Y_Side','Pos_Y_Side',#72,#100,$);
#108=PRODUCT_DEFINITION_SHAPE('','',#107);
#109=CONTEXT_DEPENDENT_SHAPE_REPRESENTATION(#106,#108);
#111=CARTESIAN_POINT('',(14.22,-105.846719034,25.135364778));
#112=DIRECTION('',(0.,1.,0.));
#113=DIRECTION('',(-1.,0.,0.));
#114=AXIS2_PLACEMENT_3D('',#111,#112,#113);
#115=CYLINDRICAL_SURFACE('',#114,8.5);
#116=CARTESIAN_POINT('',(5.72,-50.62521279,25.135364778));
#117=VERTEX_POINT('',#116);
#118=CARTESIAN_POINT('',(5.72,-56.62521279,25.135364778));
#119=VERTEX_POINT('',#118);
#120=CARTESIAN_POINT('',(5.72,-50.62521279,25.135364778));
#121=DIRECTION('',(0.,-1.,-0.));
#122=VECTOR('',#121,6.);
#123=LINE('',#120,#122);
#124=EDGE_CURVE('',#117,#119,#123,.T.);
#125=ORIENTED_EDGE('',*,*,#124,.F.);
#126=CARTESIAN_POINT('',(14.22,-50.62521279,16.635364778));
#127=VERTEX_POINT('',#126);
#128=CARTESIAN_POINT('',(14.22,-50.62521279,25.135364778));
#129=DIRECTION('',(0.,-1.,0.));
#130=DIRECTION('',(0.,0.,-1.));
#131=AXIS2_PLACEMENT_3D('',#128,#129,#130);
#132=CIRCLE('',#131,8.5);
#133=EDGE_CURVE('',#127,#117,#132,.T.);
#134=ORIENTED_EDGE('',*,*,#133,.F.);
#135=CARTESIAN_POINT('',(14.22,-50.62521279,25.135364778));
#136=DIRECTION('',(0.,-1.,0.));
#137=DIRECTION('',(0.,0.,-1.));
#138=AXIS2_PLACEMENT_3D('',#135,#136,#137);
#139=CIRCLE('',#138,8.5);
#140=EDGE_CURVE('',#117,#127,#139,.T.);
#141=ORIENTED_EDGE('',*,*,#140,.F.);
#142=ORIENTED_EDGE('',*,*,#124,.T.);
#143=CARTESIAN_POINT('',(14.22,-56.62521279,16.635364778));
#144=VERTEX_POINT('',#143);
#145=CARTESIAN_POINT('',(14.22,-56.62521279,25.135364778));
#146=DIRECTION('',(0.,1.,0.));
#147=DIRECTION('',(0.,0.,-1.));
#148=AXIS2_PLACEMENT_3D('',#145,#146,#147);
#149=CIRCLE('',#148,8.5);
#150=EDGE_CURVE('',#144,#119,#149,.T.);
#151=ORIENTED_EDGE('',*,*,#150,.F.);
#152=CARTESIAN_POINT('',(14.22,-56.62521279,25.135364778));
#153=DIRECTION('',(0.,1.,0.));
#154=DIRECTION('',(0.,0.,-1.));
#155=AXIS2_PLACEMENT_3D('',#152,#153,#154);
#156=CIRCLE('',#155,8.5);
#157=EDGE_CURVE('',#119,#144,#156,.T.);
#158=ORIENTED_EDGE('',*,*,#157,.F.);
#159=EDGE_LOOP('',(#125,#134,#141,#142,#151,#158));
#160=FACE_BOUND('',#159,.T.);
#161=ADVANCED_FACE('',(#160),#115,.F.);
#162=CARTESIAN_POINT('',(0.,-85.62521279,48.687320393));
#163=DIRECTION('',(0.,1.,0.));
#164=DIRECTION('',(0.,0.,-1.));
#165=AXIS2_PLACEMENT_3D('',#162,#163,#164);
#166=CYLINDRICAL_SURFACE('',#165,8.5);
#167=CARTESIAN_POINT('',(-0.,-50.62521279,40.187320393));
#168=VERTEX_POINT('',#167);
#169=CARTESIAN_POINT('',(-0.,-56.62521279,40.187320393));
#170=VERTEX_POINT('',#169);
#171=CARTESIAN_POINT('',(0.,-50.62521279,40.187320393));
#172=DIRECTION('',(-0.,-1.,-0.));
#173=VECTOR('',#172,6.);
#174=LINE('',#171,#173);
#175=EDGE_CURVE('',#168,#170,#174,.T.);
#176=ORIENTED_EDGE('',*,*,#175,.F.);
#177=CARTESIAN_POINT('',(0.,-50.62521279,48.687320393));
#178=DIRECTION('',(0.,-1.,0.));
#179=DIRECTION('',(0.,0.,-1.));
#180=AXIS2_PLACEMENT_3D('',#177,#178,#179);
#181=CIRCLE('',#180,8.5);
#182=EDGE_CURVE('',#168,#168,#181,.T.);
#183=ORIENTED_EDGE('',*,*,#182,.F.);
#184=ORIENTED_EDGE('',*,*,#175,.T.);
#185=CARTESIAN_POINT('',(0.,-56.62521279,48.687320393));
#186=DIRECTION('',(0.,-1.,0.));
#187=DIRECTION('',(0.,0.,-1.));
#188=AXIS2_PLACEMENT_3D('',#185,#186,#187);
#189=CIRCLE('',#188,8.5);
#190=EDGE_CURVE('',#170,#170,#189,.T.);
#191=ORIENTED_EDGE('',*,*,#190,.T.);
#192=EDGE_LOOP('',(#176,#183,#184,#191));
#193=FACE_BOUND('',#192,.T.);
#194=ADVANCED_FACE('',(#193),#166,.F.);
#195=CARTESIAN_POINT('',(0.,-85.62521279,94.397320393));
#196=DIRECTION('',(0.,1.,0.));
#197=DIRECTION('',(0.,0.,-1.));
#198=AXIS2_PLACEMENT_3D('',#195,#196,#197);
#199=CYLINDRICAL_SURFACE('',#198,8.5);
#200=CARTESIAN_POINT('',(-0.,-50.62521279,85.897320393));
#201=VERTEX_POINT('',#200);
#202=CARTESIAN_POINT('',(-0.,-56.62521279,85.897320393));
#203=VERTEX_POINT('',#202);
#204=CARTESIAN_POINT('',(0.,-50.62521279,85.897320393));
#205=DIRECTION('',(-0.,-1.,-0.));
#206=VECTOR('',#205,6.);
#207=LINE('',#204,#206);
#208=EDGE_CURVE('',#201,#203,#207,.T.);
#209=ORIENTED_EDGE('',*,*,#208,.F.);
#210=CARTESIAN_POINT('',(0.,-50.62521279,94.397320393));
#211=DIRECTION('',(0.,-1.,0.));
#212=DIRECTION('',(0.,0.,-1.));
#213=AXIS2_PLACEMENT_3D('',#210,#211,#212);
#214=CIRCLE('',#213,8.5);
#215=EDGE_CURVE('',#201,#201,#214,.T.);
#216=ORIENTED_EDGE('',*,*,#215,.F.);
#217=ORIENTED_EDGE('',*,*,#208,.T.);
#218=CARTESIAN_POINT('',(0.,-56.62521279,94.397320393));
#219=DIRECTION('',(0.,-1.,0.));
#220=DIRECTION('',(0.,0.,-1.));
#221=AXIS2_PLACEMENT_3D('',#218,#219,#220);
#222=CIRCLE('',#221,8.5);
#223=EDGE_CURVE('',#203,#203,#222,.T.);
#224=ORIENTED_EDGE('',*,*,#223,.T.);
#225=EDGE_LOOP('',(#209,#216,#217,#224));
#226=FACE_BOUND('',#225,.T.);
#227=ADVANCED_FACE('',(#226),#199,.F.);
#228=CARTESIAN_POINT('',(0.594673209,-70.62521279,57.647320393));
#229=DIRECTION('',(0.,1.,0.));
#230=DIRECTION('',(-1.,0.,0.));
#231=AXIS2_PLACEMENT_3D('',#228,#229,#230);
#232=PLANE('',#231);
#233=CARTESIAN_POINT('',(-15.,-70.62521279,27.));
#234=VERTEX_POINT('',#233);
#235=CARTESIAN_POINT('',(-15.,-70.62521279,23.));
#236=VERTEX_POINT('',#235);
#237=CARTESIAN_POINT('',(-15.,-70.62521279,25.));
#238=DIRECTION('',(0.,1.,0.));
#239=DIRECTION('',(0.,-0.,1.));
#240=AXIS2_PLACEMENT_3D('',#237,#238,#239);
#241=CIRCLE('',#240,2.);
#242=EDGE_CURVE('',#234,#236,#241,.T.);
#243=ORIENTED_EDGE('',*,*,#242,.T.);
#244=CARTESIAN_POINT('',(-15.,-70.62521279,25.));
#245=DIRECTION('',(0.,1.,0.));
#246=DIRECTION('',(0.,-0.,1.));
#247=AXIS2_PLACEMENT_3D('',#244,#245,#246);
#248=CIRCLE('',#247,2.);
#249=EDGE_CURVE('',#236,#234,#248,.T.);
#250=ORIENTED_EDGE('',*,*,#249,.T.);
#251=EDGE_LOOP('',(#243,#250));
#252=FACE_BOUND('',#251,.T.);
#253=CARTESIAN_POINT('',(10.,-70.62521279,72.));
#254=VERTEX_POINT('',#253);
#255=CARTESIAN_POINT('',(10.,-70.62521279,68.));
#256=VERTEX_POINT('',#255);
#257=CARTESIAN_POINT('',(10.,-70.62521279,70.));
#258=DIRECTION('',(0.,1.,0.));
#259=DIRECTION('',(0.,-0.,1.));
#260=AXIS2_PLACEMENT_3D('',#257,#258,#259);
#261=CIRCLE('',#260,2.);
#262=EDGE_CURVE('',#254,#256,#261,.T.);
#263=ORIENTED_EDGE('',*,*,#262,.T.);
#264=CARTESIAN_POINT('',(10.,-70.62521279,70.));
#265=DIRECTION('',(0.,1.,0.));
#266=DIRECTION('',(0.,-0.,1.));
#267=AXIS2_PLACEMENT_3D('',#264,#265,#266);
#268=CIRCLE('',#267,2.);
#269=EDGE_CURVE('',#256,#254,#268,.T.);
#270=ORIENTED_EDGE('',*,*,#269,.T.);
#271=EDGE_LOOP('',(#263,#270));
#272=FACE_BOUND('',#271,.T.);
#273=CARTESIAN_POINT('',(-10.,-70.62521279,72.));
#274=VERTEX_POINT('',#273);
#275=CARTESIAN_POINT('',(-10.,-70.62521279,68.));
#276=VERTEX_POINT('',#275);
#277=CARTESIAN_POINT('',(-10.,-70.62521279,70.));
#278=DIRECTION('',(0.,1.,0.));
#279=DIRECTION('',(0.,-0.,1.));
#280=AXIS2_PLACEMENT_3D('',#277,#278,#279);
#281=CIRCLE('',#280,2.);
#282=EDGE_CURVE('',#274,#276,#281,.T.);
#283=ORIENTED_EDGE('',*,*,#282,.T.);
#284=CARTESIAN_POINT('',(-10.,-70.62521279,70.));
#285=DIRECTION('',(0.,1.,0.));
#286=DIRECTION('',(0.,-0.,1.));
#287=AXIS2_PLACEMENT_3D('',#284,#285,#286);
#288=CIRCLE('',#287,2.);
#289=EDGE_CURVE('',#276,#274,#288,.T.);
#290=ORIENTED_EDGE('',*,*,#289,.T.);
#291=EDGE_LOOP('',(#283,#290));
#292=FACE_BOUND('',#291,.T.);
#293=CARTESIAN_POINT('',(14.22,-70.62521279,14.135364778));
#294=VERTEX_POINT('',#293);
#295=CARTESIAN_POINT('',(14.22,-70.62521279,25.135364778));
#296=DIRECTION('',(0.,-1.,0.));
#297=DIRECTION('',(0.,0.,-1.));
#298=AXIS2_PLACEMENT_3D('',#295,#296,#297);
#299=CIRCLE('',#298,11.);
#300=EDGE_CURVE('',#294,#294,#299,.T.);
#301=ORIENTED_EDGE('',*,*,#300,.F.);
#302=EDGE_LOOP('',(#301));
#303=FACE_BOUND('',#302,.T.);
#304=CARTESIAN_POINT('',(-0.,-70.62521279,37.687320393));
#305=VERTEX_POINT('',#304);
#306=CARTESIAN_POINT('',(0.,-70.62521279,48.687320393));
#307=DIRECTION('',(0.,-1.,0.));
#308=DIRECTION('',(0.,0.,-1.));
#309=AXIS2_PLACEMENT_3D('',#306,#307,#308);
#310=CIRCLE('',#309,11.);
#311=EDGE_CURVE('',#305,#305,#310,.T.);
#312=ORIENTED_EDGE('',*,*,#311,.F.);
#313=EDGE_LOOP('',(#312));
#314=FACE_BOUND('',#313,.T.);
#315=CARTESIAN_POINT('',(-0.,-70.62521279,83.397320393));
#316=VERTEX_POINT('',#315);
#317=CARTESIAN_POINT('',(0.,-70.62521279,94.397320393));
#318=DIRECTION('',(0.,-1.,0.));
#319=DIRECTION('',(0.,0.,-1.));
#320=AXIS2_PLACEMENT_3D('',#317,#318,#319);
#321=CIRCLE('',#320,11.);
#322=EDGE_CURVE('',#316,#316,#321,.T.);
#323=ORIENTED_EDGE('',*,*,#322,.F.);
#324=EDGE_LOOP('',(#323));
#325=FACE_BOUND('',#324,.T.);
#326=CARTESIAN_POINT('',(54.9998,-70.62521279,20.885364778));
#327=VERTEX_POINT('',#326);
#328=CARTESIAN_POINT('',(36.505162385,-70.62521279,20.885364778));
#329=VERTEX_POINT('',#328);
#330=CARTESIAN_POINT('',(54.9998,-70.62521279,20.885364778));
#331=DIRECTION('',(-1.,0.,0.));
#332=VECTOR('',#331,18.494637615);
#333=LINE('',#330,#332);
#334=EDGE_CURVE('',#327,#329,#333,.T.);
#335=ORIENTED_EDGE('',*,*,#334,.T.);
#336=CARTESIAN_POINT('',(31.625085274,-70.62521279,24.796857823));
#337=VERTEX_POINT('',#336);
#338=CARTESIAN_POINT('',(36.505162385,-70.62521279,25.885364778));
#339=DIRECTION('',(0.,1.,0.));
#340=DIRECTION('',(0.,-0.,1.));
#341=AXIS2_PLACEMENT_3D('',#338,#339,#340);
#342=CIRCLE('',#341,5.);
#343=EDGE_CURVE('',#329,#337,#342,.T.);
#344=ORIENTED_EDGE('',*,*,#343,.T.);
#345=CARTESIAN_POINT('',(14.682417698,-70.62521279,100.755512789));
#346=VERTEX_POINT('',#345);
#347=CARTESIAN_POINT('',(31.625085274,-70.62521279,24.796857823));
#348=DIRECTION('',(-0.217701391,0.,0.976015422));
#349=VECTOR('',#348,77.825260995);
#350=LINE('',#347,#349);
#351=EDGE_CURVE('',#337,#346,#350,.T.);
#352=ORIENTED_EDGE('',*,*,#351,.T.);
#353=CARTESIAN_POINT('',(-15.815989541,-70.62521279,96.816922601));
#354=VERTEX_POINT('',#353);
#355=CARTESIAN_POINT('',(0.,-70.62521279,94.397320393));
#356=DIRECTION('',(-0.,-1.,-0.));
#357=DIRECTION('',(0.,-0.,1.));
#358=AXIS2_PLACEMENT_3D('',#355,#356,#357);
#359=CIRCLE('',#358,16.);
#360=EDGE_CURVE('',#346,#354,#359,.T.);
#361=ORIENTED_EDGE('',*,*,#360,.T.);
#362=CARTESIAN_POINT('',(-26.783098296,-70.62521279,25.129239088));
#363=VERTEX_POINT('',#362);
#364=CARTESIAN_POINT('',(-26.783098296,-70.62521279,25.129239088));
#365=DIRECTION('',(0.151225138,0.,0.988499346));
#366=VECTOR('',#365,72.521730826);
#367=LINE('',#364,#366);
#368=EDGE_CURVE('',#363,#354,#367,.T.);
#369=ORIENTED_EDGE('',*,*,#368,.F.);
#370=CARTESIAN_POINT('',(-31.725595027,-70.62521279,20.885364778));
#371=VERTEX_POINT('',#370);
#372=CARTESIAN_POINT('',(-31.725595027,-70.62521279,25.885364778));
#373=DIRECTION('',(0.,1.,0.));
#374=DIRECTION('',(0.,-0.,1.));
#375=AXIS2_PLACEMENT_3D('',#372,#373,#374);
#376=CIRCLE('',#375,5.);
#377=EDGE_CURVE('',#363,#371,#376,.T.);
#378=ORIENTED_EDGE('',*,*,#377,.T.);
#379=CARTESIAN_POINT('',(-50.0002,-70.62521279,20.885364778));
#380=VERTEX_POINT('',#379);
#381=CARTESIAN_POINT('',(-31.725595027,-70.62521279,20.885364778));
#382=DIRECTION('',(-1.,0.,0.));
#383=VECTOR('',#382,18.274604973);
#384=LINE('',#381,#383);
#385=EDGE_CURVE('',#371,#380,#384,.T.);
#386=ORIENTED_EDGE('',*,*,#385,.T.);
#387=CARTESIAN_POINT('',(-50.0002,-70.62521279,10.885364778));
#388=VERTEX_POINT('',#387);
#389=CARTESIAN_POINT('',(-50.0002,-70.62521279,20.885364778));
#390=DIRECTION('',(-0.,-0.,-1.));
#391=VECTOR('',#390,10.);
#392=LINE('',#389,#391);
#393=EDGE_CURVE('',#380,#388,#392,.T.);
#394=ORIENTED_EDGE('',*,*,#393,.T.);
#395=CARTESIAN_POINT('',(54.9998,-70.62521279,10.885364778));
#396=VERTEX_POINT('',#395);
#397=CARTESIAN_POINT('',(54.9998,-70.62521279,10.885364778));
#398=DIRECTION('',(-1.,-0.,0.));
#399=VECTOR('',#398,105.);
#400=LINE('',#397,#399);
#401=EDGE_CURVE('',#396,#388,#400,.T.);
#402=ORIENTED_EDGE('',*,*,#401,.F.);
#403=CARTESIAN_POINT('',(54.9998,-70.62521279,20.885364778));
#404=DIRECTION('',(0.,0.,-1.));
#405=VECTOR('',#404,10.);
#406=LINE('',#403,#405);
#407=EDGE_CURVE('',#327,#396,#406,.T.);
#408=ORIENTED_EDGE('',*,*,#407,.F.);
#409=EDGE_LOOP('',(#335,#344,#352,#361,#369,#378,#386,#394,#402,#408));
#410=FACE_BOUND('',#409,.T.);
#411=ADVANCED_FACE('',(#252,#272,#292,#303,#314,#325,#410),#232,.F.);
#412=CARTESIAN_POINT('',(54.9998,-112.542200303,5.885364778));
#413=DIRECTION('',(1.,0.,0.));
#414=DIRECTION('',(0.,0.,-1.));
#415=AXIS2_PLACEMENT_3D('',#412,#413,#414);
#416=PLANE('',#415);
#417=ORIENTED_EDGE('',*,*,#407,.T.);
#418=CARTESIAN_POINT('',(54.9998,-50.62521279,10.885364778));
#419=VERTEX_POINT('',#418);
#420=CARTESIAN_POINT('',(54.9998,-70.62521279,10.885364778));
#421=DIRECTION('',(0.,1.,0.));
#422=VECTOR('',#421,20.);
#423=LINE('',#420,#422);
#424=EDGE_CURVE('',#396,#419,#423,.T.);
#425=ORIENTED_EDGE('',*,*,#424,.T.);
#426=CARTESIAN_POINT('',(54.9998,-50.62521279,20.885364778));
#427=VERTEX_POINT('',#426);
#428=CARTESIAN_POINT('',(54.9998,-50.62521279,20.885364778));
#429=DIRECTION('',(0.,0.,-1.));
#430=VECTOR('',#429,10.);
#431=LINE('',#428,#430);
#432=EDGE_CURVE('',#427,#419,#431,.T.);
#433=ORIENTED_EDGE('',*,*,#432,.F.);
#434=CARTESIAN_POINT('',(54.9998,-70.62521279,20.885364778));
#435=DIRECTION('',(0.,1.,0.));
#436=VECTOR('',#435,20.);
#437=LINE('',#434,#436);
#438=EDGE_CURVE('',#327,#427,#437,.T.);
#439=ORIENTED_EDGE('',*,*,#438,.F.);
#440=EDGE_LOOP('',(#417,#425,#433,#439));
#441=FACE_BOUND('',#440,.T.);
#442=ADVANCED_FACE('',(#441),#416,.T.);
#443=CARTESIAN_POINT('',(-153.528823094,-389.133797204,20.885364778));
#444=DIRECTION('',(0.,0.,-1.));
#445=DIRECTION('',(-1.,0.,0.));
#446=AXIS2_PLACEMENT_3D('',#443,#444,#445);
#447=PLANE('',#446);
#448=CARTESIAN_POINT('',(48.752481193,-60.62521279,20.885364778));
#449=VERTEX_POINT('',#448);
#450=CARTESIAN_POINT('',(42.752481193,-60.62521279,20.885364778));
#451=VERTEX_POINT('',#450);
#452=CARTESIAN_POINT('',(45.752481193,-60.62521279,20.885364778));
#453=DIRECTION('',(-0.,-0.,1.));
#454=DIRECTION('',(-1.,0.,0.));
#455=AXIS2_PLACEMENT_3D('',#452,#453,#454);
#456=CIRCLE('',#455,3.);
#457=EDGE_CURVE('',#449,#451,#456,.T.);
#458=ORIENTED_EDGE('',*,*,#457,.F.);
#459=CARTESIAN_POINT('',(45.752481193,-60.62521279,20.885364778));
#460=DIRECTION('',(-0.,-0.,1.));
#461=DIRECTION('',(-1.,0.,0.));
#462=AXIS2_PLACEMENT_3D('',#459,#460,#461);
#463=CIRCLE('',#462,3.);
#464=EDGE_CURVE('',#451,#449,#463,.T.);
#465=ORIENTED_EDGE('',*,*,#464,.F.);
#466=EDGE_LOOP('',(#458,#465));
#467=FACE_BOUND('',#466,.T.);
#468=CARTESIAN_POINT('',(36.505162385,-50.62521279,20.885364778));
#469=VERTEX_POINT('',#468);
#470=CARTESIAN_POINT('',(54.9998,-50.62521279,20.885364778));
#471=DIRECTION('',(-1.,0.,0.));
#472=VECTOR('',#471,18.494637615);
#473=LINE('',#470,#472);
#474=EDGE_CURVE('',#427,#469,#473,.T.);
#475=ORIENTED_EDGE('',*,*,#474,.T.);
#476=CARTESIAN_POINT('',(36.505162385,-50.62521279,20.885364778));
#477=DIRECTION('',(-0.,-1.,-0.));
#478=VECTOR('',#477,20.);
#479=LINE('',#476,#478);
#480=EDGE_CURVE('',#469,#329,#479,.T.);
#481=ORIENTED_EDGE('',*,*,#480,.T.);
#482=ORIENTED_EDGE('',*,*,#334,.F.);
#483=ORIENTED_EDGE('',*,*,#438,.T.);
#484=EDGE_LOOP('',(#475,#481,#482,#483));
#485=FACE_BOUND('',#484,.T.);
#486=ADVANCED_FACE('',(#467,#485),#447,.F.);
#487=CARTESIAN_POINT('',(-153.528823094,-389.133797204,20.885364778));
#488=DIRECTION('',(0.,0.,-1.));
#489=DIRECTION('',(-1.,0.,0.));
#490=AXIS2_PLACEMENT_3D('',#487,#488,#489);
#491=PLANE('',#490);
#492=CARTESIAN_POINT('',(-37.862897514,-60.62521279,20.885364778));
#493=VERTEX_POINT('',#492);
#494=CARTESIAN_POINT('',(-43.862897514,-60.62521279,20.885364778));
#495=VERTEX_POINT('',#494);
#496=CARTESIAN_POINT('',(-40.862897514,-60.62521279,20.885364778));
#497=DIRECTION('',(-0.,-0.,1.));
#498=DIRECTION('',(-1.,0.,0.));
#499=AXIS2_PLACEMENT_3D('',#496,#497,#498);
#500=CIRCLE('',#499,3.);
#501=EDGE_CURVE('',#493,#495,#500,.T.);
#502=ORIENTED_EDGE('',*,*,#501,.F.);
#503=CARTESIAN_POINT('',(-40.862897514,-60.62521279,20.885364778));
#504=DIRECTION('',(-0.,-0.,1.));
#505=DIRECTION('',(-1.,0.,0.));
#506=AXIS2_PLACEMENT_3D('',#503,#504,#505);
#507=CIRCLE('',#506,3.);
#508=EDGE_CURVE('',#495,#493,#507,.T.);
#509=ORIENTED_EDGE('',*,*,#508,.F.);
#510=EDGE_LOOP('',(#502,#509));
#511=FACE_BOUND('',#510,.T.);
#512=ORIENTED_EDGE('',*,*,#385,.F.);
#513=CARTESIAN_POINT('',(-31.725595027,-50.62521279,20.885364778));
#514=VERTEX_POINT('',#513);
#515=CARTESIAN_POINT('',(-31.725595027,-70.62521279,20.885364778));
#516=DIRECTION('',(0.,1.,0.));
#517=VECTOR('',#516,20.);
#518=LINE('',#515,#517);
#519=EDGE_CURVE('',#371,#514,#518,.T.);
#520=ORIENTED_EDGE('',*,*,#519,.T.);
#521=CARTESIAN_POINT('',(-50.0002,-50.62521279,20.885364778));
#522=VERTEX_POINT('',#521);
#523=CARTESIAN_POINT('',(-31.725595027,-50.62521279,20.885364778));
#524=DIRECTION('',(-1.,0.,0.));
#525=VECTOR('',#524,18.274604973);
#526=LINE('',#523,#525);
#527=EDGE_CURVE('',#514,#522,#526,.T.);
#528=ORIENTED_EDGE('',*,*,#527,.T.);
#529=CARTESIAN_POINT('',(-50.0002,-70.62521279,20.885364778));
#530=DIRECTION('',(0.,1.,0.));
#531=VECTOR('',#530,20.);
#532=LINE('',#529,#531);
#533=EDGE_CURVE('',#380,#522,#532,.T.);
#534=ORIENTED_EDGE('',*,*,#533,.F.);
#535=EDGE_LOOP('',(#512,#520,#528,#534));
#536=FACE_BOUND('',#535,.T.);
#537=ADVANCED_FACE('',(#511,#536),#491,.F.);
#538=CARTESIAN_POINT('',(-50.0002,-127.708225278,5.885364778));
#539=DIRECTION('',(-1.,0.,0.));
#540=DIRECTION('',(0.,0.,1.));
#541=AXIS2_PLACEMENT_3D('',#538,#539,#540);
#542=PLANE('',#541);
#543=CARTESIAN_POINT('',(-50.0002,-50.62521279,10.885364778));
#544=VERTEX_POINT('',#543);
#545=CARTESIAN_POINT('',(-50.0002,-50.62521279,10.885364778));
#546=DIRECTION('',(-0.,-1.,-0.));
#547=VECTOR('',#546,20.);
#548=LINE('',#545,#547);
#549=EDGE_CURVE('',#544,#388,#548,.T.);
#550=ORIENTED_EDGE('',*,*,#549,.T.);
#551=ORIENTED_EDGE('',*,*,#393,.F.);
#552=ORIENTED_EDGE('',*,*,#533,.T.);
#553=CARTESIAN_POINT('',(-50.0002,-50.62521279,10.885364778));
#554=DIRECTION('',(0.,0.,1.));
#555=VECTOR('',#554,10.);
#556=LINE('',#553,#555);
#557=EDGE_CURVE('',#544,#522,#556,.T.);
#558=ORIENTED_EDGE('',*,*,#557,.F.);
#559=EDGE_LOOP('',(#550,#551,#552,#558));
#560=FACE_BOUND('',#559,.T.);
#561=ADVANCED_FACE('',(#560),#542,.T.);
#562=CARTESIAN_POINT('',(0.,-120.12521279,10.885364778));
#563=DIRECTION('',(0.,0.,1.));
#564=DIRECTION('',(1.,0.,0.));
#565=AXIS2_PLACEMENT_3D('',#562,#563,#564);
#566=PLANE('',#565);
#567=CARTESIAN_POINT('',(48.752481193,-60.62521279,10.885364778));
#568=VERTEX_POINT('',#567);
#569=CARTESIAN_POINT('',(45.752481193,-60.62521279,10.885364778));
#570=DIRECTION('',(0.,0.,1.));
#571=DIRECTION('',(1.,0.,-0.));
#572=AXIS2_PLACEMENT_3D('',#569,#570,#571);
#573=CIRCLE('',#572,3.);
#574=EDGE_CURVE('',#568,#568,#573,.T.);
#575=ORIENTED_EDGE('',*,*,#574,.T.);
#576=EDGE_LOOP('',(#575));
#577=FACE_BOUND('',#576,.T.);
#578=CARTESIAN_POINT('',(-37.862897514,-60.62521279,10.885364778));
#579=VERTEX_POINT('',#578);
#580=CARTESIAN_POINT('',(-40.862897514,-60.62521279,10.885364778));
#581=DIRECTION('',(0.,0.,1.));
#582=DIRECTION('',(1.,0.,-0.));
#583=AXIS2_PLACEMENT_3D('',#580,#581,#582);
#584=CIRCLE('',#583,3.);
#585=EDGE_CURVE('',#579,#579,#584,.T.);
#586=ORIENTED_EDGE('',*,*,#585,.T.);
#587=EDGE_LOOP('',(#586));
#588=FACE_BOUND('',#587,.T.);
#589=CARTESIAN_POINT('',(-50.0002,-50.62521279,10.885364778));
#590=DIRECTION('',(1.,0.,-0.));
#591=VECTOR('',#590,105.);
#592=LINE('',#589,#591);
#593=EDGE_CURVE('',#544,#419,#592,.T.);
#594=ORIENTED_EDGE('',*,*,#593,.T.);
#595=ORIENTED_EDGE('',*,*,#424,.F.);
#596=ORIENTED_EDGE('',*,*,#401,.T.);
#597=ORIENTED_EDGE('',*,*,#549,.F.);
#598=EDGE_LOOP('',(#594,#595,#596,#597));
#599=FACE_BOUND('',#598,.T.);
#600=ADVANCED_FACE('',(#577,#588,#599),#566,.F.);
#601=CARTESIAN_POINT('',(14.954664288,-50.62521279,15.146364778));
#602=DIRECTION('',(0.,-1.,0.));
#603=DIRECTION('',(1.,0.,0.));
#604=AXIS2_PLACEMENT_3D('',#601,#602,#603);
#605=PLANE('',#604);
#606=CARTESIAN_POINT('',(-15.,-50.62521279,23.));
#607=VERTEX_POINT('',#606);
#608=CARTESIAN_POINT('',(-15.,-50.62521279,25.));
#609=DIRECTION('',(0.,-1.,0.));
#610=DIRECTION('',(0.,0.,-1.));
#611=AXIS2_PLACEMENT_3D('',#608,#609,#610);
#612=CIRCLE('',#611,2.);
#613=EDGE_CURVE('',#607,#607,#612,.T.);
#614=ORIENTED_EDGE('',*,*,#613,.T.);
#615=EDGE_LOOP('',(#614));
#616=FACE_BOUND('',#615,.T.);
#617=CARTESIAN_POINT('',(10.,-50.62521279,68.));
#618=VERTEX_POINT('',#617);
#619=CARTESIAN_POINT('',(10.,-50.62521279,70.));
#620=DIRECTION('',(0.,-1.,0.));
#621=DIRECTION('',(0.,0.,-1.));
#622=AXIS2_PLACEMENT_3D('',#619,#620,#621);
#623=CIRCLE('',#622,2.);
#624=EDGE_CURVE('',#618,#618,#623,.T.);
#625=ORIENTED_EDGE('',*,*,#624,.T.);
#626=EDGE_LOOP('',(#625));
#627=FACE_BOUND('',#626,.T.);
#628=CARTESIAN_POINT('',(-10.,-50.62521279,68.));
#629=VERTEX_POINT('',#628);
#630=CARTESIAN_POINT('',(-10.,-50.62521279,70.));
#631=DIRECTION('',(0.,-1.,0.));
#632=DIRECTION('',(0.,0.,-1.));
#633=AXIS2_PLACEMENT_3D('',#630,#631,#632);
#634=CIRCLE('',#633,2.);
#635=EDGE_CURVE('',#629,#629,#634,.T.);
#636=ORIENTED_EDGE('',*,*,#635,.T.);
#637=EDGE_LOOP('',(#636));
#638=FACE_BOUND('',#637,.T.);
#639=ORIENTED_EDGE('',*,*,#133,.T.);
#640=ORIENTED_EDGE('',*,*,#140,.T.);
#641=EDGE_LOOP('',(#639,#640));
#642=FACE_BOUND('',#641,.T.);
#643=ORIENTED_EDGE('',*,*,#215,.T.);
#644=EDGE_LOOP('',(#643));
#645=FACE_BOUND('',#644,.T.);
#646=ORIENTED_EDGE('',*,*,#182,.T.);
#647=EDGE_LOOP('',(#646));
#648=FACE_BOUND('',#647,.T.);
#649=ORIENTED_EDGE('',*,*,#474,.F.);
#650=ORIENTED_EDGE('',*,*,#432,.T.);
#651=ORIENTED_EDGE('',*,*,#593,.F.);
#652=ORIENTED_EDGE('',*,*,#557,.T.);
#653=ORIENTED_EDGE('',*,*,#527,.F.);
#654=CARTESIAN_POINT('',(-26.783098296,-50.62521279,25.129239088));
#655=VERTEX_POINT('',#654);
#656=CARTESIAN_POINT('',(-31.725595027,-50.62521279,25.885364778));
#657=DIRECTION('',(0.,-1.,0.));
#658=DIRECTION('',(0.,0.,-1.));
#659=AXIS2_PLACEMENT_3D('',#656,#657,#658);
#660=CIRCLE('',#659,5.);
#661=EDGE_CURVE('',#514,#655,#660,.T.);
#662=ORIENTED_EDGE('',*,*,#661,.T.);
#663=CARTESIAN_POINT('',(-15.815989541,-50.62521279,96.816922601));
#664=VERTEX_POINT('',#663);
#665=CARTESIAN_POINT('',(-26.783098296,-50.62521279,25.129239088));
#666=DIRECTION('',(0.151225138,0.,0.988499346));
#667=VECTOR('',#666,72.521730826);
#668=LINE('',#665,#667);
#669=EDGE_CURVE('',#655,#664,#668,.T.);
#670=ORIENTED_EDGE('',*,*,#669,.T.);
#671=CARTESIAN_POINT('',(14.682417698,-50.62521279,100.755512789));
#672=VERTEX_POINT('',#671);
#673=CARTESIAN_POINT('',(0.,-50.62521279,94.397320393));
#674=DIRECTION('',(0.,-1.,0.));
#675=DIRECTION('',(0.,0.,-1.));
#676=AXIS2_PLACEMENT_3D('',#673,#674,#675);
#677=CIRCLE('',#676,16.);
#678=EDGE_CURVE('',#672,#664,#677,.T.);
#679=ORIENTED_EDGE('',*,*,#678,.F.);
#680=CARTESIAN_POINT('',(31.625085274,-50.62521279,24.796857823));
#681=VERTEX_POINT('',#680);
#682=CARTESIAN_POINT('',(31.625085274,-50.62521279,24.796857823));
#683=DIRECTION('',(-0.217701391,0.,0.976015422));
#684=VECTOR('',#683,77.825260995);
#685=LINE('',#682,#684);
#686=EDGE_CURVE('',#681,#672,#685,.T.);
#687=ORIENTED_EDGE('',*,*,#686,.F.);
#688=CARTESIAN_POINT('',(36.505162385,-50.62521279,25.885364778));
#689=DIRECTION('',(0.,-1.,0.));
#690=DIRECTION('',(0.,0.,-1.));
#691=AXIS2_PLACEMENT_3D('',#688,#689,#690);
#692=CIRCLE('',#691,5.);
#693=EDGE_CURVE('',#681,#469,#692,.T.);
#694=ORIENTED_EDGE('',*,*,#693,.T.);
#695=EDGE_LOOP('',(#649,#650,#651,#652,#653,#662,#670,#679,#687,#694));
#696=FACE_BOUND('',#695,.T.);
#697=ADVANCED_FACE('',(#616,#627,#638,#642,#645,#648,#696),#605,.F.);
#698=CARTESIAN_POINT('',(-17.986789314,-70.62521279,82.62725688));
#699=DIRECTION('',(0.988499346,0.,-0.151225138));
#700=DIRECTION('',(-0.151225138,0.,-0.988499346));
#701=AXIS2_PLACEMENT_3D('',#698,#699,#700);
#702=PLANE('',#701);
#703=ORIENTED_EDGE('',*,*,#669,.F.);
#704=CARTESIAN_POINT('',(-26.783098296,-50.62521279,25.129239088));
#705=DIRECTION('',(-0.,-1.,-0.));
#706=VECTOR('',#705,20.);
#707=LINE('',#704,#706);
#708=EDGE_CURVE('',#655,#363,#707,.T.);
#709=ORIENTED_EDGE('',*,*,#708,.T.);
#710=ORIENTED_EDGE('',*,*,#368,.T.);
#711=CARTESIAN_POINT('',(-15.81598954,-70.62521279,96.816922601));
#712=DIRECTION('',(0.,1.,0.));
#713=VECTOR('',#712,20.);
#714=LINE('',#711,#713);
#715=EDGE_CURVE('',#354,#664,#714,.T.);
#716=ORIENTED_EDGE('',*,*,#715,.T.);
#717=EDGE_LOOP('',(#703,#709,#710,#716));
#718=FACE_BOUND('',#717,.T.);
#719=ADVANCED_FACE('',(#718),#702,.F.);
#720=CARTESIAN_POINT('',(0.,-70.62521279,94.397320393));
#721=DIRECTION('',(0.,1.,0.));
#722=DIRECTION('',(0.,0.,-1.));
#723=AXIS2_PLACEMENT_3D('',#720,#721,#722);
#724=CYLINDRICAL_SURFACE('',#723,16.);
#725=ORIENTED_EDGE('',*,*,#678,.T.);
#726=ORIENTED_EDGE('',*,*,#715,.F.);
#727=ORIENTED_EDGE('',*,*,#360,.F.);
#728=CARTESIAN_POINT('',(14.682417698,-70.62521279,100.755512789));
#729=DIRECTION('',(0.,1.,0.));
#730=VECTOR('',#729,20.);
#731=LINE('',#728,#730);
#732=EDGE_CURVE('',#346,#672,#731,.T.);
#733=ORIENTED_EDGE('',*,*,#732,.T.);
#734=EDGE_LOOP('',(#725,#726,#727,#733));
#735=FACE_BOUND('',#734,.T.);
#736=ADVANCED_FACE('',(#735),#724,.T.);
#737=CARTESIAN_POINT('',(23.444324949,-71.62521279,61.473464273));
#738=DIRECTION('',(0.976015422,0.,0.217701391));
#739=DIRECTION('',(0.217701391,0.,-0.976015422));
#740=AXIS2_PLACEMENT_3D('',#737,#738,#739);
#741=PLANE('',#740);
#742=ORIENTED_EDGE('',*,*,#351,.F.);
#743=CARTESIAN_POINT('',(31.625085274,-70.62521279,24.796857823));
#744=DIRECTION('',(0.,1.,0.));
#745=VECTOR('',#744,20.);
#746=LINE('',#743,#745);
#747=EDGE_CURVE('',#337,#681,#746,.T.);
#748=ORIENTED_EDGE('',*,*,#747,.T.);
#749=ORIENTED_EDGE('',*,*,#686,.T.);
#750=ORIENTED_EDGE('',*,*,#732,.F.);
#751=EDGE_LOOP('',(#742,#748,#749,#750));
#752=FACE_BOUND('',#751,.T.);
#753=ADVANCED_FACE('',(#752),#741,.T.);
#754=CARTESIAN_POINT('',(0.,-56.62521279,94.397320393));
#755=DIRECTION('',(0.,-1.,0.));
#756=DIRECTION('',(0.,0.,-1.));
#757=AXIS2_PLACEMENT_3D('',#754,#755,#756);
#758=CYLINDRICAL_SURFACE('',#757,11.);
#759=CARTESIAN_POINT('',(-0.,-56.62521279,83.397320393));
#760=VERTEX_POINT('',#759);
#761=CARTESIAN_POINT('',(0.,-70.62521279,83.397320393));
#762=DIRECTION('',(-0.,1.,-0.));
#763=VECTOR('',#762,14.);
#764=LINE('',#761,#763);
#765=EDGE_CURVE('',#316,#760,#764,.T.);
#766=ORIENTED_EDGE('',*,*,#765,.F.);
#767=ORIENTED_EDGE('',*,*,#322,.T.);
#768=ORIENTED_EDGE('',*,*,#765,.T.);
#769=CARTESIAN_POINT('',(0.,-56.62521279,94.397320393));
#770=DIRECTION('',(0.,-1.,0.));
#771=DIRECTION('',(0.,0.,-1.));
#772=AXIS2_PLACEMENT_3D('',#769,#770,#771);
#773=CIRCLE('',#772,11.);
#774=EDGE_CURVE('',#760,#760,#773,.T.);
#775=ORIENTED_EDGE('',*,*,#774,.F.);
#776=EDGE_LOOP('',(#766,#767,#768,#775));
#777=FACE_BOUND('',#776,.T.);
#778=ADVANCED_FACE('',(#777),#758,.F.);
#779=CARTESIAN_POINT('',(0.,-56.62521279,0.));
#780=DIRECTION('',(0.,-1.,0.));
#781=DIRECTION('',(0.,0.,-1.));
#782=AXIS2_PLACEMENT_3D('',#779,#780,#781);
#783=PLANE('',#782);
#784=ORIENTED_EDGE('',*,*,#223,.F.);
#785=EDGE_LOOP('',(#784));
#786=FACE_BOUND('',#785,.T.);
#787=ORIENTED_EDGE('',*,*,#774,.T.);
#788=EDGE_LOOP('',(#787));
#789=FACE_BOUND('',#788,.T.);
#790=ADVANCED_FACE('',(#786,#789),#783,.T.);
#791=CARTESIAN_POINT('',(0.,-56.62521279,48.687320393));
#792=DIRECTION('',(0.,-1.,0.));
#793=DIRECTION('',(0.,0.,-1.));
#794=AXIS2_PLACEMENT_3D('',#791,#792,#793);
#795=CYLINDRICAL_SURFACE('',#794,11.);
#796=CARTESIAN_POINT('',(-0.,-56.62521279,37.687320393));
#797=VERTEX_POINT('',#796);
#798=CARTESIAN_POINT('',(0.,-70.62521279,37.687320393));
#799=DIRECTION('',(-0.,1.,-0.));
#800=VECTOR('',#799,14.);
#801=LINE('',#798,#800);
#802=EDGE_CURVE('',#305,#797,#801,.T.);
#803=ORIENTED_EDGE('',*,*,#802,.F.);
#804=ORIENTED_EDGE('',*,*,#311,.T.);
#805=ORIENTED_EDGE('',*,*,#802,.T.);
#806=CARTESIAN_POINT('',(0.,-56.62521279,48.687320393));
#807=DIRECTION('',(0.,-1.,0.));
#808=DIRECTION('',(0.,0.,-1.));
#809=AXIS2_PLACEMENT_3D('',#806,#807,#808);
#810=CIRCLE('',#809,11.);
#811=EDGE_CURVE('',#797,#797,#810,.T.);
#812=ORIENTED_EDGE('',*,*,#811,.F.);
#813=EDGE_LOOP('',(#803,#804,#805,#812));
#814=FACE_BOUND('',#813,.T.);
#815=ADVANCED_FACE('',(#814),#795,.F.);
#816=CARTESIAN_POINT('',(0.,-56.62521279,0.));
#817=DIRECTION('',(0.,-1.,0.));
#818=DIRECTION('',(0.,0.,-1.));
#819=AXIS2_PLACEMENT_3D('',#816,#817,#818);
#820=PLANE('',#819);
#821=ORIENTED_EDGE('',*,*,#190,.F.);
#822=EDGE_LOOP('',(#821));
#823=FACE_BOUND('',#822,.T.);
#824=ORIENTED_EDGE('',*,*,#811,.T.);
#825=EDGE_LOOP('',(#824));
#826=FACE_BOUND('',#825,.T.);
#827=ADVANCED_FACE('',(#823,#826),#820,.T.);
#828=CARTESIAN_POINT('',(14.22,-56.62521279,25.135364778));
#829=DIRECTION('',(0.,-1.,0.));
#830=DIRECTION('',(0.,0.,-1.));
#831=AXIS2_PLACEMENT_3D('',#828,#829,#830);
#832=CYLINDRICAL_SURFACE('',#831,11.);
#833=CARTESIAN_POINT('',(14.22,-56.62521279,14.135364778));
#834=VERTEX_POINT('',#833);
#835=CARTESIAN_POINT('',(14.22,-70.62521279,14.135364778));
#836=DIRECTION('',(-0.,1.,-0.));
#837=VECTOR('',#836,14.);
#838=LINE('',#835,#837);
#839=EDGE_CURVE('',#294,#834,#838,.T.);
#840=ORIENTED_EDGE('',*,*,#839,.F.);
#841=ORIENTED_EDGE('',*,*,#300,.T.);
#842=ORIENTED_EDGE('',*,*,#839,.T.);
#843=CARTESIAN_POINT('',(14.22,-56.62521279,25.135364778));
#844=DIRECTION('',(0.,-1.,0.));
#845=DIRECTION('',(0.,0.,-1.));
#846=AXIS2_PLACEMENT_3D('',#843,#844,#845);
#847=CIRCLE('',#846,11.);
#848=EDGE_CURVE('',#834,#834,#847,.T.);
#849=ORIENTED_EDGE('',*,*,#848,.F.);
#850=EDGE_LOOP('',(#840,#841,#842,#849));
#851=FACE_BOUND('',#850,.T.);
#852=ADVANCED_FACE('',(#851),#832,.F.);
#853=CARTESIAN_POINT('',(0.,-56.62521279,0.));
#854=DIRECTION('',(0.,-1.,0.));
#855=DIRECTION('',(0.,0.,-1.));
#856=AXIS2_PLACEMENT_3D('',#853,#854,#855);
#857=PLANE('',#856);
#858=ORIENTED_EDGE('',*,*,#848,.T.);
#859=EDGE_LOOP('',(#858));
#860=FACE_BOUND('',#859,.T.);
#861=ORIENTED_EDGE('',*,*,#150,.T.);
#862=ORIENTED_EDGE('',*,*,#157,.T.);
#863=EDGE_LOOP('',(#861,#862));
#864=FACE_BOUND('',#863,.T.);
#865=ADVANCED_FACE('',(#860,#864),#857,.T.);
#866=CARTESIAN_POINT('',(-10.,-64.62521279,70.));
#867=DIRECTION('',(0.,-1.,0.));
#868=DIRECTION('',(0.,0.,-1.));
#869=AXIS2_PLACEMENT_3D('',#866,#867,#868);
#870=CYLINDRICAL_SURFACE('',#869,2.);
#871=CARTESIAN_POINT('',(-10.,-70.62521279,68.));
#872=DIRECTION('',(-0.,1.,-0.));
#873=VECTOR('',#872,20.);
#874=LINE('',#871,#873);
#875=EDGE_CURVE('',#276,#629,#874,.T.);
#876=ORIENTED_EDGE('',*,*,#875,.F.);
#877=ORIENTED_EDGE('',*,*,#282,.F.);
#878=ORIENTED_EDGE('',*,*,#289,.F.);
#879=ORIENTED_EDGE('',*,*,#875,.T.);
#880=ORIENTED_EDGE('',*,*,#635,.F.);
#881=EDGE_LOOP('',(#876,#877,#878,#879,#880));
#882=FACE_BOUND('',#881,.T.);
#883=ADVANCED_FACE('',(#882),#870,.F.);
#884=CARTESIAN_POINT('',(10.,-64.62521279,70.));
#885=DIRECTION('',(0.,-1.,0.));
#886=DIRECTION('',(0.,0.,-1.));
#887=AXIS2_PLACEMENT_3D('',#884,#885,#886);
#888=CYLINDRICAL_SURFACE('',#887,2.);
#889=CARTESIAN_POINT('',(10.,-70.62521279,68.));
#890=DIRECTION('',(-0.,1.,-0.));
#891=VECTOR('',#890,20.);
#892=LINE('',#889,#891);
#893=EDGE_CURVE('',#256,#618,#892,.T.);
#894=ORIENTED_EDGE('',*,*,#893,.F.);
#895=ORIENTED_EDGE('',*,*,#262,.F.);
#896=ORIENTED_EDGE('',*,*,#269,.F.);
#897=ORIENTED_EDGE('',*,*,#893,.T.);
#898=ORIENTED_EDGE('',*,*,#624,.F.);
#899=EDGE_LOOP('',(#894,#895,#896,#897,#898));
#900=FACE_BOUND('',#899,.T.);
#901=ADVANCED_FACE('',(#900),#888,.F.);
#902=CARTESIAN_POINT('',(-15.,-64.62521279,25.));
#903=DIRECTION('',(0.,-1.,0.));
#904=DIRECTION('',(0.,0.,-1.));
#905=AXIS2_PLACEMENT_3D('',#902,#903,#904);
#906=CYLINDRICAL_SURFACE('',#905,2.);
#907=CARTESIAN_POINT('',(-15.,-70.62521279,23.));
#908=DIRECTION('',(-0.,1.,-0.));
#909=VECTOR('',#908,20.);
#910=LINE('',#907,#909);
#911=EDGE_CURVE('',#236,#607,#910,.T.);
#912=ORIENTED_EDGE('',*,*,#911,.F.);
#913=ORIENTED_EDGE('',*,*,#242,.F.);
#914=ORIENTED_EDGE('',*,*,#249,.F.);
#915=ORIENTED_EDGE('',*,*,#911,.T.);
#916=ORIENTED_EDGE('',*,*,#613,.F.);
#917=EDGE_LOOP('',(#912,#913,#914,#915,#916));
#918=FACE_BOUND('',#917,.T.);
#919=ADVANCED_FACE('',(#918),#906,.F.);
#920=CARTESIAN_POINT('',(36.505162385,-71.62521279,25.885364778));
#921=DIRECTION('',(0.,1.,0.));
#922=DIRECTION('',(0.,-0.,1.));
#923=AXIS2_PLACEMENT_3D('',#920,#921,#922);
#924=CYLINDRICAL_SURFACE('',#923,5.);
#925=ORIENTED_EDGE('',*,*,#343,.F.);
#926=ORIENTED_EDGE('',*,*,#480,.F.);
#927=ORIENTED_EDGE('',*,*,#693,.F.);
#928=ORIENTED_EDGE('',*,*,#747,.F.);
#929=EDGE_LOOP('',(#925,#926,#927,#928));
#930=FACE_BOUND('',#929,.T.);
#931=ADVANCED_FACE('',(#930),#924,.F.);
#932=CARTESIAN_POINT('',(-31.725595027,-389.133797204,25.885364778));
#933=DIRECTION('',(0.,-1.,0.));
#934=DIRECTION('',(0.,0.,-1.));
#935=AXIS2_PLACEMENT_3D('',#932,#933,#934);
#936=CYLINDRICAL_SURFACE('',#935,5.);
#937=ORIENTED_EDGE('',*,*,#377,.F.);
#938=ORIENTED_EDGE('',*,*,#708,.F.);
#939=ORIENTED_EDGE('',*,*,#661,.F.);
#940=ORIENTED_EDGE('',*,*,#519,.F.);
#941=EDGE_LOOP('',(#937,#938,#939,#940));
#942=FACE_BOUND('',#941,.T.);
#943=ADVANCED_FACE('',(#942),#936,.F.);
#944=CARTESIAN_POINT('',(-40.862897514,-60.62521279,-26.114635222));
#945=DIRECTION('',(0.,0.,1.));
#946=DIRECTION('',(1.,0.,-0.));
#947=AXIS2_PLACEMENT_3D('',#944,#945,#946);
#948=CYLINDRICAL_SURFACE('',#947,3.);
#949=CARTESIAN_POINT('',(-37.862897514,-60.62521279,20.885364778));
#950=DIRECTION('',(-0.,-0.,-1.));
#951=VECTOR('',#950,10.);
#952=LINE('',#949,#951);
#953=EDGE_CURVE('',#493,#579,#952,.T.);
#954=ORIENTED_EDGE('',*,*,#953,.F.);
#955=ORIENTED_EDGE('',*,*,#501,.T.);
#956=ORIENTED_EDGE('',*,*,#508,.T.);
#957=ORIENTED_EDGE('',*,*,#953,.T.);
#958=ORIENTED_EDGE('',*,*,#585,.F.);
#959=EDGE_LOOP('',(#954,#955,#956,#957,#958));
#960=FACE_BOUND('',#959,.T.);
#961=ADVANCED_FACE('',(#960),#948,.F.);
#962=CARTESIAN_POINT('',(45.752481193,-60.62521279,-59.114635222));
#963=DIRECTION('',(0.,0.,1.));
#964=DIRECTION('',(1.,0.,-0.));
#965=AXIS2_PLACEMENT_3D('',#962,#963,#964);
#966=CYLINDRICAL_SURFACE('',#965,3.);
#967=CARTESIAN_POINT('',(48.752481193,-60.62521279,20.885364778));
#968=DIRECTION('',(-0.,-0.,-1.));
#969=VECTOR('',#968,10.);
#970=LINE('',#967,#969);
#971=EDGE_CURVE('',#449,#568,#970,.T.);
#972=ORIENTED_EDGE('',*,*,#971,.F.);
#973=ORIENTED_EDGE('',*,*,#457,.T.);
#974=ORIENTED_EDGE('',*,*,#464,.T.);
#975=ORIENTED_EDGE('',*,*,#971,.T.);
#976=ORIENTED_EDGE('',*,*,#574,.F.);
#977=EDGE_LOOP('',(#972,#973,#974,#975,#976));
#978=FACE_BOUND('',#977,.T.);
#979=ADVANCED_FACE('',(#978),#966,.F.);
#980=CLOSED_SHELL('',(#161,#194,#227,#411,#442,#486,#537,#561,#600,#697,#719,#736,#753,#778,#790,#815,#827,#852,#865,#883,#901,#919,#931,#943,#961,#979));
#981=MANIFOLD_SOLID_BREP('Side_Brace_Redesigned* (8)*',#980);
#982=COLOUR_RGB('',0.611764729,0.611764729,0.611764729);
#983=FILL_AREA_STYLE_COLOUR('',#982);
#984=FILL_AREA_STYLE('',(#983));
#985=SURFACE_STYLE_FILL_AREA(#984);
#986=SURFACE_SIDE_STYLE('',(#985));
#987=SURFACE_STYLE_USAGE(.BOTH.,#986);
#988=PRESENTATION_STYLE_ASSIGNMENT((#987));
#110=STYLED_ITEM('',(#988),#981);
#91=SHAPE_REPRESENTATION('Pos_Y_Side',(#15),#89);
#92=ADVANCED_BREP_SHAPE_REPRESENTATION('Pos_Y_Side',(#981),#89);
#996=SHAPE_REPRESENTATION_RELATIONSHIP('','',#91,#92);
#997=CARTESIAN_POINT('',(0.,0.,0.));
#998=DIRECTION('',(0.,0.,1.));
#999=DIRECTION('',(1.,0.,0.));
#1000=AXIS2_PLACEMENT_3D('',#997,#998,#999);
#1002=MAPPED_ITEM('',#1001,#1000);
#1001=REPRESENTATION_MAP(#1000,#91);
#1003=APPLICATION_CONTEXT('Managed model based 3d engineering');
#1004=APPLICATION_PROTOCOL_DEFINITION('international standard','ap242_managed_model_based_3d_engineering',2014,#1003);
#1005=PRODUCT_CONTEXT('',#1003,'mechanical');
#1006=PRODUCT_DEFINITION_CONTEXT('part definition',#1003,'design');
#99=PRODUCT('Pos_Y_Side','Pos_Y_Side','',(#1005));
#1007=PRODUCT_RELATED_PRODUCT_CATEGORY('part','',(#99));
#1008=PRODUCT_DEFINITION_FORMATION_WITH_SPECIFIED_SOURCE('','',#99,.NOT_KNOWN.);
#100=PRODUCT_DEFINITION('design','',#1008,#1006);
#98=PRODUCT_DEFINITION_SHAPE('','',#100);
#1009=SHAPE_DEFINITION_REPRESENTATION(#98,#91);
#90=DRAUGHTING_MODEL('',(#1002),#89);
#63=SHAPE_REPRESENTATION('Redesigned_Bevel_Gear',(#15,#104),#61);
#1010=CARTESIAN_POINT('',(0.,0.,0.));
#1011=DIRECTION('',(0.,0.,1.));
#1012=DIRECTION('',(1.,0.,0.));
#1013=AXIS2_PLACEMENT_3D('',#1010,#1011,#1012);
#1015=MAPPED_ITEM('',#1014,#1013);
#1014=REPRESENTATION_MAP(#1013,#63);
#71=PRODUCT('Redesigned_Bevel_Gear','Redesigned_Bevel_Gear','',(#1005));
#1016=PRODUCT_RELATED_PRODUCT_CATEGORY('part','',(#71));
#1017=PRODUCT_DEFINITION_FORMATION_WITH_SPECIFIED_SOURCE('','',#71,.NOT_KNOWN.);
#72=PRODUCT_DEFINITION('design','',#1017,#1006);
#70=PRODUCT_DEFINITION_SHAPE('','',#72);
#1018=SHAPE_DEFINITION_REPRESENTATION(#70,#63);
#62=DRAUGHTING_MODEL('',(#1015),#61);
#35=SHAPE_REPRESENTATION('RoboticArm.step',(#15,#76),#33);
#1019=CARTESIAN_POINT('',(0.,0.,0.));
#1020=DIRECTION('',(0.,0.,1.));
#1021=DIRECTION('',(1.,0.,0.));
#1022=AXIS2_PLACEMENT_3D('',#1019,#1020,#1021);
#1024=MAPPED_ITEM('',#1023,#1022);
#1023=REPRESENTATION_MAP(#1022,#35);
#43=PRODUCT('RoboticArm.step','RoboticArm.step','',(#1005));
#1025=PRODUCT_RELATED_PRODUCT_CATEGORY('part','',(#43));
#1026=PRODUCT_DEFINITION_FORMATION_WITH_SPECIFIED_SOURCE('','',#43,.NOT_KNOWN.);
#44=PRODUCT_DEFINITION('design','',#1026,#1006);
#42=PRODUCT_DEFINITION_SHAPE('','',#44);
#1027=SHAPE_DEFINITION_REPRESENTATION(#42,#35);
#34=DRAUGHTING_MODEL('',(#1024),#33);
#16=SHAPE_REPRESENTATION('root',(#15,#48),#10);
#1028=CARTESIAN_POINT('',(0.,0.,0.));
#1029=DIRECTION('',(0.,0.,1.));
#1030=DIRECTION('',(1.,0.,0.));
#1031=AXIS2_PLACEMENT_3D('',#1028,#1029,#1030);
#1033=MAPPED_ITEM('',#1032,#1031);
#1032=REPRESENTATION_MAP(#1031,#16);
#24=PRODUCT('root','root','',(#1005));
#1034=PRODUCT_RELATED_PRODUCT_CATEGORY('part','',(#24));
#1035=PRODUCT_DEFINITION_FORMATION_WITH_SPECIFIED_SOURCE('','',#24,.NOT_KNOWN.);
#25=PRODUCT_DEFINITION('design','',#1035,#1006);
#23=PRODUCT_DEFINITION_SHAPE('','',#25);
#1036=SHAPE_DEFINITION_REPRESENTATION(#23,#16);
#11=DRAUGHTING_MODEL('',(#1033),#10);
#1037=DESCRIPTIVE_REPRESENTATION_ITEM('KEY','C:\\Users\\tbheg\\AppData\\Local\\Packages\\Shapr3D.Shapr3D_j403pzjkqtqbj\\TempState\\05215bcd-9874-420b-9a16-32618d9ab6f0.tmp');
#1038=PROPERTY_DEFINITION('KEY','',#25);
#1039=REPRESENTATION('',(#1037),#10);
#1040=PROPERTY_DEFINITION_REPRESENTATION(#1038,#1039);
#1041=GENERAL_PROPERTY('','KEY','');
#1042=GENERAL_PROPERTY_ASSOCIATION('','',#1041,#1038);
#1=MECHANICAL_DESIGN_GEOMETRIC_PRESENTATION_REPRESENTATION('',(#110),#10);
ENDSEC;
END-ISO-10303-21;
