ISO-10303-21;
HEADER;

/* File generated by Shapr3D Version 5.860.8843.0 */

FILE_DESCRIPTION(('HOOPS Exchange Step'),'2;1');

FILE_NAME('C:\\Users\\tbheg\\AppData\\Local\\Packages\\Shapr3D.Shapr3D_j403pzjkqtqbj\\TempState\\export\\temp_export',
'2025-06-03T17:19:28+02:00',
('tbheg'),
('Shapr3D Limited'),
'HOOPS Exchange 2024.8',
'Shapr3D',
'Authorized');

FILE_SCHEMA( ('AP242_MANAGED_MODEL_BASED_3D_ENGINEERING_MIM_LF {1 0 10303 442 1 1 4}') );

ENDSEC;

DATA;
#3=(NAMED_UNIT(*)PLANE_ANGLE_UNIT()SI_UNIT($,.RADIAN.));
#4=PLANE_ANGLE_MEASURE_WITH_UNIT(PLANE_ANGLE_MEASURE(0.0174532925),#3);
#5=(CONVERSION_BASED_UNIT('DEGREE',#4)NAMED_UNIT(#6)PLANE_ANGLE_UNIT());
#6=DIMENSIONAL_EXPONENTS(0.,0.,0.,0.,0.,0.,0.);
#7=(NAMED_UNIT(*)SI_UNIT($,.STERADIAN.)SOLID_ANGLE_UNIT());
#8=(LENGTH_UNIT()NAMED_UNIT(*)SI_UNIT(.MILLI.,.METRE.));
#9=UNCERTAINTY_MEASURE_WITH_UNIT(LENGTH_MEASURE(1.000000E-03),#8,'DISTANCE_ACCURACY_VALUE','Maximum Tolerance applied to model');
#10=(GEOMETRIC_REPRESENTATION_CONTEXT(3)GLOBAL_UNCERTAINTY_ASSIGNED_CONTEXT((#9))GLOBAL_UNIT_ASSIGNED_CONTEXT((#8,#5,#7))REPRESENTATION_CONTEXT('','root'));
#12=CARTESIAN_POINT('',(0.,0.,0.));
#13=DIRECTION('',(0.,0.,1.));
#14=DIRECTION('',(1.,0.,0.));
#15=AXIS2_PLACEMENT_3D('',#12,#13,#14);
#26=(NAMED_UNIT(*)PLANE_ANGLE_UNIT()SI_UNIT($,.RADIAN.));
#27=PLANE_ANGLE_MEASURE_WITH_UNIT(PLANE_ANGLE_MEASURE(0.0174532925),#26);
#28=(CONVERSION_BASED_UNIT('DEGREE',#27)NAMED_UNIT(#29)PLANE_ANGLE_UNIT());
#29=DIMENSIONAL_EXPONENTS(0.,0.,0.,0.,0.,0.,0.);
#30=(NAMED_UNIT(*)SI_UNIT($,.STERADIAN.)SOLID_ANGLE_UNIT());
#31=(LENGTH_UNIT()NAMED_UNIT(*)SI_UNIT(.MILLI.,.METRE.));
#32=UNCERTAINTY_MEASURE_WITH_UNIT(LENGTH_MEASURE(1.000000E-03),#31,'DISTANCE_ACCURACY_VALUE','Maximum Tolerance applied to model');
#33=(GEOMETRIC_REPRESENTATION_CONTEXT(3)GLOBAL_UNCERTAINTY_ASSIGNED_CONTEXT((#32))GLOBAL_UNIT_ASSIGNED_CONTEXT((#31,#28,#30))REPRESENTATION_CONTEXT('','RoboticArm.step'));
#45=CARTESIAN_POINT('',(0.,0.,0.));
#46=DIRECTION('',(0.,0.,1.));
#47=DIRECTION('',(1.,0.,-0.));
#48=AXIS2_PLACEMENT_3D('',#45,#46,#47);
#49=ITEM_DEFINED_TRANSFORMATION('','',#48,#15);
#50=(REPRESENTATION_RELATIONSHIP('','',#35,#16)REPRESENTATION_RELATIONSHIP_WITH_TRANSFORMATION(#49)SHAPE_REPRESENTATION_RELATIONSHIP());
#51=NEXT_ASSEMBLY_USAGE_OCCURRENCE('RoboticArm.step_1','RoboticArm.step','RoboticArm.step',#25,#44,$);
#52=PRODUCT_DEFINITION_SHAPE('','',#51);
#53=CONTEXT_DEPENDENT_SHAPE_REPRESENTATION(#50,#52);
#54=(NAMED_UNIT(*)PLANE_ANGLE_UNIT()SI_UNIT($,.RADIAN.));
#55=PLANE_ANGLE_MEASURE_WITH_UNIT(PLANE_ANGLE_MEASURE(0.0174532925),#54);
#56=(CONVERSION_BASED_UNIT('DEGREE',#55)NAMED_UNIT(#57)PLANE_ANGLE_UNIT());
#57=DIMENSIONAL_EXPONENTS(0.,0.,0.,0.,0.,0.,0.);
#58=(NAMED_UNIT(*)SI_UNIT($,.STERADIAN.)SOLID_ANGLE_UNIT());
#59=(LENGTH_UNIT()NAMED_UNIT(*)SI_UNIT(.MILLI.,.METRE.));
#60=UNCERTAINTY_MEASURE_WITH_UNIT(LENGTH_MEASURE(1.000000E-03),#59,'DISTANCE_ACCURACY_VALUE','Maximum Tolerance applied to model');
#61=(GEOMETRIC_REPRESENTATION_CONTEXT(3)GLOBAL_UNCERTAINTY_ASSIGNED_CONTEXT((#60))GLOBAL_UNIT_ASSIGNED_CONTEXT((#59,#56,#58))REPRESENTATION_CONTEXT('','Redesigned_Bevel_Gear'));
#73=CARTESIAN_POINT('',(0.,0.,0.));
#74=DIRECTION('',(0.,0.,1.));
#75=DIRECTION('',(1.,0.,-0.));
#76=AXIS2_PLACEMENT_3D('',#73,#74,#75);
#77=ITEM_DEFINED_TRANSFORMATION('','',#76,#15);
#78=(REPRESENTATION_RELATIONSHIP('','',#63,#35)REPRESENTATION_RELATIONSHIP_WITH_TRANSFORMATION(#77)SHAPE_REPRESENTATION_RELATIONSHIP());
#79=NEXT_ASSEMBLY_USAGE_OCCURRENCE('Redesigned_Bevel_Gear_2','Redesigned_Bevel_Gear','Redesigned_Bevel_Gear',#44,#72,$);
#80=PRODUCT_DEFINITION_SHAPE('','',#79);
#81=CONTEXT_DEPENDENT_SHAPE_REPRESENTATION(#78,#80);
#82=(NAMED_UNIT(*)PLANE_ANGLE_UNIT()SI_UNIT($,.RADIAN.));
#83=PLANE_ANGLE_MEASURE_WITH_UNIT(PLANE_ANGLE_MEASURE(0.0174532925),#82);
#84=(CONVERSION_BASED_UNIT('DEGREE',#83)NAMED_UNIT(#85)PLANE_ANGLE_UNIT());
#85=DIMENSIONAL_EXPONENTS(0.,0.,0.,0.,0.,0.,0.);
#86=(NAMED_UNIT(*)SI_UNIT($,.STERADIAN.)SOLID_ANGLE_UNIT());
#87=(LENGTH_UNIT()NAMED_UNIT(*)SI_UNIT(.MILLI.,.METRE.));
#88=UNCERTAINTY_MEASURE_WITH_UNIT(LENGTH_MEASURE(1.000000E-05),#87,'DISTANCE_ACCURACY_VALUE','Maximum Tolerance applied to model');
#89=(GEOMETRIC_REPRESENTATION_CONTEXT(3)GLOBAL_UNCERTAINTY_ASSIGNED_CONTEXT((#88))GLOBAL_UNIT_ASSIGNED_CONTEXT((#87,#84,#86))REPRESENTATION_CONTEXT('','Pos_Y_Side'));
#101=CARTESIAN_POINT('',(0.,0.,0.));
#102=DIRECTION('',(0.,0.,1.));
#103=DIRECTION('',(1.,0.,-0.));
#104=AXIS2_PLACEMENT_3D('',#101,#102,#103);
#105=ITEM_DEFINED_TRANSFORMATION('','',#104,#15);
#106=(REPRESENTATION_RELATIONSHIP('','',#91,#63)REPRESENTATION_RELATIONSHIP_WITH_TRANSFORMATION(#105)SHAPE_REPRESENTATION_RELATIONSHIP());
#107=NEXT_ASSEMBLY_USAGE_OCCURRENCE('Pos_Y_Side_3','Pos_Y_Side','Pos_Y_Side',#72,#100,$);
#108=PRODUCT_DEFINITION_SHAPE('','',#107);
#109=CONTEXT_DEPENDENT_SHAPE_REPRESENTATION(#106,#108);
#111=CARTESIAN_POINT('',(0.594673209,-74.62521279,57.647320393));
#112=DIRECTION('',(0.,1.,0.));
#113=DIRECTION('',(-1.,0.,0.));
#114=AXIS2_PLACEMENT_3D('',#111,#112,#113);
#115=PLANE('',#114);
#116=CARTESIAN_POINT('',(-15.,-74.62521279,22.75));
#117=VERTEX_POINT('',#116);
#118=CARTESIAN_POINT('',(-15.,-74.62521279,27.25));
#119=VERTEX_POINT('',#118);
#120=CARTESIAN_POINT('',(-15.,-74.62521279,25.));
#121=DIRECTION('',(-0.,-1.,-0.));
#122=DIRECTION('',(0.,-0.,1.));
#123=AXIS2_PLACEMENT_3D('',#120,#121,#122);
#124=CIRCLE('',#123,2.25);
#125=EDGE_CURVE('',#117,#119,#124,.T.);
#126=ORIENTED_EDGE('',*,*,#125,.F.);
#127=CARTESIAN_POINT('',(-15.,-74.62521279,25.));
#128=DIRECTION('',(-0.,-1.,-0.));
#129=DIRECTION('',(0.,-0.,1.));
#130=AXIS2_PLACEMENT_3D('',#127,#128,#129);
#131=CIRCLE('',#130,2.25);
#132=EDGE_CURVE('',#119,#117,#131,.T.);
#133=ORIENTED_EDGE('',*,*,#132,.F.);
#134=EDGE_LOOP('',(#126,#133));
#135=FACE_BOUND('',#134,.T.);
#136=CARTESIAN_POINT('',(10.,-74.62521279,67.75));
#137=VERTEX_POINT('',#136);
#138=CARTESIAN_POINT('',(10.,-74.62521279,72.25));
#139=VERTEX_POINT('',#138);
#140=CARTESIAN_POINT('',(10.,-74.62521279,70.));
#141=DIRECTION('',(-0.,-1.,-0.));
#142=DIRECTION('',(0.,-0.,1.));
#143=AXIS2_PLACEMENT_3D('',#140,#141,#142);
#144=CIRCLE('',#143,2.25);
#145=EDGE_CURVE('',#137,#139,#144,.T.);
#146=ORIENTED_EDGE('',*,*,#145,.F.);
#147=CARTESIAN_POINT('',(10.,-74.62521279,70.));
#148=DIRECTION('',(-0.,-1.,-0.));
#149=DIRECTION('',(0.,-0.,1.));
#150=AXIS2_PLACEMENT_3D('',#147,#148,#149);
#151=CIRCLE('',#150,2.25);
#152=EDGE_CURVE('',#139,#137,#151,.T.);
#153=ORIENTED_EDGE('',*,*,#152,.F.);
#154=EDGE_LOOP('',(#146,#153));
#155=FACE_BOUND('',#154,.T.);
#156=CARTESIAN_POINT('',(-10.,-74.62521279,67.75));
#157=VERTEX_POINT('',#156);
#158=CARTESIAN_POINT('',(-10.,-74.62521279,72.25));
#159=VERTEX_POINT('',#158);
#160=CARTESIAN_POINT('',(-10.,-74.62521279,70.));
#161=DIRECTION('',(-0.,-1.,-0.));
#162=DIRECTION('',(0.,-0.,1.));
#163=AXIS2_PLACEMENT_3D('',#160,#161,#162);
#164=CIRCLE('',#163,2.25);
#165=EDGE_CURVE('',#157,#159,#164,.T.);
#166=ORIENTED_EDGE('',*,*,#165,.F.);
#167=CARTESIAN_POINT('',(-10.,-74.62521279,70.));
#168=DIRECTION('',(-0.,-1.,-0.));
#169=DIRECTION('',(0.,-0.,1.));
#170=AXIS2_PLACEMENT_3D('',#167,#168,#169);
#171=CIRCLE('',#170,2.25);
#172=EDGE_CURVE('',#159,#157,#171,.T.);
#173=ORIENTED_EDGE('',*,*,#172,.F.);
#174=EDGE_LOOP('',(#166,#173));
#175=FACE_BOUND('',#174,.T.);
#176=CARTESIAN_POINT('',(-0.,-74.62521279,85.897320393));
#177=VERTEX_POINT('',#176);
#178=CARTESIAN_POINT('',(-0.,-74.62521279,102.897320393));
#179=VERTEX_POINT('',#178);
#180=CARTESIAN_POINT('',(0.,-74.62521279,94.397320393));
#181=DIRECTION('',(-0.,-1.,-0.));
#182=DIRECTION('',(0.,-0.,1.));
#183=AXIS2_PLACEMENT_3D('',#180,#181,#182);
#184=CIRCLE('',#183,8.5);
#185=EDGE_CURVE('',#177,#179,#184,.T.);
#186=ORIENTED_EDGE('',*,*,#185,.F.);
#187=CARTESIAN_POINT('',(0.,-74.62521279,94.397320393));
#188=DIRECTION('',(-0.,-1.,-0.));
#189=DIRECTION('',(0.,-0.,1.));
#190=AXIS2_PLACEMENT_3D('',#187,#188,#189);
#191=CIRCLE('',#190,8.5);
#192=EDGE_CURVE('',#179,#177,#191,.T.);
#193=ORIENTED_EDGE('',*,*,#192,.F.);
#194=EDGE_LOOP('',(#186,#193));
#195=FACE_BOUND('',#194,.T.);
#196=CARTESIAN_POINT('',(0.,-74.62521279,40.187320393));
#197=VERTEX_POINT('',#196);
#198=CARTESIAN_POINT('',(-0.,-74.62521279,57.187320393));
#199=VERTEX_POINT('',#198);
#200=CARTESIAN_POINT('',(0.,-74.62521279,48.687320393));
#201=DIRECTION('',(-0.,-1.,-0.));
#202=DIRECTION('',(0.,-0.,1.));
#203=AXIS2_PLACEMENT_3D('',#200,#201,#202);
#204=CIRCLE('',#203,8.5);
#205=EDGE_CURVE('',#197,#199,#204,.T.);
#206=ORIENTED_EDGE('',*,*,#205,.F.);
#207=CARTESIAN_POINT('',(0.,-74.62521279,48.687320393));
#208=DIRECTION('',(-0.,-1.,-0.));
#209=DIRECTION('',(0.,-0.,1.));
#210=AXIS2_PLACEMENT_3D('',#207,#208,#209);
#211=CIRCLE('',#210,8.5);
#212=EDGE_CURVE('',#199,#197,#211,.T.);
#213=ORIENTED_EDGE('',*,*,#212,.F.);
#214=EDGE_LOOP('',(#206,#213));
#215=FACE_BOUND('',#214,.T.);
#216=CARTESIAN_POINT('',(14.22,-74.62521279,16.635364778));
#217=VERTEX_POINT('',#216);
#218=CARTESIAN_POINT('',(14.22,-74.62521279,33.635364778));
#219=VERTEX_POINT('',#218);
#220=CARTESIAN_POINT('',(14.22,-74.62521279,25.135364778));
#221=DIRECTION('',(-0.,-1.,-0.));
#222=DIRECTION('',(0.,-0.,1.));
#223=AXIS2_PLACEMENT_3D('',#220,#221,#222);
#224=CIRCLE('',#223,8.5);
#225=EDGE_CURVE('',#217,#219,#224,.T.);
#226=ORIENTED_EDGE('',*,*,#225,.F.);
#227=CARTESIAN_POINT('',(14.22,-74.62521279,25.135364778));
#228=DIRECTION('',(-0.,-1.,-0.));
#229=DIRECTION('',(0.,-0.,1.));
#230=AXIS2_PLACEMENT_3D('',#227,#228,#229);
#231=CIRCLE('',#230,8.5);
#232=EDGE_CURVE('',#219,#217,#231,.T.);
#233=ORIENTED_EDGE('',*,*,#232,.F.);
#234=EDGE_LOOP('',(#226,#233));
#235=FACE_BOUND('',#234,.T.);
#236=CARTESIAN_POINT('',(34.728060205,-74.62521279,10.885364778));
#237=VERTEX_POINT('',#236);
#238=CARTESIAN_POINT('',(-28.962191147,-74.62521279,10.885364778));
#239=VERTEX_POINT('',#238);
#240=CARTESIAN_POINT('',(34.728060205,-74.62521279,10.885364778));
#241=DIRECTION('',(-1.,-0.,0.));
#242=VECTOR('',#241,63.690251352);
#243=LINE('',#240,#242);
#244=EDGE_CURVE('',#237,#239,#243,.T.);
#245=ORIENTED_EDGE('',*,*,#244,.F.);
#246=CARTESIAN_POINT('',(14.682417698,-74.62521279,100.755512789));
#247=VERTEX_POINT('',#246);
#248=CARTESIAN_POINT('',(34.728060205,-74.62521279,10.885364778));
#249=DIRECTION('',(-0.217701391,0.,0.976015422));
#250=VECTOR('',#249,92.078614711);
#251=LINE('',#248,#250);
#252=EDGE_CURVE('',#237,#247,#251,.T.);
#253=ORIENTED_EDGE('',*,*,#252,.T.);
#254=CARTESIAN_POINT('',(-15.815989541,-74.62521279,96.816922601));
#255=VERTEX_POINT('',#254);
#256=CARTESIAN_POINT('',(0.,-74.62521279,94.397320393));
#257=DIRECTION('',(-0.,-1.,-0.));
#258=DIRECTION('',(0.,-0.,1.));
#259=AXIS2_PLACEMENT_3D('',#256,#257,#258);
#260=CIRCLE('',#259,16.);
#261=EDGE_CURVE('',#247,#255,#260,.T.);
#262=ORIENTED_EDGE('',*,*,#261,.T.);
#263=CARTESIAN_POINT('',(-28.962191147,-74.62521279,10.885364778));
#264=DIRECTION('',(0.151225138,0.,0.988499346));
#265=VECTOR('',#264,86.931324887);
#266=LINE('',#263,#265);
#267=EDGE_CURVE('',#239,#255,#266,.T.);
#268=ORIENTED_EDGE('',*,*,#267,.F.);
#269=EDGE_LOOP('',(#245,#253,#262,#268));
#270=FACE_BOUND('',#269,.T.);
#271=ADVANCED_FACE('',(#135,#155,#175,#195,#215,#235,#270),#115,.F.);
#272=CARTESIAN_POINT('',(14.954664288,-70.62521279,15.146364778));
#273=DIRECTION('',(0.,-1.,0.));
#274=DIRECTION('',(1.,0.,0.));
#275=AXIS2_PLACEMENT_3D('',#272,#273,#274);
#276=PLANE('',#275);
#277=CARTESIAN_POINT('',(-15.,-70.62521279,22.75));
#278=VERTEX_POINT('',#277);
#279=CARTESIAN_POINT('',(-15.,-70.62521279,25.));
#280=DIRECTION('',(0.,-1.,0.));
#281=DIRECTION('',(0.,0.,-1.));
#282=AXIS2_PLACEMENT_3D('',#279,#280,#281);
#283=CIRCLE('',#282,2.25);
#284=EDGE_CURVE('',#278,#278,#283,.T.);
#285=ORIENTED_EDGE('',*,*,#284,.T.);
#286=EDGE_LOOP('',(#285));
#287=FACE_BOUND('',#286,.T.);
#288=CARTESIAN_POINT('',(10.,-70.62521279,67.75));
#289=VERTEX_POINT('',#288);
#290=CARTESIAN_POINT('',(10.,-70.62521279,70.));
#291=DIRECTION('',(0.,-1.,0.));
#292=DIRECTION('',(0.,0.,-1.));
#293=AXIS2_PLACEMENT_3D('',#290,#291,#292);
#294=CIRCLE('',#293,2.25);
#295=EDGE_CURVE('',#289,#289,#294,.T.);
#296=ORIENTED_EDGE('',*,*,#295,.T.);
#297=EDGE_LOOP('',(#296));
#298=FACE_BOUND('',#297,.T.);
#299=CARTESIAN_POINT('',(-10.,-70.62521279,67.75));
#300=VERTEX_POINT('',#299);
#301=CARTESIAN_POINT('',(-10.,-70.62521279,70.));
#302=DIRECTION('',(0.,-1.,0.));
#303=DIRECTION('',(0.,0.,-1.));
#304=AXIS2_PLACEMENT_3D('',#301,#302,#303);
#305=CIRCLE('',#304,2.25);
#306=EDGE_CURVE('',#300,#300,#305,.T.);
#307=ORIENTED_EDGE('',*,*,#306,.T.);
#308=EDGE_LOOP('',(#307));
#309=FACE_BOUND('',#308,.T.);
#310=CARTESIAN_POINT('',(14.22,-70.62521279,16.635364778));
#311=VERTEX_POINT('',#310);
#312=CARTESIAN_POINT('',(14.22,-70.62521279,25.135364778));
#313=DIRECTION('',(0.,-1.,0.));
#314=DIRECTION('',(0.,0.,-1.));
#315=AXIS2_PLACEMENT_3D('',#312,#313,#314);
#316=CIRCLE('',#315,8.5);
#317=EDGE_CURVE('',#311,#311,#316,.T.);
#318=ORIENTED_EDGE('',*,*,#317,.T.);
#319=EDGE_LOOP('',(#318));
#320=FACE_BOUND('',#319,.T.);
#321=CARTESIAN_POINT('',(-0.,-70.62521279,85.897320393));
#322=VERTEX_POINT('',#321);
#323=CARTESIAN_POINT('',(0.,-70.62521279,94.397320393));
#324=DIRECTION('',(-0.,1.,-0.));
#325=DIRECTION('',(0.,0.,-1.));
#326=AXIS2_PLACEMENT_3D('',#323,#324,#325);
#327=CIRCLE('',#326,8.5);
#328=EDGE_CURVE('',#322,#322,#327,.T.);
#329=ORIENTED_EDGE('',*,*,#328,.F.);
#330=EDGE_LOOP('',(#329));
#331=FACE_BOUND('',#330,.T.);
#332=CARTESIAN_POINT('',(-0.,-70.62521279,40.187320393));
#333=VERTEX_POINT('',#332);
#334=CARTESIAN_POINT('',(0.,-70.62521279,48.687320393));
#335=DIRECTION('',(-0.,1.,-0.));
#336=DIRECTION('',(0.,0.,-1.));
#337=AXIS2_PLACEMENT_3D('',#334,#335,#336);
#338=CIRCLE('',#337,8.5);
#339=EDGE_CURVE('',#333,#333,#338,.T.);
#340=ORIENTED_EDGE('',*,*,#339,.F.);
#341=EDGE_LOOP('',(#340));
#342=FACE_BOUND('',#341,.T.);
#343=CARTESIAN_POINT('',(34.728060205,-70.62521279,10.885364778));
#344=VERTEX_POINT('',#343);
#345=CARTESIAN_POINT('',(14.682417698,-70.62521279,100.755512789));
#346=VERTEX_POINT('',#345);
#347=CARTESIAN_POINT('',(34.728060205,-70.62521279,10.885364778));
#348=DIRECTION('',(-0.217701391,0.,0.976015422));
#349=VECTOR('',#348,92.078614711);
#350=LINE('',#347,#349);
#351=EDGE_CURVE('',#344,#346,#350,.T.);
#352=ORIENTED_EDGE('',*,*,#351,.F.);
#353=CARTESIAN_POINT('',(-28.962191147,-70.62521279,10.885364778));
#354=VERTEX_POINT('',#353);
#355=CARTESIAN_POINT('',(-28.962191147,-70.62521279,10.885364778));
#356=DIRECTION('',(1.,0.,-0.));
#357=VECTOR('',#356,63.690251352);
#358=LINE('',#355,#357);
#359=EDGE_CURVE('',#354,#344,#358,.T.);
#360=ORIENTED_EDGE('',*,*,#359,.F.);
#361=CARTESIAN_POINT('',(-15.81598954,-70.62521279,96.816922601));
#362=VERTEX_POINT('',#361);
#363=CARTESIAN_POINT('',(-28.962191147,-70.62521279,10.885364778));
#364=DIRECTION('',(0.151225138,0.,0.988499346));
#365=VECTOR('',#364,86.931324887);
#366=LINE('',#363,#365);
#367=EDGE_CURVE('',#354,#362,#366,.T.);
#368=ORIENTED_EDGE('',*,*,#367,.T.);
#369=CARTESIAN_POINT('',(0.,-70.62521279,94.397320393));
#370=DIRECTION('',(0.,-1.,0.));
#371=DIRECTION('',(0.,0.,-1.));
#372=AXIS2_PLACEMENT_3D('',#369,#370,#371);
#373=CIRCLE('',#372,16.);
#374=EDGE_CURVE('',#346,#362,#373,.T.);
#375=ORIENTED_EDGE('',*,*,#374,.F.);
#376=EDGE_LOOP('',(#352,#360,#368,#375));
#377=FACE_BOUND('',#376,.T.);
#378=ADVANCED_FACE('',(#287,#298,#309,#320,#331,#342,#377),#276,.F.);
#379=CARTESIAN_POINT('',(0.,-124.12521279,10.885364778));
#380=DIRECTION('',(0.,0.,1.));
#381=DIRECTION('',(1.,0.,0.));
#382=AXIS2_PLACEMENT_3D('',#379,#380,#381);
#383=PLANE('',#382);
#384=ORIENTED_EDGE('',*,*,#359,.T.);
#385=CARTESIAN_POINT('',(34.728060205,-70.62521279,10.885364778));
#386=DIRECTION('',(0.,-1.,0.));
#387=VECTOR('',#386,4.);
#388=LINE('',#385,#387);
#389=EDGE_CURVE('',#344,#237,#388,.T.);
#390=ORIENTED_EDGE('',*,*,#389,.T.);
#391=ORIENTED_EDGE('',*,*,#244,.T.);
#392=CARTESIAN_POINT('',(-28.962191147,-70.62521279,10.885364778));
#393=DIRECTION('',(0.,-1.,0.));
#394=VECTOR('',#393,4.);
#395=LINE('',#392,#394);
#396=EDGE_CURVE('',#354,#239,#395,.T.);
#397=ORIENTED_EDGE('',*,*,#396,.F.);
#398=EDGE_LOOP('',(#384,#390,#391,#397));
#399=FACE_BOUND('',#398,.T.);
#400=ADVANCED_FACE('',(#399),#383,.F.);
#401=CARTESIAN_POINT('',(0.,-60.62521279,48.687320393));
#402=DIRECTION('',(0.,-1.,0.));
#403=DIRECTION('',(0.,0.,-1.));
#404=AXIS2_PLACEMENT_3D('',#401,#402,#403);
#405=CYLINDRICAL_SURFACE('',#404,8.5);
#406=CARTESIAN_POINT('',(0.,-74.62521279,40.187320393));
#407=DIRECTION('',(-0.,1.,-0.));
#408=VECTOR('',#407,4.);
#409=LINE('',#406,#408);
#410=EDGE_CURVE('',#197,#333,#409,.T.);
#411=ORIENTED_EDGE('',*,*,#410,.F.);
#412=ORIENTED_EDGE('',*,*,#205,.T.);
#413=ORIENTED_EDGE('',*,*,#212,.T.);
#414=ORIENTED_EDGE('',*,*,#410,.T.);
#415=ORIENTED_EDGE('',*,*,#339,.T.);
#416=EDGE_LOOP('',(#411,#412,#413,#414,#415));
#417=FACE_BOUND('',#416,.T.);
#418=ADVANCED_FACE('',(#417),#405,.F.);
#419=CARTESIAN_POINT('',(0.,-60.62521279,94.397320393));
#420=DIRECTION('',(0.,-1.,0.));
#421=DIRECTION('',(0.,0.,-1.));
#422=AXIS2_PLACEMENT_3D('',#419,#420,#421);
#423=CYLINDRICAL_SURFACE('',#422,8.5);
#424=CARTESIAN_POINT('',(0.,-74.62521279,85.897320393));
#425=DIRECTION('',(-0.,1.,-0.));
#426=VECTOR('',#425,4.);
#427=LINE('',#424,#426);
#428=EDGE_CURVE('',#177,#322,#427,.T.);
#429=ORIENTED_EDGE('',*,*,#428,.F.);
#430=ORIENTED_EDGE('',*,*,#185,.T.);
#431=ORIENTED_EDGE('',*,*,#192,.T.);
#432=ORIENTED_EDGE('',*,*,#428,.T.);
#433=ORIENTED_EDGE('',*,*,#328,.T.);
#434=EDGE_LOOP('',(#429,#430,#431,#432,#433));
#435=FACE_BOUND('',#434,.T.);
#436=ADVANCED_FACE('',(#435),#423,.F.);
#437=CARTESIAN_POINT('',(-17.986789314,-74.62521279,82.62725688));
#438=DIRECTION('',(0.988499346,0.,-0.151225138));
#439=DIRECTION('',(-0.151225138,0.,-0.988499346));
#440=AXIS2_PLACEMENT_3D('',#437,#438,#439);
#441=PLANE('',#440);
#442=ORIENTED_EDGE('',*,*,#367,.F.);
#443=ORIENTED_EDGE('',*,*,#396,.T.);
#444=ORIENTED_EDGE('',*,*,#267,.T.);
#445=CARTESIAN_POINT('',(-15.81598954,-74.62521279,96.816922601));
#446=DIRECTION('',(0.,1.,0.));
#447=VECTOR('',#446,4.);
#448=LINE('',#445,#447);
#449=EDGE_CURVE('',#255,#362,#448,.T.);
#450=ORIENTED_EDGE('',*,*,#449,.T.);
#451=EDGE_LOOP('',(#442,#443,#444,#450));
#452=FACE_BOUND('',#451,.T.);
#453=ADVANCED_FACE('',(#452),#441,.F.);
#454=CARTESIAN_POINT('',(0.,-74.62521279,94.397320393));
#455=DIRECTION('',(0.,1.,0.));
#456=DIRECTION('',(0.,0.,-1.));
#457=AXIS2_PLACEMENT_3D('',#454,#455,#456);
#458=CYLINDRICAL_SURFACE('',#457,16.);
#459=ORIENTED_EDGE('',*,*,#374,.T.);
#460=ORIENTED_EDGE('',*,*,#449,.F.);
#461=ORIENTED_EDGE('',*,*,#261,.F.);
#462=CARTESIAN_POINT('',(14.682417698,-74.62521279,100.755512789));
#463=DIRECTION('',(0.,1.,0.));
#464=VECTOR('',#463,4.);
#465=LINE('',#462,#464);
#466=EDGE_CURVE('',#247,#346,#465,.T.);
#467=ORIENTED_EDGE('',*,*,#466,.T.);
#468=EDGE_LOOP('',(#459,#460,#461,#467));
#469=FACE_BOUND('',#468,.T.);
#470=ADVANCED_FACE('',(#469),#458,.T.);
#471=CARTESIAN_POINT('',(23.444324949,-75.62521279,61.473464273));
#472=DIRECTION('',(0.976015422,0.,0.217701391));
#473=DIRECTION('',(0.217701391,0.,-0.976015422));
#474=AXIS2_PLACEMENT_3D('',#471,#472,#473);
#475=PLANE('',#474);
#476=ORIENTED_EDGE('',*,*,#252,.F.);
#477=ORIENTED_EDGE('',*,*,#389,.F.);
#478=ORIENTED_EDGE('',*,*,#351,.T.);
#479=ORIENTED_EDGE('',*,*,#466,.F.);
#480=EDGE_LOOP('',(#476,#477,#478,#479));
#481=FACE_BOUND('',#480,.T.);
#482=ADVANCED_FACE('',(#481),#475,.T.);
#483=CARTESIAN_POINT('',(14.22,-60.62521279,25.135364778));
#484=DIRECTION('',(0.,-1.,0.));
#485=DIRECTION('',(0.,0.,-1.));
#486=AXIS2_PLACEMENT_3D('',#483,#484,#485);
#487=CYLINDRICAL_SURFACE('',#486,8.5);
#488=CARTESIAN_POINT('',(14.22,-74.62521279,16.635364778));
#489=DIRECTION('',(-0.,1.,-0.));
#490=VECTOR('',#489,4.);
#491=LINE('',#488,#490);
#492=EDGE_CURVE('',#217,#311,#491,.T.);
#493=ORIENTED_EDGE('',*,*,#492,.F.);
#494=ORIENTED_EDGE('',*,*,#225,.T.);
#495=ORIENTED_EDGE('',*,*,#232,.T.);
#496=ORIENTED_EDGE('',*,*,#492,.T.);
#497=ORIENTED_EDGE('',*,*,#317,.F.);
#498=EDGE_LOOP('',(#493,#494,#495,#496,#497));
#499=FACE_BOUND('',#498,.T.);
#500=ADVANCED_FACE('',(#499),#487,.F.);
#501=CARTESIAN_POINT('',(-10.,-64.62521279,70.));
#502=DIRECTION('',(0.,-1.,0.));
#503=DIRECTION('',(0.,0.,-1.));
#504=AXIS2_PLACEMENT_3D('',#501,#502,#503);
#505=CYLINDRICAL_SURFACE('',#504,2.25);
#506=CARTESIAN_POINT('',(-10.,-74.62521279,67.75));
#507=DIRECTION('',(-0.,1.,-0.));
#508=VECTOR('',#507,4.);
#509=LINE('',#506,#508);
#510=EDGE_CURVE('',#157,#300,#509,.T.);
#511=ORIENTED_EDGE('',*,*,#510,.F.);
#512=ORIENTED_EDGE('',*,*,#165,.T.);
#513=ORIENTED_EDGE('',*,*,#172,.T.);
#514=ORIENTED_EDGE('',*,*,#510,.T.);
#515=ORIENTED_EDGE('',*,*,#306,.F.);
#516=EDGE_LOOP('',(#511,#512,#513,#514,#515));
#517=FACE_BOUND('',#516,.T.);
#518=ADVANCED_FACE('',(#517),#505,.F.);
#519=CARTESIAN_POINT('',(10.,-64.62521279,70.));
#520=DIRECTION('',(0.,-1.,0.));
#521=DIRECTION('',(0.,0.,-1.));
#522=AXIS2_PLACEMENT_3D('',#519,#520,#521);
#523=CYLINDRICAL_SURFACE('',#522,2.25);
#524=CARTESIAN_POINT('',(10.,-74.62521279,67.75));
#525=DIRECTION('',(-0.,1.,-0.));
#526=VECTOR('',#525,4.);
#527=LINE('',#524,#526);
#528=EDGE_CURVE('',#137,#289,#527,.T.);
#529=ORIENTED_EDGE('',*,*,#528,.F.);
#530=ORIENTED_EDGE('',*,*,#145,.T.);
#531=ORIENTED_EDGE('',*,*,#152,.T.);
#532=ORIENTED_EDGE('',*,*,#528,.T.);
#533=ORIENTED_EDGE('',*,*,#295,.F.);
#534=EDGE_LOOP('',(#529,#530,#531,#532,#533));
#535=FACE_BOUND('',#534,.T.);
#536=ADVANCED_FACE('',(#535),#523,.F.);
#537=CARTESIAN_POINT('',(-15.,-64.62521279,25.));
#538=DIRECTION('',(0.,-1.,0.));
#539=DIRECTION('',(0.,0.,-1.));
#540=AXIS2_PLACEMENT_3D('',#537,#538,#539);
#541=CYLINDRICAL_SURFACE('',#540,2.25);
#542=CARTESIAN_POINT('',(-15.,-74.62521279,22.75));
#543=DIRECTION('',(-0.,1.,-0.));
#544=VECTOR('',#543,4.);
#545=LINE('',#542,#544);
#546=EDGE_CURVE('',#117,#278,#545,.T.);
#547=ORIENTED_EDGE('',*,*,#546,.F.);
#548=ORIENTED_EDGE('',*,*,#125,.T.);
#549=ORIENTED_EDGE('',*,*,#132,.T.);
#550=ORIENTED_EDGE('',*,*,#546,.T.);
#551=ORIENTED_EDGE('',*,*,#284,.F.);
#552=EDGE_LOOP('',(#547,#548,#549,#550,#551));
#553=FACE_BOUND('',#552,.T.);
#554=ADVANCED_FACE('',(#553),#541,.F.);
#555=CLOSED_SHELL('',(#271,#378,#400,#418,#436,#453,#470,#482,#500,#518,#536,#554));
#556=MANIFOLD_SOLID_BREP('Side_Brace_Redesigned* (8)* (1)',#555);
#557=COLOUR_RGB('',0.611764729,0.611764729,0.611764729);
#558=FILL_AREA_STYLE_COLOUR('',#557);
#559=FILL_AREA_STYLE('',(#558));
#560=SURFACE_STYLE_FILL_AREA(#559);
#561=SURFACE_SIDE_STYLE('',(#560));
#562=SURFACE_STYLE_USAGE(.BOTH.,#561);
#563=PRESENTATION_STYLE_ASSIGNMENT((#562));
#110=STYLED_ITEM('',(#563),#556);
#91=SHAPE_REPRESENTATION('Pos_Y_Side',(#15),#89);
#92=ADVANCED_BREP_SHAPE_REPRESENTATION('Pos_Y_Side',(#556),#89);
#571=SHAPE_REPRESENTATION_RELATIONSHIP('','',#91,#92);
#572=CARTESIAN_POINT('',(0.,0.,0.));
#573=DIRECTION('',(0.,0.,1.));
#574=DIRECTION('',(1.,0.,0.));
#575=AXIS2_PLACEMENT_3D('',#572,#573,#574);
#577=MAPPED_ITEM('',#576,#575);
#576=REPRESENTATION_MAP(#575,#91);
#578=APPLICATION_CONTEXT('Managed model based 3d engineering');
#579=APPLICATION_PROTOCOL_DEFINITION('international standard','ap242_managed_model_based_3d_engineering',2014,#578);
#580=PRODUCT_CONTEXT('',#578,'mechanical');
#581=PRODUCT_DEFINITION_CONTEXT('part definition',#578,'design');
#99=PRODUCT('Pos_Y_Side','Pos_Y_Side','',(#580));
#582=PRODUCT_RELATED_PRODUCT_CATEGORY('part','',(#99));
#583=PRODUCT_DEFINITION_FORMATION_WITH_SPECIFIED_SOURCE('','',#99,.NOT_KNOWN.);
#100=PRODUCT_DEFINITION('design','',#583,#581);
#98=PRODUCT_DEFINITION_SHAPE('','',#100);
#584=SHAPE_DEFINITION_REPRESENTATION(#98,#91);
#90=DRAUGHTING_MODEL('',(#577),#89);
#63=SHAPE_REPRESENTATION('Redesigned_Bevel_Gear',(#15,#104),#61);
#585=CARTESIAN_POINT('',(0.,0.,0.));
#586=DIRECTION('',(0.,0.,1.));
#587=DIRECTION('',(1.,0.,0.));
#588=AXIS2_PLACEMENT_3D('',#585,#586,#587);
#590=MAPPED_ITEM('',#589,#588);
#589=REPRESENTATION_MAP(#588,#63);
#71=PRODUCT('Redesigned_Bevel_Gear','Redesigned_Bevel_Gear','',(#580));
#591=PRODUCT_RELATED_PRODUCT_CATEGORY('part','',(#71));
#592=PRODUCT_DEFINITION_FORMATION_WITH_SPECIFIED_SOURCE('','',#71,.NOT_KNOWN.);
#72=PRODUCT_DEFINITION('design','',#592,#581);
#70=PRODUCT_DEFINITION_SHAPE('','',#72);
#593=SHAPE_DEFINITION_REPRESENTATION(#70,#63);
#62=DRAUGHTING_MODEL('',(#590),#61);
#35=SHAPE_REPRESENTATION('RoboticArm.step',(#15,#76),#33);
#594=CARTESIAN_POINT('',(0.,0.,0.));
#595=DIRECTION('',(0.,0.,1.));
#596=DIRECTION('',(1.,0.,0.));
#597=AXIS2_PLACEMENT_3D('',#594,#595,#596);
#599=MAPPED_ITEM('',#598,#597);
#598=REPRESENTATION_MAP(#597,#35);
#43=PRODUCT('RoboticArm.step','RoboticArm.step','',(#580));
#600=PRODUCT_RELATED_PRODUCT_CATEGORY('part','',(#43));
#601=PRODUCT_DEFINITION_FORMATION_WITH_SPECIFIED_SOURCE('','',#43,.NOT_KNOWN.);
#44=PRODUCT_DEFINITION('design','',#601,#581);
#42=PRODUCT_DEFINITION_SHAPE('','',#44);
#602=SHAPE_DEFINITION_REPRESENTATION(#42,#35);
#34=DRAUGHTING_MODEL('',(#599),#33);
#16=SHAPE_REPRESENTATION('root',(#15,#48),#10);
#603=CARTESIAN_POINT('',(0.,0.,0.));
#604=DIRECTION('',(0.,0.,1.));
#605=DIRECTION('',(1.,0.,0.));
#606=AXIS2_PLACEMENT_3D('',#603,#604,#605);
#608=MAPPED_ITEM('',#607,#606);
#607=REPRESENTATION_MAP(#606,#16);
#24=PRODUCT('root','root','',(#580));
#609=PRODUCT_RELATED_PRODUCT_CATEGORY('part','',(#24));
#610=PRODUCT_DEFINITION_FORMATION_WITH_SPECIFIED_SOURCE('','',#24,.NOT_KNOWN.);
#25=PRODUCT_DEFINITION('design','',#610,#581);
#23=PRODUCT_DEFINITION_SHAPE('','',#25);
#611=SHAPE_DEFINITION_REPRESENTATION(#23,#16);
#11=DRAUGHTING_MODEL('',(#608),#10);
#612=DESCRIPTIVE_REPRESENTATION_ITEM('KEY','C:\\Users\\tbheg\\AppData\\Local\\Packages\\Shapr3D.Shapr3D_j403pzjkqtqbj\\TempState\\e41c34c1-c870-4cae-914c-7541e8f2c2eb.tmp');
#613=PROPERTY_DEFINITION('KEY','',#25);
#614=REPRESENTATION('',(#612),#10);
#615=PROPERTY_DEFINITION_REPRESENTATION(#613,#614);
#616=GENERAL_PROPERTY('','KEY','');
#617=GENERAL_PROPERTY_ASSOCIATION('','',#616,#613);
#1=MECHANICAL_DESIGN_GEOMETRIC_PRESENTATION_REPRESENTATION('',(#110),#10);
ENDSEC;
END-ISO-10303-21;
